<?xml version="1.0" encoding="utf-8"?>
<!-- Generator: Adobe Illustrator 24.3.0, SVG Export Plug-In . SVG Version: 6.00 Build 0)  -->
<svg version="1.1" id="Layer_1" xmlns="http://www.w3.org/2000/svg" xmlns:xlink="http://www.w3.org/1999/xlink" x="0px" y="0px"
	 viewBox="0 0 300 300" style="enable-background:new 0 0 300 300;" xml:space="preserve">
<style type="text/css">
	.st0{fill:#FFFFFF;}
	.st1{fill:#191919;}
</style>
<rect x="0" class="st0" width="300" height="300"/>
<g>
	<path class="st1" d="M256.7,200.1c0,3.6,0,7.3,0,10.9l0.1-0.1c-3.9,0-7.7,0-11.5,0c0,4.4,0,7.9,0,12c4.1,0,7.8,0,11.5,0l-0.1-0.1
		c0,3.6,0.1,7.3,0.1,10.9c-3.9,0-7.7,0-11.6,0c0,3.9,0,7,0,10.3c3.9,0,7.5,0,11.5,0c0-3.7,0-7.1,0-10.4c11,0,21.9,0,33.3,0
		c0,18.8,0,37.1,0,55.9c-26,0-52,0-78.7,0c0-3.9,0-7.8,0-11.6l-0.1,0.1c3.9,0,7.7,0,12,0c0-4.1,0-7.2,0-11c7.3,0,14.2,0,21.2,0
		c0-3.7,0-6.9,0-10.6c-3.5,0-6.9,0-10.7,0c0-4.2,0-7.9,0-11.5c-3.8,0-6.9,0-10.7,0c0,4,0,7.6,0,11.4c-8,0-15.3,0-22.7,0l0.1,0.1
		c0-3.8,0-7.7,0-12.1c-8.1,0-15.4,0-22.7,0c0-3.9,0-7.3,0-10.7l-0.1,0.1c3.9,0,7.7,0,11.5,0c0-8,0-15.1,0-22.7
		c-11.3,0-22.2,0-33.2,0l0.1,0.1c0-3.4,0-6.8,0-10.5c-4.1,0-7.6,0-11.6,0c0-7.7,0-14.9,0-22.6c3.5,0,7.2,0,11.5,0
		c0,3.5,0,7.2,0,11.2c3.8,0,7,0,10.7,0c0,3.7,0,7,0,10.6c7.7,0,14.9,0,22.9,0c0-7.4,0-14.8,0-22.3l-0.1,0.1c3.7,0,7.3-0.1,11-0.1
		c0,3.9,0,7.7,0,11.5c7.9,0,15,0,22.2,0c0-11.1,0-21.9,0-33.1c-3.9,0-7.4,0-11.6,0c0-4,0-7.7,0-11.9c-3.9,0-7.2,0-10.6,0
		c0-4,0-7.4,0-10.7l-0.1,0.1c3.4,0,6.8,0,10.6,0c0-3.7,0-6.9,0-10.6c4.1,0,7.7,0,11.8,0c0-4.1,0-7.6,0-11.7c-3.5,0-7.2,0-11.2,0
		c0-3.9,0-7.2,0-10.9c18.5,0,36.9,0,56,0c0,3.5,0,7.1,0,10.6l0.1-0.1c-11.1,0-22.2,0-33.2,0c0,4.5,0,8,0,12.1c7.6,0,14.9,0,22.1,0
		c0,3.8,0,7,0,10.8c-7.5,0-14.8,0-22.2,0c0,3.8,0,6.9,0,10.7c3.6,0,6.9,0,10.5,0c0,4.4,0,8.1,0,11.9c-3.5,0-7,0-10.6,0
		c0,3.9,0,7,0,10.3c3.5,0,6.8,0,10.4,0c0-3.7,0-7.1,0-10.4c4,0.1,8,0.1,12,0.2l-0.1-0.1c0,7,0,13.9,0,21.5c-3.8,0-7.5,0-11.4,0
		c0,7.7,0,14.8,0,22.8C249.1,200.1,252.9,200.1,256.7,200.1L256.7,200.1z M200.9,200.4c0,11.2,0,21.9,0,32.6c11.1,0,22,0,32.8,0
		c0-11.1,0-21.7,0-32.6C222.7,200.4,211.9,200.4,200.9,200.4z M267.5,256.5c0,3.7,0,7,0,10.8c-3.9,0-7.2,0-10.4,0c0,3.7,0,6.9,0,10
		c7.2,0,14.1,0,20.8,0c0-7.2,0-13.9,0-20.8C274.5,256.5,271.5,256.5,267.5,256.5z"/>
	<path class="st1" d="M10.1,88.8c0-26.2,0-52,0-78.2c26.2,0,52.2,0,78.6,0c0,25.9,0,51.9,0,78.2C62.7,88.8,36.7,88.8,10.1,88.8z
		 M76.9,22.7c-18.6,0-36.6,0-54.6,0c0,18.3,0,36.1,0,54c18.4,0,36.4,0,54.6,0C76.9,58.5,76.9,40.8,76.9,22.7z"/>
	<path class="st1" d="M211.4,88.6c0-26,0-51.8,0-78.1c26,0,52.1,0,78.5,0c0,25.8,0,51.7,0,78.1C264,88.6,238.1,88.6,211.4,88.6z
		 M223.4,76.6c18.6,0,36.6,0,54.6,0c0-18.3,0-36.1,0-54c-18.4,0-36.4,0-54.6,0C223.4,40.8,223.4,58.5,223.4,76.6z"/>
	<path class="st1" d="M10.2,289.2c0-26,0-51.8,0-78.1c26,0,52.1,0,78.5,0c0,25.8,0,51.7,0,78.1C62.8,289.2,36.8,289.2,10.2,289.2z
		 M22.3,223.1c0,18.5,0,36.3,0,54.2c18.4,0,36.4,0,54.3,0c0-18.3,0-36.1,0-54.2C58.4,223.1,40.5,223.1,22.3,223.1z"/>
	<path class="st1" d="M43.4,177.4c0-3.6,0.1-7.3,0.1-10.9l-0.1,0.1c18.5,0,37.1,0,56.3,0c0,3.5,0,6.8,0,10.5c3.8,0,7,0,10.8,0
		c0,4.1,0,7.7,0,12c7.9,0,15.2,0,22.7,0c0,3.8,0,7,0,10.8c-7.2,0-14.5,0-22.4,0c0,3.9,0,7.2,0,10.8c-3.8,0-7,0-10.8,0
		c0-3.2,0-6.5,0-10.4c-7.9,0-15.2,0-22.7,0c0-3.9,0-7.2,0-11c3.8,0,7.3,0,11.2,0c0-3.9,0-7.4,0-11.4c-7.1,0-14.3,0-22,0
		c0,7.2,0,14.3,0,21.8c-11.3,0-22.2,0-33.5,0c0-7.2,0-14.4,0-22.4c3.5,0,7,0,10.6,0c0,3.9,0,7.7,0,11.6c4.3,0,7.8,0,11.4,0
		c0-3.9,0-7.5,0-11.5C50.9,177.4,47.2,177.4,43.4,177.4z"/>
	<path class="st1" d="M22,155.9c0-4,0-8,0-12l-0.1,0.1c7,0,14,0,21.3,0c0-11.3,0-21.9,0-33.3c-3.3,0-6.6,0-10.2,0
		c0-3.9,0-7.2,0-10.8c18.7,0,37.1,0,55.9,0c0,3.4,0,6.6,0,10.4c-7.2,0-14.5,0-22.1,0c0,7.7,0,14.8,0,22.9c3.4,0,6.9,0,10.4,0
		l-0.1-0.1c0,3.6,0,7.3,0,10.9l0.1-0.1c-7,0-14,0-21.5,0c0,4.2,0,7.8,0,11.9c-4.1,0-7.7,0-12.1,0c0,3.9,0,7.4,0,10.9l0.1-0.1
		c-3.4,0-6.7,0-10.7,0c0-3.4,0-6.7,0-10.8C28.8,155.8,25.3,155.8,22,155.9L22,155.9z"/>
	<path class="st1" d="M211.4,277.8c-11.2,0-22.4,0-33.6,0l0.1,0.1c0-3.5,0-7,0-10.4c-4.1,0-7.2,0-10.9,0c0,3.7,0,7.1,0,10.4l0.1-0.1
		c-3.4,0-6.8,0-10.6,0c0,4,0,7.6,0,11.5c-4.1,0-7.7,0-11.9,0c0-7,0-14.3,0-22.1c3.4,0,7.1,0,11.1,0c0-3.7,0-6.9,0-10.7
		c-3.5,0-7.2,0-11.4,0c0-4.5,0-8.3,0-12.2l-0.1,0.1c7.5,0,14.9,0,23,0c0,4.1,0,7.8,0,11.9c11.5,0,22.4,0,33.4,0l-0.1-0.1
		c0,3.5,0,7,0,11c4.2,0,7.4,0,10.8,0C211.2,271.1,211.2,274.5,211.4,277.8L211.4,277.8z"/>
	<path class="st1" d="M267.5,110.6c3.4,0,6.8,0,10.8,0c0,3.8,0,7.5,0,11.6c4.1,0,7.7,0,11.6,0c0,11.3,0,22.1,0,33.6
		c-3.5,0-7.2,0-11.2,0c0,3.8,0,6.9,0,10.7c3.6,0,7.3,0,11.3,0c0,7.9,0,15.1,0,22.7c-3.8,0-7.3,0-11.5,0c0-3.5,0-7.2,0-11.5
		c-3.9,0-7.2,0-10.9,0c0-7.4,0-14.1,0-21.8c-3.9,0-7.4,0-11,0l0.1,0.1c0-3.9,0-7.7,0-12.2c7.5,0,14.4,0,21.2,0c0-3.8,0-6.9,0-10.6
		c-3.6,0-6.9,0-10.4,0C267.5,125.1,267.5,117.9,267.5,110.6L267.5,110.6z"/>
	<path class="st1" d="M122.5,88.9c0,3.4,0,6.7,0,10.5c3.7,0,6.9,0,10.5,0c0,3.7,0,7,0,10.7c-7,0-14.3,0-22.2,0c0-3.1,0-6.3,0-10.2
		c-3.9,0-7.2,0-10.8,0c0-22.6,0-44.5,0-67c7.6,0,15.1,0,22.6,0l-0.1-0.1c0,7.3,0,14.7,0,22.6c-3.8,0-7.5,0-11.4,0
		c0,11.3,0,22,0,33.6C114.9,89.1,118.7,89.1,122.5,88.9L122.5,88.9z"/>
	<path class="st1" d="M144.2,244.2c-10.9,0-21.8,0-33.6,0c0,7.9,0,15.3,0,22.8l0.1-0.1c-3.4,0-6.8,0-10.6,0c0-14.6,0-29,0-43.9
		c3.2,0,6.5,0,10.5,0c0,3.2,0,6.5,0,10.1c7.7,0,14.8,0,22.3,0c0-3.2,0-6.3,0-10.1c-3.1,0-6.4,0-10.1,0c0-4.3,0-7.9,0-12.1
		c11.1,0,22.2,0,33.3,0l-0.1-0.1c0,3.9,0,7.7,0,12.2c-4.2,0-7.8,0-11.9,0C144.2,230.6,144.2,237.4,144.2,244.2L144.2,244.2z"/>
	<path class="st1" d="M166.9,22.1c0,3.4,0,6.7,0,10.7c-3.4,0-6.7,0-10.8,0c0,4,0,7.5,0,11l0.1-0.1c-3.7,0-7.5,0-11.8,0
		c0-3.4,0-6.7,0-10.8c-7.7,0-14.8,0-21.8,0l0.1,0.1c0-3.4,0-6.7,0-10.5c-4.1,0-7.6,0-11.6,0c0-4.1,0-7.7,0-11.8c7,0,14.3,0,22.2,0
		c0,3.4,0,7,0,11.5C144.8,22.2,155.9,22.2,166.9,22.1C166.9,22.2,166.9,22.1,166.9,22.1z"/>
	<path class="st1" d="M156.1,66.4c14.6,0,29.1,0,44.1,0c0,11,0,21.8,0,33.1c-3.2,0-6.5,0-10.4,0c0-7.1,0-14.4,0-21.9
		c-4.1,0-7.6,0-11.8,0c0,3.6,0,7.3,0,11.2c-3.9,0-7.2,0-11,0c0-3.7,0-7.2,0-11.7c-3.9,0-7.4,0-10.9,0l0.1,0.1
		C156.2,73.6,156.2,69.9,156.1,66.4C156.2,66.2,156.1,66.4,156.1,66.4z"/>
	<path class="st1" d="M99.8,144.1c3.4,0,6.7,0,10.7,0c0-3.7,0-7,0-10.8c4.4,0,8.3,0,12.2,0l-0.1-0.1c0,3.4,0,6.7,0,10.7
		c3.8,0,7.1,0,10.7,0c0,7.8,0,15.1,0,22.6c-7.5,0-14.8,0-22.5,0c0-3.4,0-6.5,0-10.3c-3.7,0-7,0-10.9,0
		C99.9,151.8,99.9,147.8,99.8,144.1C99.9,143.9,99.8,144.1,99.8,144.1z"/>
	<path class="st1" d="M110.6,267.1c7.4,0,14.7,0,22.5,0c0,7.5,0,14.7,0,22.3c-10.9,0-21.8,0-33,0c0-3.7,0-7.4,0-11.5
		c3.3,0,6.5,0,10.6,0C110.7,274,110.7,270.5,110.6,267.1C110.7,267,110.6,267.1,110.6,267.1z"/>
	<path class="st1" d="M166.9,144.1c0-3.4,0-6.7,0-10.7c-3.8,0-7.1,0-10.7,0c0-3.9,0-7.2,0-10.7c14.7,0,29.1,0,44.1,0
		c0,3.6,0,7.1,0,10.6l0.1-0.1c-7.4,0-14.9,0-22.9,0c0,4.1,0,7.4,0,10.8C173.7,143.9,170.2,143.9,166.9,144.1L166.9,144.1z"/>
	<path class="st1" d="M21.9,155.8c0,14.5,0,29,0,44c-3.8,0-7.5,0-11.6,0c0-14.4,0-28.8,0-43.9C14.2,155.9,18.1,155.9,21.9,155.8
		C22,155.9,21.9,155.8,21.9,155.8z"/>
	<path class="st1" d="M156.2,55.7c0-4,0-8,0-12l-0.1,0.1c14.6,0,29.2,0,44.1,0c0,3.9,0,7.5,0,11.8C185.4,55.5,170.8,55.5,156.2,55.7
		L156.2,55.7z"/>
	<path class="st1" d="M177.8,166.6c-11.1,0-22.1,0-33.4,0c0-3.6,0-6.8,0-10.5c3.6,0,7.2,0,11.5,0c0-4.2,0-7.9,0-12
		c4.1,0,7.6,0,11.1,0l-0.1-0.1c0,3.8,0,7.7,0,12.1c4.2,0,7.4,0,10.8,0C177.7,159.9,177.7,163.3,177.8,166.6L177.8,166.6z"/>
	<path class="st1" d="M256.7,210.9c11,0,21.9,0,33.3,0c0,3.9,0,7.5,0,11.8c-11.1,0-22.2,0-33.3,0l0.1,0.1
		C256.8,218.8,256.8,214.8,256.7,210.9L256.7,210.9z"/>
	<path class="st1" d="M77.2,133.2c0-3.4,0-6.8,0-10.5c7.5,0,14.7,0,22.6,0c0,7.1,0,14.2,0,21.3l0.1-0.1c-3.6,0-7.3,0-10.9,0l0.1,0.1
		c0-3.5,0-7,0-10.9C84.5,133.1,80.8,133.1,77.2,133.2L77.2,133.2z"/>
	<path class="st1" d="M177.6,100.1c0,3.4,0,6.6,0,10.2c-10.9,0-21.8,0-33.1,0c0-3.2,0-6.5,0-10.2
		C155.2,100.1,166.1,100.1,177.6,100.1z"/>
	<path class="st1" d="M22,122.4c-3.8,0-7.5,0-11.7,0c0-7.4,0-14.7,0-22.3c3.6,0,7.3,0,11.6,0C21.9,107.6,21.9,115.1,22,122.4
		C21.9,122.4,22,122.4,22,122.4z"/>
	<path class="st1" d="M156.1,55.5c0,3.6,0,7.3,0,10.9l0.1-0.1c-7.4,0-14.7,0-22.5,0c0-3.5,0-6.8,0-10.7
		C141.2,55.7,148.7,55.7,156.1,55.5C156.2,55.7,156.1,55.5,156.1,55.5z"/>
	<path class="st1" d="M122.6,133.2c0-3.4,0-6.8,0-10.5c7.1,0,14,0,21.3,0c0,3.3,0,6.6,0,10.4C136.8,133.1,129.6,133.1,122.6,133.2
		C122.5,133.1,122.6,133.2,122.6,133.2z"/>
	<path class="st1" d="M156.1,77.1c0,3.7,0,7.5,0,11.6c-3.8,0-7.5,0-11.6,0c0-3.6,0-7.3,0-11.5C148.4,77.1,152.2,77.1,156.1,77.1
		C156.2,77.1,156.1,77.1,156.1,77.1z"/>
	<path class="st1" d="M89,143.9c0,3.7,0,7.5,0,11.6c-3.9,0-7.5,0-11.8,0c0-3.9,0-7.7,0-11.6l-0.1,0.1
		C81.1,144.1,85.1,144.1,89,143.9L89,143.9z"/>
	<path class="st1" d="M177.8,22.1c-3.6,0-7.3,0-10.9,0l0.1,0.1c0-3.7,0-7.5,0-11.6c3.5,0,6.8,0,10.7,0
		C177.7,14.5,177.7,18.2,177.8,22.1L177.8,22.1z"/>
	<path class="st1" d="M177.7,22.2c3.8,0,7.5,0,11.7,0c0,3.5,0,6.8,0,10.5c-3.6,0-7.3,0-11.6,0C177.8,29.2,177.8,25.6,177.7,22.2
		C177.8,22.1,177.7,22.2,177.7,22.2z"/>
	<path class="st1" d="M122.6,89.1c0-3.7,0-7.5,0-11.6c3.5,0,6.8,0,10.5,0c0,3.6,0,7.3,0,11.5C129.6,88.9,126,88.9,122.6,89.1
		C122.5,88.9,122.6,89.1,122.6,89.1z"/>
	<path class="st1" d="M189.7,177.3c-3.8,0-7.7,0-11.9,0c0-3.9,0-7.3,0-10.8l-0.1,0.1c4,0,8-0.1,12-0.1
		C189.7,170.2,189.7,173.8,189.7,177.3L189.7,177.3z"/>
	<path class="st1" d="M22,143.9c-3.8,0-7.5,0-11.7,0c0-3.5,0-6.8,0-10.7c3.9,0,7.8,0,11.7,0l-0.1-0.1
		C21.9,136.8,21.9,140.4,22,143.9C21.9,144.1,22,143.9,22,143.9z"/>
	<path class="st1" d="M177.7,277.8c0,3.7,0,7.5,0,11.6c-3.5,0-6.8,0-10.7,0c0-3.9,0-7.7,0-11.6l-0.1,0.1
		C170.4,277.9,174.2,277.9,177.7,277.8L177.7,277.8z"/>
	<path class="st1" d="M256.8,200.1c0-3.4,0-6.8,0-10.5c3.5,0,6.8,0,10.5,0c0,3.3,0,6.6,0,10.4C263.8,200.1,260.2,200.1,256.8,200.1
		C256.7,200.1,256.8,200.1,256.8,200.1z"/>
	<path class="st1" d="M22,133.2c0-3.6,0-7.3,0-10.9l-0.1,0.1c3.4,0,6.8,0,10.6,0c0,3.5,0,6.8,0,10.7C28.9,133.1,25.4,133.1,22,133.2
		C21.9,133.1,22,133.2,22,133.2z"/>
	<path class="st1" d="M200.4,177.6c0-3.6,0-7.3,0-10.9c3.4,0,6.7,0,10.5,0c0,3.6,0,7,0,10.9C207.4,177.6,203.9,177.6,200.4,177.6z"
		/>
	<path class="st1" d="M200.6,166.8c-3.7,0-7.3,0-11,0c0-3.4,0-6.7,0-10.5c3.6,0,7,0,11,0C200.6,159.8,200.6,163.2,200.6,166.8z"/>
	<path class="st1" d="M177.8,233.4c-3.4,0-6.8,0-10.6,0c0-3.5,0-6.8,0-10.5c3.3,0,6.6,0,10.5,0C177.7,226.6,177.7,230.1,177.8,233.4
		C177.7,233.6,177.8,233.4,177.8,233.4z"/>
	<path class="st1" d="M222.9,222.6c-4,0-7.6,0-11.5,0c0-3.9,0-7.6,0-11.5c3.9,0,7.6,0,11.5,0C222.9,214.8,222.9,218.3,222.9,222.6z"
		/>
	<path class="st1" d="M66.1,33c0,11.1,0,21.9,0,33c-11.2,0-22,0-33.2,0c0-11.1,0-21.9,0-33C44.1,33,55,33,66.1,33z"/>
	<path class="st1" d="M267.5,33.2c0,11.2,0,21.9,0,32.9c-11.1,0-22,0-33.2,0c0-10.9,0-21.8,0-32.9C245.2,33.2,256,33.2,267.5,33.2z"
		/>
	<path class="st1" d="M66.1,233.8c0,11.2,0,21.9,0,32.9c-11.1,0-22,0-33.2,0c0-10.9,0-21.8,0-32.9C44,233.8,54.8,233.8,66.1,233.8z"
		/>
</g>
</svg>
