<?xml version="1.0" encoding="utf-8"?>
<!-- Generator: Adobe Illustrator 24.3.0, SVG Export Plug-In . SVG Version: 6.00 Build 0)  -->
<svg version="1.1" id="Layer_1" xmlns="http://www.w3.org/2000/svg" xmlns:xlink="http://www.w3.org/1999/xlink" x="0px" y="0px"
	 viewBox="0 0 221.6 146.5" style="enable-background:new 0 0 221.6 146.5;" xml:space="preserve">
<style type="text/css">
	.st0{fill:#A7A9AC;}
	.st1{fill:#FFFFFF;}
	.st2{fill:#5BC9F4;}
	.st3{fill:url(#SVGID_1_);}
	.st4{fill:url(#SVGID_2_);}
	.st5{fill:url(#SVGID_3_);}
</style>
<g>
	<g id="Google_Play">
	</g>
	<g id="App_Store">
		<g>
			<g>
				<path d="M211.4,69.3H10.2c-4.1,0-7.4-3.3-7.4-7.4V14.2c0-4.1,3.3-7.4,7.4-7.4h201.2c4.1,0,7.4,3.3,7.4,7.4v47.7
					C218.8,66,215.5,69.3,211.4,69.3z"/>
				<path class="st0" d="M211.4,70.1H10.2c-4.5,0-8.2-3.7-8.2-8.2V14.2C2,9.7,5.7,6,10.2,6h201.2c4.5,0,8.2,3.7,8.2,8.2v47.7
					C219.6,66.4,215.9,70.1,211.4,70.1z M10.2,7.6c-3.6,0-6.6,2.9-6.6,6.6v47.7c0,3.6,2.9,6.6,6.6,6.6h201.2c3.6,0,6.6-2.9,6.6-6.6
					V14.2c0-3.6-2.9-6.6-6.6-6.6H10.2z"/>
			</g>
			<g>
				<path class="st1" d="M111.8,41c-3.8,0-6.9,2.9-6.9,6.8s3.1,6.8,6.9,6.8s6.9-2.9,6.9-6.8C118.6,43.9,115.5,41,111.8,41z
					 M111.8,52c-2.1,0-3.9-1.7-3.9-4.1c0-2.5,1.8-4.1,3.9-4.1s3.9,1.7,3.9,4.1C115.6,50.3,113.8,52,111.8,52z M96.8,41
					c-3.8,0-6.9,2.9-6.9,6.8s3.1,6.8,6.9,6.8s6.9-2.9,6.9-6.8C103.6,43.9,100.6,41,96.8,41z M96.8,52c-2.1,0-3.9-1.7-3.9-4.1
					c0-2.5,1.8-4.1,3.9-4.1s3.9,1.7,3.9,4.1C100.6,50.3,98.8,52,96.8,52z M79,43.1V46h6.9c-0.2,1.6-0.8,2.8-1.6,3.7
					c-1,1-2.6,2.1-5.4,2.1c-4.3,0-7.6-3.4-7.6-7.7s3.3-7.7,7.6-7.7c2.3,0,4,0.9,5.2,2.1l2-2c-1.7-1.7-4-2.9-7.3-2.9
					c-5.9,0-10.8,4.8-10.8,10.6c0,5.9,4.9,10.6,10.8,10.6c3.2,0,5.5-1,7.4-3c1.9-1.9,2.5-4.6,2.5-6.8c0-0.7-0.1-1.3-0.2-1.8L79,43.1
					L79,43.1z M151.8,45.4c-0.6-1.5-2.3-4.4-5.9-4.4c-3.5,0-6.5,2.8-6.5,6.8c0,3.8,2.9,6.8,6.8,6.8c3.1,0,4.9-1.9,5.7-3l-2.3-1.6
					c-0.8,1.1-1.8,1.9-3.4,1.9c-1.5,0-2.6-0.7-3.3-2.1L152,46L151.8,45.4z M142.5,47.7c-0.1-2.6,2-4,3.6-4c1.2,0,2.2,0.6,2.5,1.5
					L142.5,47.7z M135.1,54.3h3V34.2h-3V54.3z M130.1,42.6H130c-0.7-0.8-2-1.5-3.6-1.5c-3.4,0-6.6,3-6.6,6.9c0,3.8,3.1,6.8,6.6,6.8
					c1.6,0,2.9-0.7,3.6-1.6h0.1v1c0,2.6-1.4,4-3.7,4c-1.8,0-3-1.3-3.4-2.4l-2.6,1.1c0.8,1.8,2.7,4,6.1,4c3.5,0,6.5-2.1,6.5-7.1V41.5
					h-2.9V42.6z M126.7,52c-2.1,0-3.8-1.7-3.8-4.1c0-2.4,1.7-4.2,3.8-4.2c2,0,3.7,1.8,3.7,4.2C130.3,50.3,128.7,52,126.7,52z
					 M165.9,34.2h-7.2v20.1h3v-7.6h4.2c3.3,0,6.6-2.4,6.6-6.2S169.2,34.2,165.9,34.2z M166,43.9h-4.3V37h4.3c2.2,0,3.5,1.9,3.5,3.4
					C169.5,42,168.2,43.9,166,43.9z M184.5,41c-2.2,0-4.4,1-5.4,3.1l2.7,1.1c0.6-1.1,1.6-1.5,2.7-1.5c1.6,0,3.1,0.9,3.2,2.6v0.2
					c-0.5-0.3-1.7-0.8-3.1-0.8c-2.9,0-5.8,1.6-5.8,4.5c0,2.7,2.4,4.4,5,4.4c2,0,3.1-0.9,3.8-2h0.1v1.6h2.9v-7.7
					C190.6,43,188,41,184.5,41z M184.2,52c-1,0-2.4-0.5-2.4-1.7c0-1.6,1.7-2.1,3.2-2.1c1.3,0,1.9,0.3,2.7,0.7
					C187.5,50.7,185.9,52,184.2,52z M201.2,41.4l-3.4,8.7h-0.1l-3.6-8.7h-3.2l5.4,12.2l-3.1,6.8h3.1l8.3-19H201.2z M174.2,54.3h3
					V34.2h-3V54.3z"/>
				<g>
					<path class="st2" d="M19,18.2c-0.5,0.5-0.7,1.3-0.7,2.3V56c0,1,0.3,1.8,0.7,2.3l0.1,0.1L39,38.5v-0.2v-0.2l-19.9-20L19,18.2z"
						/>
					
						<linearGradient id="SVGID_1_" gradientUnits="userSpaceOnUse" x1="52.17" y1="31.523" x2="13.2844" y2="31.523" gradientTransform="matrix(1 0 0 -1 0 69.8898)">
						<stop  offset="0" style="stop-color:#FEE000"/>
						<stop  offset="0.1941" style="stop-color:#FCCF0B"/>
						<stop  offset="0.5469" style="stop-color:#FAB318"/>
						<stop  offset="0.8279" style="stop-color:#F9A21B"/>
						<stop  offset="1" style="stop-color:#F99B1C"/>
					</linearGradient>
					<path class="st3" d="M45.6,45.1L39,38.5v-0.2v-0.2l6.6-6.6l0.1,0.1l7.9,4.5c2.2,1.3,2.2,3.4,0,4.6L45.6,45.1L45.6,45.1z"/>
					
						<linearGradient id="SVGID_2_" gradientUnits="userSpaceOnUse" x1="42.0802" y1="27.9532" x2="5.5066" y2="-8.6204" gradientTransform="matrix(1 0 0 -1 0 69.8898)">
						<stop  offset="0" style="stop-color:#EF4547"/>
						<stop  offset="1" style="stop-color:#C6186D"/>
					</linearGradient>
					<path class="st4" d="M45.8,45L39,38.2l-20,20c0.7,0.8,2,0.9,3.3,0.1L45.8,45"/>
					
						<linearGradient id="SVGID_3_" gradientUnits="userSpaceOnUse" x1="5.3735" y1="72.0995" x2="35.2349" y2="42.2381" gradientTransform="matrix(1 0 0 -1 0 69.8898)">
						<stop  offset="0" style="stop-color:#279E6F"/>
						<stop  offset="0.3168" style="stop-color:#4DAB6D"/>
						<stop  offset="0.7398" style="stop-color:#6ABA6A"/>
						<stop  offset="1" style="stop-color:#74C169"/>
					</linearGradient>
					<path class="st5" d="M45.8,31.4L22.3,18.1c-1.4-0.8-2.6-0.7-3.3,0.1l20,20L45.8,31.4z"/>
				</g>
			</g>
			<g>
				<path class="st1" d="M75.9,19.3c-0.6-0.5-1.4-0.9-2.3-0.9c-2,0-3.5,1.6-3.5,3.6s1.5,3.6,3.5,3.6c1.7,0,2.9-1,3-2.6H74v-1.1h4.1
					c0,3.3-1.8,4.9-4.5,4.9s-4.8-2.2-4.8-4.8c0-2.7,2.1-4.9,4.8-4.9c1.2,0,2.4,0.5,3.2,1.2L75.9,19.3z"/>
				<path class="st1" d="M85.5,17.3v1.2h-4.3v3H85v1.2h-3.8v2.9h4.5v1.2H80v-9.5C80,17.3,85.5,17.3,85.5,17.3z"/>
				<path class="st1" d="M93.7,17.3v1.2h-2.9v8.3h-1.3v-8.3h-2.9v-1.2C86.6,17.3,93.7,17.3,93.7,17.3z"/>
				<path class="st1" d="M99.9,17.3v9.5h-1.3v-9.5C98.6,17.3,99.9,17.3,99.9,17.3z"/>
				<path class="st1" d="M108.6,17.3v1.2h-2.9v8.3h-1.3v-8.3h-2.9v-1.2C101.5,17.3,108.6,17.3,108.6,17.3z"/>
				<path class="st1" d="M117.6,17.2c2.7,0,4.8,2.2,4.8,4.9s-2.1,4.8-4.8,4.8c-2.7,0-4.8-2.2-4.8-4.8
					C112.8,19.4,114.9,17.2,117.6,17.2z M117.6,25.7c2,0,3.5-1.6,3.5-3.6s-1.5-3.6-3.5-3.6s-3.5,1.6-3.5,3.6S115.6,25.7,117.6,25.7z
					"/>
				<path class="st1" d="M129.9,26.8l-4.3-7.1v7.1h-1.3v-9.5h1.3l4.3,7.1v-7.1h1.3v9.5H129.9z"/>
			</g>
		</g>
	</g>
	<g id="App_Store_1_">
		<g>
			<g>
				<path d="M211.4,139.7H10.2c-4.1,0-7.4-3.3-7.4-7.4V84.6c0-4.1,3.3-7.4,7.4-7.4h201.2c4.1,0,7.4,3.3,7.4,7.4v47.7
					C218.8,136.4,215.5,139.7,211.4,139.7z"/>
				<path class="st0" d="M211.4,140.5H10.2c-4.5,0-8.2-3.7-8.2-8.2V84.6c0-4.5,3.7-8.2,8.2-8.2h201.2c4.5,0,8.2,3.7,8.2,8.2v47.7
					C219.6,136.8,215.9,140.5,211.4,140.5z M10.2,78c-3.6,0-6.6,2.9-6.6,6.6v47.7c0,3.6,2.9,6.6,6.6,6.6h201.2
					c3.6,0,6.6-2.9,6.6-6.6V84.6c0-3.6-2.9-6.6-6.6-6.6H10.2z"/>
			</g>
			<g>
				<path class="st1" d="M74.4,94.6l-0.9,3h-2l3.4-10.5h2.5l3.4,10.5h-2.1l-1-3H74.4z M77.4,93.2l-0.8-2.6c-0.2-0.6-0.4-1.4-0.5-2
					l0,0c-0.2,0.6-0.3,1.3-0.5,2l-0.8,2.6H77.4z"/>
				<path class="st1" d="M83.7,90l1.2,3.9c0.2,0.7,0.4,1.3,0.5,1.9l0,0c0.1-0.6,0.3-1.2,0.5-1.9l1.2-3.9h2l-2.9,7.6h-1.9L81.5,90
					H83.7z"/>
				<path class="st1" d="M96.9,95.8c0,0.7,0,1.4,0.1,1.8h-1.7l-0.1-0.8l0,0c-0.5,0.6-1.2,1-2.2,1c-1.5,0-2.4-1.1-2.4-2.3
					c0-1.9,1.7-2.9,4.5-2.9v-0.1c0-0.5-0.2-1.3-1.5-1.3c-0.7,0-1.5,0.2-2,0.6L91,90.5c0.6-0.3,1.5-0.7,2.7-0.7
					c2.4,0,3.1,1.5,3.1,3.2v2.8H96.9z M95,93.9c-1.4,0-2.7,0.3-2.7,1.4c0,0.7,0.5,1.1,1.1,1.1c0.8,0,1.3-0.5,1.5-1
					c0-0.1,0-0.3,0-0.4L95,93.9L95,93.9z"/>
				<path class="st1" d="M100.5,88.9c-0.6,0-1.1-0.5-1.1-1c0-0.6,0.4-1,1.1-1s1.1,0.5,1.1,1C101.6,88.5,101.2,88.9,100.5,88.9
					L100.5,88.9z M99.6,97.6V90h1.9v7.6H99.6z"/>
				<path class="st1" d="M104.3,86.5h1.9v11.1h-1.9V86.5z"/>
				<path class="st1" d="M114.8,95.8c0,0.7,0,1.4,0.1,1.8h-1.7l-0.1-0.8l0,0c-0.5,0.6-1.2,1-2.2,1c-1.5,0-2.4-1.1-2.4-2.3
					c0-1.9,1.7-2.9,4.5-2.9v-0.1c0-0.5-0.2-1.3-1.5-1.3c-0.7,0-1.5,0.2-2,0.6l-0.4-1.2c0.6-0.3,1.5-0.7,2.7-0.7
					c2.4,0,3.1,1.5,3.1,3.2L114.8,95.8L114.8,95.8z M113,93.9c-1.4,0-2.7,0.3-2.7,1.4c0,0.7,0.5,1.1,1.1,1.1c0.8,0,1.3-0.5,1.5-1
					c0-0.1,0-0.3,0-0.4L113,93.9L113,93.9z"/>
				<path class="st1" d="M117.6,86.5h1.9V91l0,0c0.5-0.7,1.3-1.2,2.4-1.2c1.9,0,3.2,1.5,3.2,3.9c0,2.7-1.7,4.1-3.4,4.1
					c-1,0-1.9-0.4-2.4-1.3l0,0l-0.1,1.1h-1.6c0-0.5,0.1-1.4,0.1-2.1L117.6,86.5L117.6,86.5z M119.5,94.5c0,0.2,0,0.3,0,0.5
					c0.2,0.8,0.9,1.3,1.7,1.3c1.2,0,1.9-1,1.9-2.5c0-1.3-0.6-2.4-1.9-2.4c-0.8,0-1.5,0.6-1.7,1.4c0,0.1-0.1,0.3-0.1,0.5L119.5,94.5
					L119.5,94.5z"/>
				<path class="st1" d="M127.4,86.5h1.9v11.1h-1.9V86.5z"/>
				<path class="st1" d="M133.4,94.4c0,1.4,1.1,2,2.3,2c0.9,0,1.5-0.1,2.1-0.3l0.3,1.3c-0.7,0.3-1.6,0.5-2.7,0.5
					c-2.5,0-3.9-1.5-3.9-3.8c0-2.1,1.3-4.1,3.7-4.1c2.5,0,3.3,2,3.3,3.7c0,0.4,0,0.6-0.1,0.8L133.4,94.4L133.4,94.4z M136.8,93
					c0-0.7-0.3-1.9-1.6-1.9c-1.2,0-1.7,1.1-1.8,1.9H136.8z"/>
				<path class="st1" d="M148.1,97.8c-2.1,0-3.8-1.5-3.8-3.9c0-2.5,1.6-4,3.9-4s3.8,1.6,3.8,3.9C152,96.5,150,97.8,148.1,97.8
					L148.1,97.8z M148.1,96.4c1.1,0,1.9-1.1,1.9-2.6c0-1.2-0.5-2.6-1.8-2.6c-1.4,0-1.9,1.3-1.9,2.6C146.2,95.3,147,96.4,148.1,96.4
					L148.1,96.4z"/>
				<path class="st1" d="M154.2,92.3c0-0.9,0-1.6-0.1-2.3h1.7l0.1,1.1l0,0c0.3-0.6,1.2-1.3,2.4-1.3c1.3,0,2.7,0.9,2.7,3.3v4.5h-1.9
					v-4.3c0-1.1-0.4-1.9-1.5-1.9c-0.8,0-1.3,0.5-1.5,1.1c-0.1,0.2-0.1,0.4-0.1,0.6v4.5h-1.9v-5.3H154.2z"/>
				<path class="st1" d="M170,88.1v2h1.8v1.4H170v3.3c0,0.9,0.2,1.4,1,1.4c0.3,0,0.5,0,0.7-0.1v1.5c-0.3,0.1-0.8,0.2-1.4,0.2
					c-0.7,0-1.3-0.2-1.7-0.6c-0.4-0.4-0.6-1.1-0.6-2.1v-3.6h-1v-1.4h1.1v-1.4L170,88.1z"/>
				<path class="st1" d="M173.9,86.5h1.9V91l0,0c0.2-0.4,0.6-0.7,1-0.9c0.4-0.2,0.8-0.3,1.3-0.3c1.3,0,2.7,0.9,2.7,3.3v4.5h-1.9
					v-4.3c0-1.1-0.4-1.9-1.5-1.9c-0.7,0-1.3,0.5-1.5,1.1c-0.1,0.2-0.1,0.4-0.1,0.6v4.6h-1.9V86.5z"/>
				<path class="st1" d="M184.9,94.4c0,1.4,1.1,2,2.3,2c0.9,0,1.5-0.1,2.1-0.3l0.3,1.3c-0.7,0.3-1.6,0.5-2.7,0.5
					c-2.5,0-3.9-1.5-3.9-3.8c0-2.1,1.3-4.1,3.7-4.1c2.5,0,3.3,2,3.3,3.7c0,0.4,0,0.6-0.1,0.8L184.9,94.4L184.9,94.4z M188.2,93
					c0-0.7-0.3-1.9-1.6-1.9c-1.2,0-1.7,1.1-1.8,1.9H188.2z"/>
			</g>
			<g>
				<g>
					<path class="st1" d="M50.5,107.8c0-5.2,4.3-7.7,4.5-7.9c-2.4-3.6-6.2-4-7.6-4.1c-3.2-0.3-6.3,1.9-7.9,1.9
						c-1.7,0-4.1-1.9-6.8-1.8c-3.5,0.1-6.7,2.1-8.5,5.2c-3.7,6.3-0.9,15.7,2.6,20.8c1.8,2.5,3.8,5.3,6.5,5.2
						c2.6-0.1,3.6-1.7,6.8-1.7c3.1,0,4.1,1.7,6.8,1.6c2.8,0,4.6-2.5,6.3-5.1c2-2.9,2.8-5.7,2.9-5.9C56,116.1,50.6,114.1,50.5,107.8"
						/>
					<path class="st1" d="M45.4,92.5c1.4-1.8,2.4-4.2,2.1-6.6c-2,0.1-4.6,1.4-6.1,3.1c-1.3,1.5-2.5,4-2.2,6.4
						C41.5,95.6,43.9,94.2,45.4,92.5"/>
				</g>
				<g>
					<path class="st1" d="M88.5,126.7h-3.7l-2-6.3h-7l-1.8,6.3h-3.6l6.9-21.4h4.3L88.5,126.7z M82.2,117.8l-1.8-5.6
						c-0.2-0.6-0.6-1.9-1.1-4h-0.1c-0.2,0.9-0.6,2.3-1,4l-1.8,5.6H82.2z"/>
					<path class="st1" d="M106.2,118.8c0,2.6-0.7,4.7-2.1,6.2c-1.3,1.4-2.9,2-4.7,2c-2,0-3.5-0.7-4.4-2.2h-0.1v8.1h-3.4v-16.6
						c0-1.7,0-3.3-0.1-5.1h3l0.2,2.4h0.1c1.1-1.8,2.9-2.8,5.2-2.8c1.8,0,3.3,0.7,4.6,2.2C105.6,114.5,106.2,116.4,106.2,118.8
						 M102.7,118.9c0-1.5-0.3-2.7-1-3.7s-1.7-1.5-3-1.5c-0.8,0-1.6,0.3-2.3,0.8c-0.7,0.6-1.1,1.3-1.4,2.2c-0.1,0.4-0.2,0.8-0.2,1
						v2.6c0,1.1,0.3,2.1,1,2.8c0.7,0.8,1.6,1.2,2.7,1.2c1.3,0,2.3-0.5,3-1.5C102.4,121.9,102.7,120.5,102.7,118.9"/>
					<path class="st1" d="M124,118.8c0,2.6-0.7,4.7-2.1,6.2c-1.3,1.4-2.8,2-4.7,2c-2,0-3.5-0.7-4.4-2.2h-0.1v8.1h-3.4v-16.6
						c0-1.7,0-3.3-0.1-5.1h3l0.2,2.4h0.1c1.1-1.8,2.9-2.8,5.2-2.8c1.8,0,3.3,0.7,4.6,2.2C123.4,114.5,124,116.4,124,118.8
						 M120.5,118.9c0-1.5-0.3-2.7-1-3.7s-1.7-1.5-3-1.5c-0.8,0-1.6,0.3-2.3,0.8c-0.7,0.6-1.1,1.3-1.3,2.2c-0.1,0.4-0.2,0.8-0.2,1
						v2.6c0,1.1,0.3,2.1,1,2.8c0.7,0.8,1.6,1.2,2.7,1.2c1.3,0,2.3-0.5,3-1.5C120.2,121.9,120.5,120.5,120.5,118.9"/>
					<path class="st1" d="M143.9,120.7c0,1.8-0.6,3.3-1.9,4.5c-1.4,1.3-3.3,1.9-5.8,1.9c-2.3,0-4.2-0.4-5.6-1.3l0.8-2.9
						c1.5,0.9,3.2,1.4,5,1.4c1.3,0,2.3-0.3,3-0.9c0.7-0.6,1.1-1.4,1.1-2.3s-0.3-1.6-0.9-2.2s-1.6-1.1-3-1.7
						c-3.8-1.4-5.6-3.5-5.6-6.1c0-1.8,0.7-3.2,2-4.3c1.3-1.1,3.1-1.7,5.2-1.7c2,0,3.6,0.3,4.9,1l-0.9,2.8c-1.2-0.7-2.6-1-4.1-1
						c-1.2,0-2.2,0.3-2.8,0.9c-0.6,0.5-0.9,1.2-0.9,1.9c0,0.8,0.3,1.5,1,2.1c0.6,0.5,1.6,1.1,3.1,1.7c1.8,0.7,3.2,1.6,4.1,2.6
						C143.5,118,143.9,119.2,143.9,120.7"/>
					<path class="st1" d="M155.3,113.8h-3.8v7.5c0,1.9,0.7,2.9,2,2.9c0.6,0,1.1-0.1,1.5-0.2l0.1,2.6c-0.7,0.3-1.6,0.4-2.7,0.4
						c-1.4,0-2.4-0.4-3.2-1.2c-0.8-0.8-1.1-2.2-1.1-4.2v-7.8h-2.3v-2.6h2.3v-2.8l3.4-1v3.8h3.8V113.8z"/>
					<path class="st1" d="M172.3,118.8c0,2.4-0.7,4.3-2,5.9c-1.4,1.6-3.3,2.4-5.7,2.4c-2.3,0-4.1-0.8-5.4-2.3s-2-3.4-2-5.7
						c0-2.4,0.7-4.4,2.1-5.9s3.3-2.3,5.6-2.3c2.3,0,4.1,0.8,5.5,2.3C171.7,114.6,172.3,116.5,172.3,118.8 M168.8,119
						c0-1.4-0.3-2.6-0.9-3.7c-0.7-1.2-1.7-1.9-3.1-1.9s-2.4,0.6-3.1,1.9c-0.6,1-0.9,2.3-0.9,3.7s0.3,2.6,0.9,3.7
						c0.7,1.2,1.8,1.8,3.1,1.8c1.3,0,2.3-0.6,3.1-1.9C168.4,121.6,168.8,120.4,168.8,119"/>
					<path class="st1" d="M183.5,114.3c-0.3-0.1-0.7-0.1-1.1-0.1c-1.2,0-2.1,0.5-2.8,1.4c-0.6,0.8-0.9,1.8-0.9,3.1v8.1h-3.4v-10.6
						c0-1.8,0-3.4-0.1-4.9h3l0.1,3h0.1c0.4-1,0.9-1.8,1.7-2.4c0.8-0.6,1.6-0.8,2.5-0.8c0.3,0,0.6,0,0.9,0.1V114.3z"/>
					<path class="st1" d="M198.9,118.2c0,0.6,0,1.1-0.1,1.6h-10.3c0,1.5,0.5,2.7,1.5,3.5c0.9,0.7,2,1.1,3.4,1.1
						c1.5,0,2.9-0.2,4.2-0.7l0.5,2.4c-1.5,0.6-3.2,1-5.2,1c-2.4,0-4.3-0.7-5.6-2.1c-1.4-1.4-2.1-3.3-2.1-5.7c0-2.3,0.6-4.3,1.9-5.8
						c1.3-1.7,3.1-2.5,5.4-2.5c2.2,0,3.9,0.8,5.1,2.5C198.4,114.7,198.9,116.3,198.9,118.2 M195.6,117.3c0-1-0.2-1.9-0.7-2.6
						c-0.6-1-1.5-1.4-2.7-1.4c-1.1,0-2,0.5-2.7,1.4c-0.6,0.7-0.9,1.6-1,2.7L195.6,117.3L195.6,117.3z"/>
				</g>
			</g>
		</g>
	</g>
</g>
</svg>
