<?xml version="1.0" encoding="utf-8"?>
<!-- Generator: Adobe Illustrator 24.3.0, SVG Export Plug-In . SVG Version: 6.00 Build 0)  -->
<svg version="1.1" id="Layer_1" xmlns="http://www.w3.org/2000/svg" xmlns:xlink="http://www.w3.org/1999/xlink" x="0px" y="0px"
	 viewBox="0 0 24 24" style="enable-background:new 0 0 24 24;" xml:space="preserve">
<style type="text/css">
	.st0{fill:#FFFFFF;}
</style>
<path class="st0" d="M10.5,16.1l-3.8-3.8l1.1-1.1l2.7,2.7l5.7-5.7l1.1,1.1L10.5,16.1z"/>
<path class="st0" d="M12,1.5c-2.1,0-4.1,0.6-5.8,1.8C4.4,4.4,3.1,6.1,2.3,8s-1,4-0.6,6.1c0.4,2,1.4,3.9,2.9,5.4S7.9,22,10,22.4
	c2,0.4,4.1,0.2,6.1-0.6c1.9-0.8,3.6-2.1,4.7-3.9c1.2-1.7,1.8-3.8,1.8-5.8c0-2.8-1.1-5.5-3.1-7.4C17.5,2.6,14.8,1.5,12,1.5z M12,21
	c-1.8,0-3.5-0.5-5-1.5s-2.6-2.4-3.3-4C3,13.8,2.8,12,3.2,10.2c0.3-1.7,1.2-3.3,2.5-4.6s2.9-2.1,4.6-2.5C12,2.8,13.8,3,15.4,3.7
	s3.1,1.8,4,3.3c1,1.5,1.5,3.2,1.5,5c0,2.4-0.9,4.7-2.6,6.4C16.7,20.1,14.4,21,12,21z"/>
</svg>
