<?xml version="1.0" encoding="utf-8"?>
<!-- Generator: Adobe Illustrator 24.3.0, SVG Export Plug-In . SVG Version: 6.00 Build 0)  -->
<svg version="1.1" id="Layer_1" xmlns="http://www.w3.org/2000/svg" xmlns:xlink="http://www.w3.org/1999/xlink" x="0px" y="0px"
	 viewBox="0 0 24 24" style="enable-background:new 0 0 24 24;" xml:space="preserve">
<style type="text/css">
	.st0{fill:#2A254B;}
</style>
<path class="st0" d="M12,12H3v1.5h9V12z"/>
<path class="st0" d="M9,8.2H1.5v1.5H9V8.2z"/>
<path class="st0" d="M22.4,12.5l-2.2-5.2C20.1,7.1,20,7,19.9,6.9c-0.1-0.1-0.3-0.1-0.4-0.1h-2.2V5.2c0-0.2-0.1-0.4-0.2-0.5
	c-0.1-0.1-0.3-0.2-0.5-0.2h-12V6h11.2v9.4c-0.3,0.2-0.6,0.5-0.9,0.8c-0.2,0.3-0.4,0.7-0.5,1.1H9.6c-0.2-0.7-0.6-1.3-1.2-1.7
	c-0.6-0.4-1.3-0.6-2.1-0.5c-0.7,0.1-1.4,0.4-1.9,1c-0.5,0.5-0.7,1.3-0.7,2s0.3,1.4,0.7,2c0.5,0.5,1.1,0.9,1.9,1
	c0.7,0.1,1.5-0.1,2.1-0.5c0.6-0.4,1-1,1.2-1.7h4.7c0.2,0.6,0.5,1.2,1.1,1.6c0.5,0.4,1.2,0.6,1.8,0.6s1.3-0.2,1.8-0.6
	c0.5-0.4,0.9-1,1.1-1.6h1.6c0.2,0,0.4-0.1,0.5-0.2c0.1-0.1,0.2-0.3,0.2-0.5v-5.2C22.5,12.6,22.5,12.5,22.4,12.5z M6.8,19.5
	c-0.3,0-0.6-0.1-0.8-0.3c-0.2-0.2-0.4-0.4-0.6-0.7c-0.1-0.3-0.1-0.6-0.1-0.9c0.1-0.3,0.2-0.6,0.4-0.8c0.2-0.2,0.5-0.4,0.8-0.4
	c0.3-0.1,0.6,0,0.9,0.1c0.3,0.1,0.5,0.3,0.7,0.6c0.2,0.2,0.3,0.5,0.3,0.8c0,0.4-0.2,0.8-0.4,1.1C7.5,19.3,7.1,19.5,6.8,19.5z
	 M17.2,8.2H19l1.6,3.8h-3.4V8.2z M17.2,19.5c-0.3,0-0.6-0.1-0.8-0.3c-0.2-0.2-0.4-0.4-0.6-0.7c-0.1-0.3-0.1-0.6-0.1-0.9
	c0.1-0.3,0.2-0.6,0.4-0.8c0.2-0.2,0.5-0.4,0.8-0.4c0.3-0.1,0.6,0,0.9,0.1c0.3,0.1,0.5,0.3,0.7,0.6c0.2,0.2,0.3,0.5,0.3,0.8
	c0,0.4-0.2,0.8-0.4,1.1C18,19.3,17.6,19.5,17.2,19.5z M21,17.2h-0.9c-0.2-0.6-0.5-1.2-1.1-1.6c-0.5-0.4-1.2-0.6-1.8-0.6v-1.5H21
	V17.2z"/>
</svg>
