<?xml version="1.0" encoding="utf-8"?>
<!-- Generator: Adobe Illustrator 24.3.0, SVG Export Plug-In . SVG Version: 6.00 Build 0)  -->
<svg version="1.1" id="Layer_1" xmlns="http://www.w3.org/2000/svg" xmlns:xlink="http://www.w3.org/1999/xlink" x="0px" y="0px"
	 viewBox="0 0 500 500" style="enable-background:new 0 0 500 500;" xml:space="preserve">
<style type="text/css">
	.st0{fill:#E5E5E5;}
	.st1{display:none;}
	.st2{display:inline;fill:#F5F5F5;}
	.st3{fill:#263238;}
	.st4{fill:#FFFFFF;}
	.st5{fill:#2A254B;}
	.st6{fill:#EF4444;}
	.st7{fill:#CCCCCC;}
	.st8{fill:#1A2E35;}
	.st9{fill:#FF735D;}
	.st10{opacity:0.3;}
	.st11{opacity:0.3;fill:#FFFFFF;enable-background:new    ;}
	.st12{fill:none;}
</style>
<g id="Background_Complete">
	<g>
		<g>
			<g>
				<g>
					<g>
						<g>
							<g>
								<g>
									<g>
										<g>
											<g>
												<path class="st0" d="M315.6,238.5c-45.1-0.4-85.9-0.8-115.5-1.1c-14.8-0.1-26.7-0.1-35-0.2c-4.1,0-7.3,0-9.5,0
													c-1.1,0-1.9,0-2.5,0s-0.8,0-0.8,0s0.3,0,0.8,0.1c0.6,0,1.4,0,2.5,0.1c2.2,0,5.4,0.1,9.5,0.1c8.3,0,20.2,0.1,35,0.2
													c29.6,0,70.4,0,115.5,0.1c45.1,0,85.9,0.1,115.5,0.3c14.8,0.1,26.7,0.2,35,0.4c4.1,0.1,7.3,0.2,9.5,0.2
													c2.2,0.1,3.3,0.2,3.3,0.2c0,0.1-1.1,0.2-3.3,0.2c-2.2,0.1-5.4,0.1-9.5,0.1c-8.3,0.1-20.2,0.1-35,0
													C401.5,239.3,360.7,238.9,315.6,238.5z"/>
											</g>
										</g>
									</g>
								</g>
							</g>
						</g>
					</g>
				</g>
			</g>
		</g>
		<g>
			<g>
				<g>
					<g>
						<g>
							<g>
								<g>
									<g>
										<g>
											<g>
												<path class="st0" d="M314.7,248.4c-44.5-7.2-84.7-13.8-113.9-18.5c-14.6-2.3-26.4-4.2-34.6-5.4
													c-4.1-0.6-7.2-1.1-9.4-1.4c-1.1-0.1-1.9-0.3-2.5-0.3c-0.6-0.1-0.8-0.1-0.8-0.1s0.3,0.1,0.8,0.2c0.6,0.1,1.4,0.2,2.4,0.4
													c2.2,0.4,5.3,0.9,9.4,1.6c8.2,1.3,20,3.2,34.5,5.5c29.2,4.5,69.5,10.7,114.1,17.5c44.5,6.8,84.9,13,114,17.7
													c14.6,2.3,26.4,4.3,34.5,5.7c4.1,0.7,7.2,1.3,9.4,1.7c2.1,0.4,3.3,0.7,3.2,0.7c0,0.1-1.2,0-3.3-0.3
													c-2.2-0.3-5.3-0.7-9.4-1.3c-8.2-1.2-20-3-34.6-5.2C399.5,262.1,359.2,255.6,314.7,248.4z"/>
											</g>
										</g>
									</g>
								</g>
							</g>
						</g>
					</g>
				</g>
			</g>
		</g>
		<g>
			<g>
				<g>
					<g>
						<g>
							<g>
								<g>
									<g>
										<g>
											<g>
												<path class="st0" d="M312.3,258c-42.8-14-81.5-26.6-109.5-35.7c-14-4.5-25.4-8.1-33.2-10.7c-3.9-1.2-7-2.2-9.1-2.8
													c-1-0.3-1.8-0.5-2.4-0.7c-0.5-0.2-0.8-0.2-0.8-0.2s0.3,0.1,0.8,0.3c0.6,0.2,1.3,0.5,2.3,0.8c2.1,0.7,5.1,1.7,9,3
													c7.9,2.5,19.2,6.2,33.2,10.7c28.1,8.9,67,21.2,109.8,34.7c42.9,13.5,81.7,25.8,109.7,34.9c14,4.5,25.4,8.3,33.2,10.9
													c3.9,1.3,6.9,2.4,9,3.1c2,0.7,3.1,1.2,3.1,1.2c0,0.1-1.1-0.2-3.2-0.8c-2.1-0.6-5.2-1.5-9.1-2.7
													c-7.9-2.4-19.3-6-33.3-10.5C393.7,284.6,355,272,312.3,258z"/>
											</g>
										</g>
									</g>
								</g>
							</g>
						</g>
					</g>
				</g>
			</g>
		</g>
		<g>
			<g>
				<g>
					<g>
						<g>
							<g>
								<g>
									<g>
										<g>
											<g>
												<path class="st0" d="M308.2,267.1c-40-20.3-76.1-38.7-102.4-52c-13.1-6.6-23.7-11.9-31.1-15.6c-3.7-1.8-6.5-3.2-8.5-4.2
													c-1-0.5-1.7-0.8-2.2-1.1c-0.5-0.2-0.8-0.3-0.8-0.3s0.2,0.2,0.7,0.4c0.5,0.3,1.2,0.7,2.2,1.1c2,1,4.8,2.5,8.4,4.3
													c7.4,3.7,18,9,31.1,15.6c26.3,13.1,62.7,31.2,102.8,51.1c40.2,19.9,76.5,38,102.7,51.3c13.1,6.6,23.7,12,31,15.8
													c3.6,1.9,6.5,3.4,8.4,4.4s2.9,1.6,2.8,1.7c0,0.1-1.1-0.4-3.1-1.3s-4.8-2.3-8.5-4.1c-7.4-3.6-18.1-8.9-31.2-15.4
													C384.4,305.8,348.2,287.4,308.2,267.1z"/>
											</g>
										</g>
									</g>
								</g>
							</g>
						</g>
					</g>
				</g>
			</g>
		</g>
		<g>
			<g>
				<g>
					<g>
						<g>
							<g>
								<g>
									<g>
										<g>
											<g>
												<path class="st0" d="M302.8,275.5c-36.2-26.1-69-49.8-92.7-66.9c-11.9-8.5-21.5-15.4-28.2-20.2
													c-3.3-2.3-5.9-4.2-7.7-5.4c-0.9-0.6-1.5-1.1-2-1.4c-0.5-0.3-0.7-0.5-0.7-0.4c0,0,0.2,0.2,0.6,0.5c0.5,0.3,1.1,0.8,2,1.5
													c1.8,1.3,4.3,3.1,7.6,5.5c6.7,4.8,16.3,11.7,28.2,20.2c23.9,16.9,56.9,40.3,93.4,66.1s69.4,49.2,93.2,66.2
													c11.9,8.5,21.5,15.5,28.1,20.3c3.3,2.4,5.8,4.3,7.5,5.6c1.7,1.3,2.6,2,2.5,2.1c0,0.1-1-0.5-2.8-1.7s-4.4-3-7.8-5.3
													c-6.7-4.7-16.4-11.5-28.3-20C371.8,325.3,339,301.7,302.8,275.5z"/>
											</g>
										</g>
									</g>
								</g>
							</g>
						</g>
					</g>
				</g>
			</g>
		</g>
		<g>
			<g>
				<g>
					<g>
						<g>
							<g>
								<g>
									<g>
										<g>
											<g>
												<path class="st0" d="M296.1,283c-31.6-31.3-60.2-59.6-80.9-80.1c-10.4-10.2-18.8-18.4-24.6-24.2c-2.9-2.8-5.2-5-6.7-6.5
													c-0.8-0.7-1.4-1.3-1.8-1.7c-0.4-0.4-0.6-0.6-0.6-0.5c0,0,0.2,0.2,0.6,0.6c0.4,0.4,1,1,1.7,1.7c1.5,1.5,3.8,3.8,6.6,6.6
													c5.8,5.7,14.2,14,24.6,24.2c20.9,20.3,49.8,48.4,81.6,79.4c31.9,31,60.7,59.1,81.5,79.5c10.4,10.2,18.7,18.5,24.5,24.3
													c2.9,2.9,5.1,5.2,6.6,6.7c1.5,1.6,2.2,2.4,2.2,2.5c-0.1,0.1-0.9-0.7-2.5-2.1c-1.6-1.5-3.9-3.6-6.8-6.4
													c-5.9-5.6-14.4-13.8-24.8-24C356.3,342.6,327.6,314.3,296.1,283z"/>
											</g>
										</g>
									</g>
								</g>
							</g>
						</g>
					</g>
				</g>
			</g>
		</g>
		<g>
			<g>
				<g>
					<g>
						<g>
							<g>
								<g>
									<g>
										<g>
											<g>
												<path class="st0" d="M288.3,289.4c-26.2-35.7-49.9-68-67.1-91.4c-8.6-11.6-15.6-21.1-20.5-27.6
													c-2.4-3.2-4.3-5.7-5.6-7.5c-0.6-0.8-1.1-1.5-1.5-1.9c-0.3-0.4-0.5-0.6-0.5-0.6s0.1,0.2,0.5,0.7c0.3,0.5,0.8,1.1,1.4,2
													c1.3,1.8,3.1,4.3,5.5,7.5c4.8,6.5,11.8,16,20.4,27.6c17.4,23.3,41.4,55.3,67.9,90.8c26.5,35.4,50.5,67.5,67.7,90.9
													c8.6,11.7,15.5,21.1,20.3,27.7c2.4,3.3,4.2,5.9,5.4,7.6c1.2,1.8,1.8,2.7,1.7,2.8c-0.1,0-0.8-0.8-2.1-2.5
													c-1.3-1.7-3.3-4.2-5.7-7.4c-4.9-6.5-12-15.8-20.6-27.5C338.2,357.3,314.4,325,288.3,289.4z"/>
											</g>
										</g>
									</g>
								</g>
							</g>
						</g>
					</g>
				</g>
			</g>
		</g>
		<g>
			<g>
				<g>
					<g>
						<g>
							<g>
								<g>
									<g>
										<g>
											<g>
												<path class="st0" d="M279.5,294.5c-20.1-39.2-38.3-74.7-51.6-100.5c-6.7-12.8-12-23.2-15.8-30.4
													c-1.9-3.6-3.3-6.3-4.4-8.2c-0.5-0.9-0.9-1.6-1.2-2.1s-0.4-0.7-0.4-0.7s0.1,0.3,0.3,0.8c0.3,0.5,0.6,1.2,1.1,2.2
													c1,1.9,2.4,4.7,4.2,8.3c3.7,7.2,9.1,17.6,15.8,30.4c13.4,25.6,32,61,52.5,100s39,74.4,52.3,100.1
													c6.6,12.8,11.9,23.3,15.6,30.5c1.8,3.6,3.2,6.4,4.1,8.3s1.4,2.9,1.3,3c-0.1,0-0.7-0.9-1.7-2.8s-2.6-4.6-4.5-8.2
													c-3.8-7.1-9.3-17.5-16-30.3C317.9,369.2,299.6,333.7,279.5,294.5z"/>
											</g>
										</g>
									</g>
								</g>
							</g>
						</g>
					</g>
				</g>
			</g>
		</g>
		<g>
			<g>
				<g>
					<g>
						<g>
							<g>
								<g>
									<g>
										<g>
											<g>
												<path class="st0" d="M270.1,298.2c-13.5-41.8-25.8-79.7-34.6-107.1c-4.5-13.7-8.1-24.7-10.7-32.4
													c-1.3-3.8-2.3-6.7-3-8.8c-0.3-1-0.6-1.7-0.8-2.3c-0.2-0.5-0.3-0.8-0.3-0.8s0.1,0.3,0.2,0.8c0.2,0.5,0.4,1.3,0.7,2.3
													c0.7,2,1.6,5,2.8,8.8c2.5,7.7,6.2,18.7,10.6,32.4c9.1,27.4,21.7,65.1,35.7,106.8s26.5,79.4,35.5,106.8
													c4.5,13.7,8,24.8,10.4,32.5c1.2,3.8,2.1,6.8,2.7,8.9c0.6,2,0.9,3.1,0.8,3.1s-0.5-1-1.2-3s-1.8-4.9-3.1-8.8
													c-2.6-7.6-6.3-18.7-10.9-32.3C295.8,377.8,283.5,340,270.1,298.2z"/>
											</g>
										</g>
									</g>
								</g>
							</g>
						</g>
					</g>
				</g>
			</g>
		</g>
		<g>
			<g>
				<g>
					<g>
						<g>
							<g>
								<g>
									<g>
										<g>
											<g>
												<path class="st0" d="M260.1,300.4c-6.6-43.4-12.6-82.6-16.9-111.1c-2.2-14.2-4-25.7-5.3-33.6c-0.7-3.9-1.2-7-1.5-9.1
													c-0.2-1-0.3-1.8-0.4-2.4c-0.1-0.5-0.2-0.8-0.2-0.8s0,0.3,0.1,0.8c0.1,0.6,0.2,1.4,0.3,2.4c0.3,2.1,0.8,5.2,1.4,9.2
													c1.2,8,3,19.5,5.3,33.6c4.6,28.4,10.9,67.6,17.9,110.9s13.3,82.5,17.7,110.9c2.2,14.2,3.9,25.7,5,33.7
													c0.6,4,1,7.1,1.2,9.2c0.3,2.1,0.3,3.2,0.3,3.2c-0.1,0-0.3-1.1-0.7-3.2c-0.4-2.1-1-5.2-1.6-9.1
													c-1.4-7.9-3.2-19.4-5.5-33.6C272.6,383,266.6,343.7,260.1,300.4z"/>
											</g>
										</g>
									</g>
								</g>
							</g>
						</g>
					</g>
				</g>
			</g>
		</g>
		<g>
			<g>
				<g>
					<g>
						<g>
							<g>
								<g>
									<g>
										<g>
											<g>
												<path class="st0" d="M249.9,301.1c0.4-43.8,0.8-83.5,1-112.3c0.1-14.3,0.1-26,0.1-34c0-4,0-7.1,0-9.2c0-1,0-1.8,0-2.4
													c0-0.5,0-0.8,0-0.8s0,0.3-0.1,0.8c0,0.6,0,1.4-0.1,2.4c0,2.1-0.1,5.3-0.1,9.2c0,8.1-0.1,19.7-0.2,34
													c0,28.8,0,68.4,0,112.3c0,43.8,0,83.5-0.2,112.2c-0.1,14.4-0.2,26-0.4,34c-0.1,4-0.2,7.1-0.2,9.2
													c-0.1,2.1-0.2,3.2-0.2,3.2c-0.1,0-0.2-1.1-0.2-3.2c-0.1-2.1-0.1-5.2-0.2-9.3c-0.1-8-0.1-19.7-0.1-34
													C249.1,384.5,249.5,344.9,249.9,301.1z"/>
											</g>
										</g>
									</g>
								</g>
							</g>
						</g>
					</g>
				</g>
			</g>
		</g>
		<g>
			<g>
				<g>
					<g>
						<g>
							<g>
								<g>
									<g>
										<g>
											<g>
												<path class="st0" d="M239.7,300.2c7.4-43.2,14.1-82.4,19-110.7c2.4-14.2,4.3-25.6,5.6-33.6c0.6-3.9,1.1-7,1.4-9.1
													c0.1-1,0.3-1.8,0.3-2.4c0.1-0.5,0.1-0.8,0.1-0.8s-0.1,0.3-0.2,0.8c-0.1,0.6-0.3,1.3-0.4,2.4c-0.4,2.1-0.9,5.2-1.6,9.1
													c-1.3,8-3.2,19.4-5.6,33.6c-4.6,28.4-10.9,67.6-17.9,110.9s-13.3,82.5-18.1,110.8c-2.4,14.2-4.4,25.6-5.8,33.5
													c-0.7,4-1.3,7-1.7,9.1s-0.7,3.2-0.8,3.1c-0.1,0,0-1.1,0.3-3.2s0.7-5.2,1.3-9.2c1.2-7.9,3-19.4,5.4-33.6
													C225.6,382.6,232.3,343.4,239.7,300.2z"/>
											</g>
										</g>
									</g>
								</g>
							</g>
						</g>
					</g>
				</g>
			</g>
		</g>
		<g>
			<g>
				<g>
					<g>
						<g>
							<g>
								<g>
									<g>
										<g>
											<g>
												<path class="st0" d="M229.8,297.8c14.3-41.6,27.3-79.2,36.7-106.5c4.6-13.6,8.4-24.7,11-32.3c1.3-3.8,2.2-6.8,2.9-8.8
													c0.3-1,0.6-1.8,0.7-2.3c0.2-0.5,0.2-0.8,0.2-0.8s-0.1,0.3-0.3,0.8c-0.2,0.5-0.5,1.3-0.8,2.3c-0.7,2-1.7,5-3.1,8.8
													c-2.6,7.7-6.4,18.7-11,32.3c-9.1,27.4-21.7,65.1-35.7,106.8c-13.9,41.7-26.5,79.4-35.9,106.7
													c-4.7,13.6-8.5,24.6-11.2,32.2c-1.4,3.8-2.4,6.7-3.2,8.7s-1.2,3-1.3,3s0.2-1.1,0.8-3.1s1.6-5,2.8-8.8
													c2.5-7.7,6.1-18.7,10.7-32.4C202.5,377,215.5,339.3,229.8,297.8z"/>
											</g>
										</g>
									</g>
								</g>
							</g>
						</g>
					</g>
				</g>
			</g>
		</g>
		<g>
			<g>
				<g>
					<g>
						<g>
							<g>
								<g>
									<g>
										<g>
											<g>
												<path class="st0" d="M220.4,293.9c20.9-38.9,39.8-74,53.5-99.5c6.8-12.7,12.2-23.1,16.1-30.2c1.9-3.6,3.3-6.3,4.3-8.3
													c0.5-0.9,0.8-1.6,1.1-2.2c0.2-0.5,0.4-0.7,0.3-0.8c0,0-0.2,0.2-0.4,0.7c-0.3,0.5-0.7,1.2-1.2,2.1
													c-1,1.9-2.5,4.7-4.4,8.2c-3.8,7.2-9.3,17.5-16.1,30.2c-13.5,25.6-32,60.9-52.5,100c-20.5,39-39.1,74.4-52.7,99.9
													c-6.8,12.7-12.4,23-16.3,30.1c-1.9,3.5-3.5,6.3-4.5,8.1c-1.1,1.8-1.7,2.8-1.7,2.8c-0.1,0,0.4-1.1,1.3-3
													c0.9-1.9,2.3-4.7,4.2-8.3c3.7-7.2,9.1-17.6,15.9-30.3C180.7,367.9,199.5,332.7,220.4,293.9z"/>
											</g>
										</g>
									</g>
								</g>
							</g>
						</g>
					</g>
				</g>
			</g>
		</g>
		<g>
			<g>
				<g>
					<g>
						<g>
							<g>
								<g>
									<g>
										<g>
											<g>
												<path class="st0" d="M211.8,288.6c26.9-35.2,51.2-67.1,68.8-90.2c8.7-11.6,15.8-20.9,20.7-27.4c2.4-3.2,4.3-5.8,5.6-7.5
													c0.6-0.8,1.1-1.5,1.4-2c0.3-0.4,0.5-0.7,0.5-0.7s-0.2,0.2-0.5,0.6c-0.4,0.5-0.9,1.1-1.5,1.9c-1.3,1.7-3.2,4.2-5.7,7.4
													c-4.9,6.5-12,15.9-20.7,27.4c-17.4,23.3-41.4,55.3-68,90.8c-26.5,35.4-50.5,67.5-68.1,90.6
													c-8.8,11.6-15.9,20.9-20.9,27.3c-2.5,3.2-4.4,5.7-5.8,7.3c-1.3,1.7-2.1,2.5-2.2,2.5s0.5-1,1.8-2.7
													c1.2-1.7,3.1-4.3,5.5-7.6c4.8-6.5,11.8-16,20.5-27.5C160.6,355.7,184.9,323.8,211.8,288.6z"/>
											</g>
										</g>
									</g>
								</g>
							</g>
						</g>
					</g>
				</g>
			</g>
		</g>
		<g>
			<g>
				<g>
					<g>
						<g>
							<g>
								<g>
									<g>
										<g>
											<g>
												<path class="st0" d="M204.1,282.1c32.2-30.7,61.3-58.5,82.4-78.7c10.5-10.1,19-18.3,24.9-24c2.9-2.8,5.2-5,6.7-6.6
													c0.7-0.7,1.3-1.3,1.7-1.7c0.4-0.4,0.6-0.6,0.6-0.6s-0.2,0.2-0.6,0.5c-0.4,0.4-1,0.9-1.8,1.7c-1.6,1.5-3.9,3.7-6.8,6.5
													c-5.9,5.7-14.4,13.8-24.9,23.9c-20.9,20.3-49.8,48.4-81.7,79.4s-60.7,59.1-81.8,79.2c-10.5,10.1-19.1,18.2-25,23.8
													c-3,2.8-5.3,4.9-6.9,6.4c-1.6,1.4-2.5,2.2-2.5,2.1c-0.1-0.1,0.7-0.9,2.2-2.4s3.7-3.8,6.6-6.7c5.8-5.7,14.2-14,24.7-24.1
													C142.8,340.6,171.9,312.8,204.1,282.1z"/>
											</g>
										</g>
									</g>
								</g>
							</g>
						</g>
					</g>
				</g>
			</g>
		</g>
		<g>
			<g>
				<g>
					<g>
						<g>
							<g>
								<g>
									<g>
										<g>
											<g>
												<path class="st0" d="M197.5,274.5c36.7-25.5,69.9-48.5,94-65.3c12-8.4,21.7-15.2,28.4-19.9c3.3-2.4,5.9-4.2,7.7-5.5
													c0.9-0.6,1.5-1.1,2-1.4c0.4-0.3,0.7-0.5,0.7-0.5s-0.3,0.1-0.7,0.4c-0.5,0.3-1.2,0.8-2,1.4c-1.8,1.2-4.4,3-7.8,5.4
													c-6.7,4.7-16.4,11.5-28.4,19.9c-23.9,16.9-56.9,40.3-93.4,66.1c-36.4,25.8-69.4,49.2-93.5,65.9
													c-12,8.4-21.8,15.1-28.5,19.7c-3.4,2.3-6,4.1-7.8,5.3c-1.8,1.2-2.8,1.8-2.8,1.7c0-0.1,0.8-0.8,2.6-2.1
													c1.7-1.3,4.3-3.2,7.6-5.6c6.6-4.8,16.3-11.7,28.3-20.1C127.6,323,160.8,299.9,197.5,274.5z"/>
											</g>
										</g>
									</g>
								</g>
							</g>
						</g>
					</g>
				</g>
			</g>
		</g>
		<g>
			<g>
				<g>
					<g>
						<g>
							<g>
								<g>
									<g>
										<g>
											<g>
												<path class="st0" d="M192.3,266c40.4-19.6,76.9-37.3,103.3-50.2c13.2-6.5,23.8-11.7,31.2-15.4c3.7-1.8,6.5-3.3,8.5-4.2
													c0.9-0.5,1.7-0.9,2.2-1.1c0.5-0.3,0.7-0.4,0.7-0.4s-0.3,0.1-0.8,0.3s-1.3,0.6-2.2,1c-2,1-4.8,2.3-8.5,4.1
													c-7.4,3.6-18.1,8.9-31.3,15.3c-26.3,13.1-62.7,31.1-102.9,51.1c-40.1,20-76.5,38-102.9,50.9
													c-13.2,6.5-23.9,11.6-31.3,15.1c-3.7,1.8-6.6,3.1-8.6,4c-2,0.9-3,1.3-3.1,1.2c0-0.1,0.9-0.6,2.9-1.7
													c1.9-1,4.7-2.5,8.4-4.3c7.3-3.7,18-9,31.1-15.5C115.4,303.3,151.9,285.5,192.3,266z"/>
											</g>
										</g>
									</g>
								</g>
							</g>
						</g>
					</g>
				</g>
			</g>
		</g>
		<g>
			<g>
				<g>
					<g>
						<g>
							<g>
								<g>
									<g>
										<g>
											<g>
												<path class="st0" d="M188.4,256.8c43-13.2,82-25.1,110.2-33.7c14.1-4.4,25.4-7.9,33.3-10.4c3.9-1.2,6.9-2.2,9-2.9
													c1-0.3,1.8-0.6,2.3-0.8s0.8-0.3,0.8-0.3s-0.3,0.1-0.8,0.2c-0.6,0.2-1.4,0.4-2.4,0.7c-2.1,0.6-5.2,1.6-9.1,2.8
													c-7.9,2.5-19.3,6-33.3,10.4c-28.1,8.9-67,21.2-109.9,34.7C145.8,271,107,283.2,78.8,291.9c-14.1,4.4-25.5,7.8-33.4,10.2
													c-4,1.2-7,2.1-9.1,2.6c-2.1,0.6-3.2,0.8-3.2,0.8c0-0.1,1-0.5,3.1-1.2c2-0.7,5.1-1.7,9-3c7.8-2.6,19.2-6.2,33.3-10.6
													C106.5,281.9,145.4,269.9,188.4,256.8z"/>
											</g>
										</g>
									</g>
								</g>
							</g>
						</g>
					</g>
				</g>
			</g>
		</g>
		<g>
			<g>
				<g>
					<g>
						<g>
							<g>
								<g>
									<g>
										<g>
											<g>
												<path class="st0" d="M186.2,247.1c44.6-6.4,85-12.3,114.3-16.5c14.6-2.2,26.4-3.9,34.6-5.2c4.1-0.6,7.2-1.1,9.4-1.5
													c1.1-0.2,1.9-0.3,2.4-0.4c0.5-0.1,0.8-0.2,0.8-0.2s-0.3,0-0.8,0.1c-0.6,0.1-1.4,0.2-2.5,0.3c-2.2,0.3-5.4,0.8-9.4,1.3
													c-8.2,1.2-20,3-34.6,5.1c-29.2,4.5-69.5,10.7-114.1,17.5c-44.5,6.9-84.9,13-114.1,17.3c-14.6,2.1-26.4,3.8-34.6,4.9
													c-4.1,0.6-7.3,1-9.4,1.2c-2.2,0.2-3.3,0.3-3.3,0.3c0-0.1,1.1-0.3,3.2-0.7c2.1-0.4,5.3-0.9,9.4-1.6
													c8.2-1.3,20-3.2,34.6-5.4C101.2,259.4,141.6,253.5,186.2,247.1z"/>
											</g>
										</g>
									</g>
								</g>
							</g>
						</g>
					</g>
				</g>
			</g>
		</g>
		<g>
			<g>
				<g>
					<g>
						<g>
							<g>
								<g>
									<g>
										<g>
											<g>
												<path class="st0" d="M185.5,237.2c45.1,0.4,85.9,0.7,115.5,0.9c14.8,0.1,26.7,0.1,35,0.1c4.1,0,7.3,0,9.5,0
													c1.1,0,1.9,0,2.5,0s0.8,0,0.8,0s-0.3,0-0.8-0.1c-0.6,0-1.4,0-2.5-0.1c-2.2,0-5.4-0.1-9.5-0.1c-8.3,0-20.2-0.1-35-0.1
													c-29.6,0-70.4,0-115.5,0.1S99.6,238,70,237.8c-14.8-0.1-26.7-0.2-35-0.4c-4.1-0.1-7.3-0.1-9.5-0.2
													c-2.2-0.1-3.3-0.2-3.3-0.2c0-0.1,1.1-0.2,3.3-0.2c2.2-0.1,5.4-0.1,9.5-0.2c8.3-0.1,20.2-0.1,35-0.1
													C99.6,236.5,140.4,236.8,185.5,237.2z"/>
											</g>
										</g>
									</g>
								</g>
							</g>
						</g>
					</g>
				</g>
			</g>
		</g>
		<g>
			<g>
				<g>
					<g>
						<g>
							<g>
								<g>
									<g>
										<g>
											<g>
												<path class="st0" d="M186.4,227.3c44.5,7.2,84.8,13.7,114,18.4c14.6,2.3,26.4,4.1,34.6,5.4c4.1,0.6,7.2,1.1,9.4,1.4
													c1.1,0.1,1.9,0.3,2.5,0.3c0.6,0.1,0.8,0.1,0.8,0.1s-0.3-0.1-0.8-0.2c-0.6-0.1-1.4-0.2-2.4-0.4c-2.2-0.4-5.3-0.9-9.4-1.5
													c-8.2-1.3-20-3.1-34.6-5.4c-29.2-4.4-69.6-10.6-114.1-17.4c-44.5-6.7-84.9-12.9-114-17.6c-14.6-2.3-26.4-4.2-34.5-5.6
													c-4.1-0.7-7.2-1.3-9.4-1.7c-2.1-0.4-3.3-0.7-3.2-0.7c0-0.1,1.2,0,3.3,0.3c2.2,0.3,5.3,0.7,9.4,1.3
													c8.2,1.2,20,2.9,34.6,5.2C101.6,213.7,141.9,220.1,186.4,227.3z"/>
											</g>
										</g>
									</g>
								</g>
							</g>
						</g>
					</g>
				</g>
			</g>
		</g>
		<g>
			<g>
				<g>
					<g>
						<g>
							<g>
								<g>
									<g>
										<g>
											<g>
												<path class="st0" d="M188.8,217.7c42.8,13.9,81.5,26.5,109.6,35.6c14,4.5,25.4,8.1,33.3,10.6c3.9,1.2,7,2.2,9.1,2.8
													c1,0.3,1.8,0.5,2.4,0.7c0.5,0.2,0.8,0.2,0.8,0.2s-0.3-0.1-0.8-0.3c-0.6-0.2-1.3-0.5-2.3-0.8c-2.1-0.7-5.1-1.7-9-3
													c-7.9-2.5-19.2-6.2-33.2-10.7c-28.1-8.9-67-21.1-109.9-34.6c-42.9-13.5-81.7-25.7-109.8-34.8
													c-14-4.5-25.4-8.2-33.2-10.9c-3.9-1.3-6.9-2.4-9-3.1c-2-0.7-3.1-1.2-3.1-1.2c0-0.1,1.1,0.2,3.2,0.8
													c2.1,0.6,5.2,1.5,9.1,2.7c7.9,2.4,19.3,6,33.3,10.4C107.3,191.2,146.1,203.8,188.8,217.7z"/>
											</g>
										</g>
									</g>
								</g>
							</g>
						</g>
					</g>
				</g>
			</g>
		</g>
		<g>
			<g>
				<g>
					<g>
						<g>
							<g>
								<g>
									<g>
										<g>
											<g>
												<path class="st0" d="M192.8,208.6c40,20.3,76.2,38.6,102.4,51.9c13.1,6.6,23.7,11.9,31.1,15.6c3.7,1.8,6.5,3.2,8.5,4.2
													c1,0.5,1.7,0.8,2.2,1.1c0.5,0.2,0.8,0.3,0.8,0.3s-0.2-0.2-0.7-0.4c-0.5-0.3-1.2-0.7-2.2-1.1c-2-1-4.8-2.4-8.4-4.3
													c-7.4-3.7-18-9-31.1-15.6c-26.4-13.1-62.7-31.1-102.9-51c-40.2-20-76.5-38.1-102.8-51.3c-13.1-6.6-23.7-12-31-15.8
													c-3.6-1.9-6.5-3.4-8.4-4.4s-2.9-1.6-2.8-1.7c0-0.1,1.1,0.4,3.1,1.3c2,0.9,4.9,2.3,8.6,4.1c7.4,3.6,18.1,8.8,31.2,15.4
													C116.6,170,152.9,188.3,192.8,208.6z"/>
											</g>
										</g>
									</g>
								</g>
							</g>
						</g>
					</g>
				</g>
			</g>
		</g>
		<g>
			<g>
				<g>
					<g>
						<g>
							<g>
								<g>
									<g>
										<g>
											<g>
												<path class="st0" d="M198.2,200.2c36.2,26.1,69,49.7,92.8,66.8c11.9,8.5,21.5,15.3,28.2,20.1c3.3,2.3,5.9,4.2,7.7,5.4
													c0.9,0.6,1.5,1.1,2,1.4s0.7,0.5,0.7,0.4c0,0-0.2-0.2-0.6-0.5c-0.5-0.3-1.1-0.8-2-1.5c-1.8-1.3-4.3-3.1-7.6-5.5
													c-6.7-4.8-16.3-11.6-28.2-20.1c-23.9-16.9-57-40.2-93.4-66c-36.5-25.7-69.5-49.1-93.3-66.1
													c-11.9-8.5-21.5-15.5-28.1-20.3c-3.3-2.4-5.8-4.3-7.6-5.6c-1.7-1.3-2.6-2-2.5-2.1c0-0.1,1,0.5,2.8,1.7s4.4,3,7.8,5.3
													c6.7,4.7,16.4,11.5,28.4,19.9C129.2,150.5,162,174,198.2,200.2z"/>
											</g>
										</g>
									</g>
								</g>
							</g>
						</g>
					</g>
				</g>
			</g>
		</g>
		<g>
			<g>
				<g>
					<g>
						<g>
							<g>
								<g>
									<g>
										<g>
											<g>
												<path class="st0" d="M204.9,192.7c31.6,31.3,60.3,59.5,81,80c10.4,10.2,18.8,18.4,24.7,24.1c2.9,2.8,5.2,5,6.8,6.5
													c0.8,0.7,1.4,1.3,1.8,1.7c0.4,0.4,0.6,0.6,0.6,0.5c0,0-0.2-0.2-0.6-0.6s-1-1-1.7-1.7c-1.5-1.5-3.8-3.8-6.7-6.6
													c-5.8-5.7-14.3-14-24.7-24.2c-20.9-20.3-49.8-48.3-81.7-79.3c-31.9-30.9-60.8-59-81.6-79.4
													c-10.4-10.2-18.8-18.5-24.5-24.3c-2.9-2.9-5.1-5.2-6.6-6.7c-1.5-1.6-2.2-2.4-2.2-2.5c0.1-0.1,0.9,0.7,2.5,2.1
													c1.6,1.5,3.9,3.6,6.8,6.4c5.9,5.6,14.4,13.8,24.8,24C144.7,133.1,173.4,161.4,204.9,192.7z"/>
											</g>
										</g>
									</g>
								</g>
							</g>
						</g>
					</g>
				</g>
			</g>
		</g>
		<g>
			<g>
				<g>
					<g>
						<g>
							<g>
								<g>
									<g>
										<g>
											<g>
												<path class="st0" d="M212.8,186.3c26.2,35.7,50,67.9,67.2,91.3c8.6,11.6,15.6,21,20.5,27.6c2.4,3.2,4.3,5.7,5.6,7.5
													c0.6,0.8,1.1,1.5,1.5,1.9c0.3,0.4,0.5,0.6,0.5,0.6s-0.1-0.2-0.5-0.7c-0.3-0.5-0.8-1.1-1.4-2c-1.3-1.7-3.1-4.3-5.5-7.5
													c-4.9-6.5-11.8-16-20.5-27.6c-17.4-23.2-41.5-55.3-68.1-90.7s-50.6-67.5-67.9-90.8c-8.6-11.7-15.6-21.1-20.3-27.7
													c-2.4-3.3-4.2-5.9-5.4-7.6c-1.2-1.8-1.8-2.7-1.8-2.7c0.1,0,0.8,0.8,2.1,2.5c1.3,1.7,3.3,4.2,5.7,7.4
													c4.9,6.4,12,15.8,20.7,27.5C162.8,118.4,186.6,150.6,212.8,186.3z"/>
											</g>
										</g>
									</g>
								</g>
							</g>
						</g>
					</g>
				</g>
			</g>
		</g>
		<g>
			<g>
				<g>
					<g>
						<g>
							<g>
								<g>
									<g>
										<g>
											<g>
												<path class="st0" d="M221.5,181.2c20.2,39.2,38.4,74.7,51.7,100.4c6.7,12.8,12.1,23.2,15.8,30.4
													c1.9,3.6,3.4,6.3,4.4,8.2c0.5,0.9,0.9,1.6,1.2,2.1c0.3,0.5,0.4,0.7,0.4,0.7s-0.1-0.3-0.3-0.8c-0.3-0.5-0.6-1.2-1.1-2.2
													c-1-1.9-2.4-4.7-4.2-8.3c-3.7-7.2-9.1-17.6-15.8-30.4c-13.5-25.6-32.1-60.9-52.6-99.9c-20.6-39-39.1-74.3-52.4-100
													c-6.6-12.8-12-23.2-15.6-30.5c-1.8-3.6-3.2-6.4-4.1-8.3c-0.9-1.9-1.4-2.9-1.3-3c0.1,0,0.7,0.9,1.7,2.8
													c1,1.9,2.6,4.6,4.5,8.2c3.8,7.1,9.3,17.5,16,30.3C183.1,106.5,201.4,142,221.5,181.2z"/>
											</g>
										</g>
									</g>
								</g>
							</g>
						</g>
					</g>
				</g>
			</g>
		</g>
		<g>
			<g>
				<g>
					<g>
						<g>
							<g>
								<g>
									<g>
										<g>
											<g>
												<path class="st0" d="M231,177.5c13.6,41.8,25.9,79.6,34.8,107.1c4.5,13.7,8.2,24.7,10.7,32.4c1.3,3.8,2.3,6.7,3,8.8
													c0.3,1,0.6,1.7,0.8,2.3c0.2,0.5,0.3,0.8,0.3,0.8s-0.1-0.3-0.2-0.8c-0.2-0.5-0.4-1.3-0.7-2.3c-0.7-2-1.6-5-2.8-8.8
													c-2.5-7.7-6.2-18.7-10.7-32.4c-9.2-27.3-21.8-65.1-35.8-106.7c-14-41.7-26.6-79.4-35.6-106.8
													c-4.5-13.7-8.1-24.8-10.5-32.5c-1.2-3.8-2.1-6.8-2.7-8.9c-0.6-2-0.9-3.1-0.8-3.1c0.1,0,0.5,1,1.2,3s1.8,4.9,3.1,8.7
													c2.6,7.6,6.4,18.7,10.9,32.3C205.1,97.8,217.4,135.7,231,177.5z"/>
											</g>
										</g>
									</g>
								</g>
							</g>
						</g>
					</g>
				</g>
			</g>
		</g>
		<g>
			<g>
				<g>
					<g>
						<g>
							<g>
								<g>
									<g>
										<g>
											<g>
												<path class="st0" d="M240.9,175.2c6.6,43.4,12.7,82.6,17,111c2.2,14.2,4.1,25.7,5.3,33.6c0.7,3.9,1.2,7,1.5,9.1
													c0.2,1,0.3,1.8,0.4,2.4c0.1,0.5,0.2,0.8,0.2,0.8s0-0.3-0.1-0.8c-0.1-0.6-0.2-1.4-0.3-2.4c-0.3-2.1-0.8-5.2-1.4-9.2
													c-1.3-8-3.1-19.4-5.3-33.6c-4.6-28.4-11-67.6-18.1-110.9s-13.4-82.5-17.9-110.9c-2.2-14.2-4-25.7-5.1-33.7
													c-0.6-4-1-7.1-1.2-9.2c-0.3-2.1-0.4-3.2-0.3-3.2c0.1,0,0.3,1.1,0.7,3.2s1,5.2,1.6,9.1c1.4,7.9,3.3,19.4,5.5,33.6
													C228.3,92.6,234.3,131.9,240.9,175.2z"/>
											</g>
										</g>
									</g>
								</g>
							</g>
						</g>
					</g>
				</g>
			</g>
		</g>
		<g>
			<g>
				<g>
					<g>
						<g>
							<g>
								<g>
									<g>
										<g>
											<g>
												<path class="st0" d="M251.1,174.5c-0.3,43.8-0.7,83.5-0.9,112.3c0,14.3-0.1,26-0.1,34c0,4,0,7.1,0,9.2c0,1,0,1.8,0,2.4
													c0,0.5,0,0.8,0,0.8s0-0.3,0.1-0.8c0-0.6,0-1.4,0.1-2.4c0-2.1,0.1-5.3,0.1-9.2c0-8.1,0.1-19.7,0.1-34
													c0-28.8-0.1-68.4-0.1-112.3c-0.1-43.8-0.1-83.5,0.1-112.2c0.1-14.4,0.2-26,0.3-34c0.1-4,0.1-7.1,0.2-9.2
													c0.1-2.1,0.2-3.2,0.2-3.2c0.1,0,0.2,1.1,0.2,3.2c0.1,2.1,0.1,5.2,0.2,9.3c0.1,8,0.1,19.7,0.1,34
													C251.8,91.1,251.5,130.7,251.1,174.5z"/>
											</g>
										</g>
									</g>
								</g>
							</g>
						</g>
					</g>
				</g>
			</g>
		</g>
		<g>
			<g>
				<g>
					<g>
						<g>
							<g>
								<g>
									<g>
										<g>
											<g>
												<path class="st0" d="M261.3,175.4c-7.4,43.3-14,82.4-18.8,110.8c-2.3,14.2-4.2,25.6-5.5,33.6c-0.6,3.9-1.1,7-1.4,9.1
													c-0.1,1-0.3,1.8-0.3,2.4c-0.1,0.5-0.1,0.8-0.1,0.8s0.1-0.3,0.2-0.8c0.1-0.6,0.2-1.3,0.4-2.4c0.4-2.1,0.9-5.2,1.6-9.1
													c1.3-8,3.2-19.4,5.6-33.6c4.6-28.4,10.8-67.6,17.8-110.9c6.9-43.3,13.2-82.5,18-110.9c2.4-14.2,4.3-25.6,5.8-33.6
													c0.7-4,1.3-7,1.7-9.1c0.4-2.1,0.7-3.2,0.8-3.1c0.1,0,0,1.1-0.3,3.2s-0.7,5.2-1.3,9.2c-1.2,8-3,19.4-5.3,33.6
													C275.3,93,268.7,132.2,261.3,175.4z"/>
											</g>
										</g>
									</g>
								</g>
							</g>
						</g>
					</g>
				</g>
			</g>
		</g>
		<g>
			<g>
				<g>
					<g>
						<g>
							<g>
								<g>
									<g>
										<g>
											<g>
												<path class="st0" d="M271.2,177.8c-14.3,41.6-27.2,79.2-36.6,106.5c-4.6,13.6-8.3,24.7-10.9,32.3
													c-1.3,3.8-2.2,6.8-2.9,8.8c-0.3,1-0.6,1.8-0.7,2.3c-0.2,0.5-0.2,0.8-0.2,0.8s0.1-0.3,0.3-0.8s0.5-1.3,0.8-2.3
													c0.7-2,1.7-5,3-8.8c2.6-7.7,6.3-18.7,10.9-32.3c9.1-27.4,21.7-65.1,35.5-106.8s26.4-79.4,35.7-106.7
													c4.6-13.6,8.5-24.7,11.1-32.3c1.3-3.8,2.4-6.7,3.2-8.7c0.8-2,1.2-3,1.3-3c0.1,0-0.2,1.1-0.8,3.1c-0.6,2-1.5,5-2.8,8.9
													c-2.5,7.7-6.1,18.7-10.7,32.4C298.4,98.6,285.5,136.2,271.2,177.8z"/>
											</g>
										</g>
									</g>
								</g>
							</g>
						</g>
					</g>
				</g>
			</g>
		</g>
		<g>
			<g>
				<g>
					<g>
						<g>
							<g>
								<g>
									<g>
										<g>
											<g>
												<path class="st0" d="M280.6,181.7c-20.8,38.9-39.7,74.1-53.3,99.6c-6.8,12.8-12.2,23.1-16,30.3
													c-1.9,3.6-3.3,6.3-4.3,8.3c-0.5,0.9-0.8,1.6-1.1,2.2c-0.2,0.5-0.4,0.7-0.3,0.8c0,0,0.2-0.2,0.4-0.7
													c0.3-0.5,0.7-1.2,1.2-2.1c1-1.9,2.5-4.7,4.4-8.2c3.8-7.2,9.3-17.5,16-30.2c13.4-25.6,31.9-61,52.4-100.1
													c20.4-39.1,39-74.4,52.6-99.9c6.8-12.8,12.3-23.1,16.2-30.1c1.9-3.5,3.5-6.3,4.5-8.1c1.1-1.8,1.7-2.8,1.7-2.8
													s-0.4,1.1-1.3,3s-2.3,4.7-4.2,8.3c-3.7,7.2-9.1,17.6-15.8,30.3C320.3,107.6,301.4,142.8,280.6,181.7z"/>
											</g>
										</g>
									</g>
								</g>
							</g>
						</g>
					</g>
				</g>
			</g>
		</g>
		<g>
			<g>
				<g>
					<g>
						<g>
							<g>
								<g>
									<g>
										<g>
											<g>
												<path class="st0" d="M289.3,186.9c-26.8,35.2-51.1,67.1-68.7,90.3c-8.7,11.6-15.8,20.9-20.7,27.5
													c-2.4,3.2-4.3,5.8-5.6,7.5c-0.6,0.8-1.1,1.5-1.4,2c-0.3,0.4-0.5,0.7-0.5,0.7s0.2-0.2,0.5-0.6c0.4-0.5,0.9-1.1,1.5-1.9
													c1.3-1.7,3.2-4.2,5.7-7.4c4.9-6.5,12-15.9,20.7-27.4c17.4-23.3,41.4-55.4,67.9-90.9s50.5-67.6,68-90.7
													c8.8-11.6,15.9-20.9,20.9-27.3c2.5-3.2,4.4-5.7,5.8-7.3c1.3-1.7,2.1-2.5,2.2-2.5s-0.5,1-1.8,2.7
													c-1.2,1.7-3.1,4.3-5.5,7.6c-4.8,6.5-11.8,16-20.5,27.6C340.3,119.8,316.1,151.7,289.3,186.9z"/>
											</g>
										</g>
									</g>
								</g>
							</g>
						</g>
					</g>
				</g>
			</g>
		</g>
		<g>
			<g>
				<g>
					<g>
						<g>
							<g>
								<g>
									<g>
										<g>
											<g>
												<path class="st0" d="M297,193.4c-32.1,30.8-61.2,58.6-82.3,78.8c-10.5,10.1-18.9,18.3-24.8,24c-2.9,2.8-5.1,5-6.7,6.6
													c-0.7,0.7-1.3,1.3-1.7,1.7c-0.4,0.4-0.6,0.6-0.6,0.6s0.2-0.2,0.6-0.5c0.4-0.4,1-0.9,1.8-1.7c1.6-1.5,3.9-3.7,6.8-6.5
													c5.9-5.7,14.4-13.9,24.8-24c20.9-20.4,49.7-48.5,81.6-79.5c31.8-31.1,60.7-59.1,81.7-79.3c10.5-10.1,19-18.2,25-23.8
													c3-2.8,5.3-4.9,6.9-6.4c1.6-1.4,2.5-2.2,2.5-2.1c0.1,0.1-0.7,0.9-2.2,2.4s-3.7,3.8-6.6,6.7c-5.8,5.7-14.2,14-24.7,24.1
													C358.2,134.9,329.1,162.7,297,193.4z"/>
											</g>
										</g>
									</g>
								</g>
							</g>
						</g>
					</g>
				</g>
			</g>
		</g>
		<g>
			<g>
				<g>
					<g>
						<g>
							<g>
								<g>
									<g>
										<g>
											<g>
												<path class="st0" d="M303.5,201c-36.7,25.5-69.9,48.6-93.9,65.4c-12,8.4-21.6,15.2-28.4,19.9c-3.3,2.4-5.9,4.2-7.7,5.5
													c-0.9,0.6-1.5,1.1-2,1.4c-0.4,0.3-0.7,0.5-0.7,0.5s0.3-0.1,0.7-0.4c0.5-0.3,1.2-0.8,2-1.4c1.8-1.2,4.4-3,7.8-5.4
													c6.7-4.7,16.4-11.5,28.4-19.9c23.9-17,56.9-40.3,93.3-66.2s69.4-49.2,93.4-66c12-8.4,21.7-15.1,28.5-19.8
													c3.4-2.3,6-4.1,7.8-5.3c1.8-1.2,2.8-1.8,2.8-1.7c0,0.1-0.8,0.8-2.6,2.1c-1.7,1.3-4.3,3.2-7.6,5.6
													c-6.6,4.8-16.3,11.7-28.2,20.1C373.4,152.4,340.2,175.6,303.5,201z"/>
											</g>
										</g>
									</g>
								</g>
							</g>
						</g>
					</g>
				</g>
			</g>
		</g>
		<g>
			<g>
				<g>
					<g>
						<g>
							<g>
								<g>
									<g>
										<g>
											<g>
												<path class="st0" d="M308.8,209.5c-40.3,19.6-76.8,37.4-103.3,50.3c-13.2,6.5-23.8,11.7-31.2,15.4
													c-3.7,1.8-6.5,3.3-8.5,4.2c-0.9,0.5-1.7,0.9-2.2,1.1c-0.5,0.3-0.7,0.4-0.7,0.4s0.3-0.1,0.8-0.3c0.5-0.2,1.3-0.6,2.2-1
													c2-1,4.8-2.3,8.5-4.1c7.4-3.6,18.1-8.9,31.2-15.4c26.3-13.1,62.7-31.2,102.8-51.2s76.5-38.1,102.8-51
													c13.2-6.5,23.9-11.7,31.3-15.2c3.7-1.8,6.6-3.1,8.6-4s3-1.3,3.1-1.3c0,0.1-0.9,0.6-2.9,1.7c-1.9,1-4.7,2.5-8.4,4.4
													c-7.3,3.7-18,9.1-31.1,15.6C385.6,172.1,349.1,189.9,308.8,209.5z"/>
											</g>
										</g>
									</g>
								</g>
							</g>
						</g>
					</g>
				</g>
			</g>
		</g>
		<g>
			<g>
				<g>
					<g>
						<g>
							<g>
								<g>
									<g>
										<g>
											<g>
												<path class="st0" d="M312.6,218.7c-43,13.2-81.9,25.2-110.1,33.9c-14,4.4-25.4,8-33.3,10.4c-3.9,1.3-6.9,2.2-9,2.9
													c-1,0.3-1.8,0.6-2.3,0.8c-0.5,0.2-0.8,0.3-0.8,0.3s0.3-0.1,0.8-0.2c0.6-0.2,1.3-0.4,2.4-0.7c2.1-0.6,5.2-1.6,9.1-2.8
													c7.9-2.5,19.3-6,33.3-10.4c28.1-8.9,66.9-21.2,109.8-34.9c42.8-13.6,81.7-25.9,109.8-34.7c14.1-4.4,25.5-7.9,33.4-10.2
													c4-1.2,7-2.1,9.1-2.6c2.1-0.6,3.2-0.8,3.2-0.8c0,0.1-1,0.5-3.1,1.2c-2,0.7-5.1,1.7-9,3c-7.8,2.6-19.2,6.2-33.3,10.6
													C394.5,193.5,355.6,205.5,312.6,218.7z"/>
											</g>
										</g>
									</g>
								</g>
							</g>
						</g>
					</g>
				</g>
			</g>
		</g>
		<g>
			<g>
				<g>
					<g>
						<g>
							<g>
								<g>
									<g>
										<g>
											<g>
												<path class="st0" d="M314.9,228.4c-44.6,6.5-85,12.4-114.2,16.6c-14.6,2.2-26.4,4-34.6,5.2c-4.1,0.6-7.2,1.1-9.4,1.5
													c-1.1,0.2-1.9,0.3-2.4,0.4c-0.5,0.1-0.8,0.2-0.8,0.2s0.3,0,0.8-0.1c0.6-0.1,1.4-0.2,2.5-0.3c2.2-0.3,5.4-0.8,9.4-1.3
													c8.2-1.2,20-3,34.6-5.2c29.2-4.5,69.5-10.7,114.1-17.6c44.5-6.9,84.8-13.1,114.1-17.4c14.6-2.2,26.4-3.9,34.6-5
													c4.1-0.6,7.3-1,9.4-1.2c2.2-0.3,3.3-0.3,3.3-0.3c0,0.1-1.1,0.3-3.2,0.7s-5.3,0.9-9.4,1.6c-8.2,1.3-20,3.2-34.6,5.4
													C399.9,216,359.5,222,314.9,228.4z"/>
											</g>
										</g>
									</g>
								</g>
							</g>
						</g>
					</g>
				</g>
			</g>
		</g>
	</g>
	<ellipse class="st0" cx="264.6" cy="455.7" rx="134.6" ry="20.6"/>
	<g>
		<g>
			<path class="st0" d="M452.6,242.1l7.4,2.8l-6.4,1.8c-2.1,0.6-3.8,2.2-4.5,4.3l-2.3,7.1L444,251c-0.7-1.8-2.1-3.1-3.9-3.8
				l-6.5-2.3l7-2.9c1.7-0.7,3-2.1,3.7-3.8l2.5-6.6l1.8,6.1C449.2,239.7,450.7,241.3,452.6,242.1z"/>
		</g>
	</g>
	<g>
		<g>
			<path class="st0" d="M60.5,253.4l7.4,2.8l-6.4,1.8c-2.1,0.6-3.8,2.2-4.5,4.3l-2.3,7.1l-2.8-7.1c-0.7-1.8-2.1-3.1-3.9-3.8
				l-6.5-2.3l7-2.9c1.7-0.7,3-2.1,3.7-3.8l2.5-6.6l1.8,6.1C57,251,58.5,252.6,60.5,253.4z"/>
		</g>
	</g>
	<g>
		<g>
			<path class="st0" d="M351.7,87.9l7.4,2.8l-6.4,1.8c-2.1,0.6-3.8,2.2-4.5,4.3l-2.3,7.1l-2.8-7.1c-0.7-1.8-2.1-3.1-3.9-3.8
				l-6.5-2.3l7-2.9c1.7-0.7,3-2.1,3.7-3.8l2.5-6.6l1.8,6.1C348.2,85.6,349.7,87.2,351.7,87.9z"/>
		</g>
	</g>
	<g>
		<g>
			<path class="st0" d="M456.9,206.6l3.3,1.2l-2.9,0.8c-1,0.3-1.7,1-2,1.9l-1,3.2l-1.3-3.2c-0.3-0.8-1-1.4-1.8-1.7l-2.9-1.1l3.1-1.3
				c0.8-0.3,1.4-0.9,1.7-1.7l1.1-2.9l0.8,2.7C455.4,205.5,456.1,206.3,456.9,206.6z"/>
		</g>
	</g>
	<g>
		<g>
			<path class="st0" d="M123.9,348.3l3.3,1.2l-2.9,0.8c-1,0.3-1.7,1-2,1.9l-1,3.2l-1.3-3.2c-0.3-0.8-1-1.4-1.8-1.7l-2.9-1.1l3.1-1.3
				c0.8-0.3,1.4-0.9,1.7-1.7l1.1-2.9l0.8,2.7C122.4,347.3,123,348,123.9,348.3z"/>
		</g>
	</g>
	<g>
		<g>
			<path class="st0" d="M167.8,75.8l3.3,1.2l-2.9,0.8c-1,0.3-1.7,1-2,1.9l-1,3.2l-1.3-3.2c-0.3-0.8-1-1.4-1.8-1.7l-2.9-1.1l3.1-1.3
				c0.8-0.3,1.4-0.9,1.7-1.7l1.1-2.9l0.8,2.7C166.2,74.7,166.9,75.4,167.8,75.8z"/>
		</g>
	</g>
	<g>
		<g>
			<path class="st0" d="M420.7,348.3l3.3,1.2l-2.9,0.8c-1,0.3-1.7,1-2,1.9l-1,3.2l-1.3-3.2c-0.3-0.8-1-1.4-1.8-1.7l-2.9-1.1l3.1-1.3
				c0.8-0.3,1.4-0.9,1.7-1.7l1.1-2.9l0.8,2.7C419.1,347.3,419.8,348,420.7,348.3z"/>
		</g>
	</g>
	<g>
		<g>
			<path class="st0" d="M95.6,203.5l3.3,1.2l-2.9,0.8c-1,0.3-1.7,1-2,1.9l-1,3.2l-1.3-3.2c-0.3-0.8-1-1.4-1.8-1.7l-2.9-1.1l3.1-1.3
				c0.8-0.3,1.4-0.9,1.7-1.7l1.1-2.9l0.8,2.7C94.1,202.4,94.7,203.1,95.6,203.5z"/>
		</g>
	</g>
</g>
<g id="Background_Simple" class="st1">
	<ellipse class="st2" cx="314.5" cy="326.5" rx="37.2" ry="37.2"/>
	<path class="st2" d="M394,251.8l-2.3,0.4c-19.8,3.1-39.8-4.6-51.7-20.5c-1.5-2.1-2.9-4.2-4.1-6.5c-8.7-16.3-8.4-37,0.8-53.3
		c5.4-9.5,13.7-18,15.3-28.8c2-14.1-8.1-26.5-17.5-37s-19.5-23-17.4-37c1.3-8.8,7.3-16.3,14.5-21.7c18.9-14.3,45.7-15.3,67.2-6.1
		s38.2,27.5,49.4,48c15.8,28.7,21.9,63.5,12.8,95.3C451.7,216.2,426.1,243.9,394,251.8z"/>
	<path class="st2" d="M149.5,33.3l2.3,0.6c19.4,5.1,34.6,20.2,39.1,39.5c0.6,2.5,1,5,1.2,7.6c1.4,18.4-7.2,37.3-22.1,48.5
		c-8.8,6.6-19.8,11-25.5,20.2c-7.5,12.1-3.2,27.5,1.2,40.9c4.4,13.4,8.6,28.9,1.1,40.9c-4.7,7.5-13.3,12-22,14.1
		c-23,5.5-48-4.3-64-21.4s-24-40.5-26-63.8c-2.9-32.6,5.4-67,26.5-92.4C82.4,42.8,116.9,27.7,149.5,33.3z"/>
</g>
<g id="Floor">
	<g>
		<g>
			<path class="st3" d="M250.6,390.1c-65.3,0-121.3,0-161.9-0.1c-20.7,0-37.5-0.1-49.1-0.1c-5.8,0-10.3,0-13.3-0.1
				c-1.5,0-2.7,0-3.5,0c-0.4,0-0.7,0-1,0l0,0l0,0c-0.9-0.1-1.6-0.4-1.6-1.5s0.7-1.4,1.7-1.5l0,0l0,0c0.3,0,0.7,0,1,0
				c0.8,0,1.9,0,3.5,0c3.1,0,7.5,0,13.3,0c11.6,0,28.4-0.1,49.1-0.1c27.9,0,86-0.1,161.9-0.1c63.2,0,120.4,0.1,161.9,0.2
				c20.7,0,37.5,0,49.1,0.1c5.8,0,10.3,0,13.3,0c1.5,0,2.7,0,3.5,0c0.3,0,0.6,0,0.9,0c0.1,0,0.1,0,0.1,0l0,0
				c0.9,0.1,1.6,0.4,1.6,1.5s-0.7,1.4-1.6,1.5l0,0h-0.1c-0.3,0-0.6,0-0.9,0c-0.8,0-1.9,0-3.5,0c-3.1,0-7.5,0-13.3,0
				c-11.6,0-28.3,0.1-49.1,0.1C384.6,390,326.5,390.1,250.6,390.1z"/>
		</g>
	</g>
</g>
<g id="Speech_Bubble">
	<g>
		<g>
			<g>
				<g>
					<g>
						<g>
							<g>
								<g>
									<g>
										<g>
											<g>
												<g>
													<g>
														<g>
															<g>
																<g>
																	<g>
																		<g>
																			<g>
																				<g>
																					<path class="st4" d="M259.7,167l-6.9-12.4c-8-1.2-15.8-4.6-22.4-10.3c-19.1-16.2-21.4-44.8-5.2-63.9
																						S270,59,289.1,75.2s21.4,44.8,5.2,63.9c-6.8,8-15.7,13-25.2,15l0,0L259.7,167z"/>
																					<g>
																						<path class="st5" d="M250.6,157.7c-8.4-1.6-16.1-5.3-22.4-10.8c-10-8.4-16-20.2-17-33.3
																							c-1-12.9,3-25.6,11.4-35.6c8.6-10,20.4-16,33.3-17.1c1.3-0.1,2.6-0.2,3.9-0.2c11.5,0,22.8,4.1,31.7,11.6
																							c10,8.5,16,20.4,17.1,33.3c1,12.9-3,25.6-11.4,35.6c-6.8,8-15.7,13.4-25.8,15.8l-12,16.4L250.6,157.7z
																							 M259.8,67.9c-1.2,0-2.3,0-3.4,0.1c-11.2,0.9-21.3,6.1-28.5,14.6s-10.7,19.3-9.9,30.5
																							c0.9,11.2,6.1,21.3,14.6,28.5c5.9,5.1,13.1,8.4,20.7,9.5l1.7,0.3l5.1,9.2l7-9.5l1.3-0.3
																							c9.2-2,17.2-6.7,23.3-13.9c7.2-8.5,10.7-19.3,9.9-30.5c-0.9-11.2-6.1-21.3-14.6-28.5
																							C279.3,71.4,269.7,67.9,259.8,67.9z"/>
																						<path class="st4" d="M259.7,61.7c11.3,0,22.3,4,31.1,11.4c9.7,8.3,15.7,19.8,16.7,32.6
																							c1,12.7-3,25.1-11.2,34.9c-6.7,7.9-15.6,13.3-25.6,15.6l-11.3,15.4l-8.2-14.8c-8.3-1.5-16-5.1-22.4-10.7
																							c-9.7-8.2-15.7-19.8-16.7-32.6c-1-12.7,3-25.1,11.2-34.9c8.3-9.7,19.8-15.7,32.6-16.7
																							C257.2,61.8,258.5,61.7,259.7,61.7 M260,162.4l7.7-10.5l0.9-0.2c9.4-2,17.6-6.9,23.8-14.2
																							c7.4-8.7,11-19.8,10.1-31.2s-6.2-21.8-15-29.2c-7.8-6.6-17.6-10.2-27.7-10.2c-1.2,0-2.3,0-3.5,0.1
																							c-11.4,0.9-21.8,6.2-29.2,15c-7.4,8.7-11,19.8-10.1,31.2s6.2,21.8,15,29.2c6,5.2,13.3,8.6,21.2,9.7l1.2,0.2
																							L260,162.4 M259.7,59.7v2V59.7L259.7,59.7c-1.3,0-2.7,0.1-4,0.2c-13.2,1-25.2,7.2-34,17.4
																							c-8.6,10.2-12.7,23.2-11.7,36.4c1,13.3,7.2,25.4,17.4,34c6.3,5.5,14,9.3,22.4,11l7.7,14l1.5,2.7l1.8-2.5
																							l10.9-14.8c10.2-2.5,19.1-8,25.9-16.1c8.6-10.2,12.7-23.1,11.7-36.4c-1-13.2-7.2-25.2-17.4-34
																							C283,63.9,271.5,59.7,259.7,59.7L259.7,59.7z M260.2,158.7l-4.1-7.4l-0.5-0.8l-1-0.2l-1.2-0.2l0,0l0,0
																							c-7.4-1-14.4-4.2-20.2-9.2c-8.4-7-13.5-16.9-14.3-27.8c-0.9-10.9,2.6-21.4,9.6-29.7
																							c7-8.4,16.9-13.4,27.8-14.3c1.1-0.1,2.2-0.1,3.3-0.1c9.6,0,19,3.5,26.4,9.7c8.4,7,13.4,16.9,14.3,27.8
																							s-2.6,21.4-9.6,29.7c-5.9,7-13.8,11.6-22.7,13.5l-0.9,0.2l-0.7,0.2l-0.4,0.6L260.2,158.7L260.2,158.7z"/>
																					</g>
																				</g>
																			</g>
																		</g>
																	</g>
																</g>
															</g>
														</g>
													</g>
												</g>
											</g>
										</g>
									</g>
								</g>
							</g>
						</g>
					</g>
				</g>
			</g>
		</g>
		<g>
			<polygon class="st6" points="279.8,124.8 267.1,111.9 280,99.2 272.7,91.7 259.8,104.4 247.1,91.5 239.6,98.8 252.3,111.7 
				239.4,124.4 246.7,131.9 259.6,119.2 272.3,132.1 			"/>
		</g>
	</g>
</g>
<g>
	<g>
		<g>
			<path class="st7" d="M198.9,338.8c-5.2,6.9-10.5,13.7-15.7,20.6c-6.8,8.9-13.6,17.8-20.4,26.8c-0.6,0.8-1.2,1.5-1.7,2.3
				c-2.8,3.7-3.4,8.9-1.6,13.2c2.3,5.6,7.5,8.8,13.5,8.7c4.7,0,9.4-0.1,14-0.1c9.6-0.1,19.2-0.2,28.9-0.3
				c12.6-0.1,25.2-0.2,37.8-0.4c13.7-0.1,27.4-0.3,41-0.4c12.6-0.1,25.3-0.2,37.9-0.4c9.7-0.1,19.4-0.2,29.2-0.3
				c4.8,0,9.7-0.1,14.5-0.1c0.2,0,0.4,0,0.6,0c1.7,0,3.3-1.5,3.2-3.3c-0.1-1.8-1.5-3.2-3.3-3.2c-3.3,0-6.6,0.1-9.9,0.1
				c-8.6,0.1-17.2,0.2-25.7,0.2c-12,0.1-24,0.2-36,0.3c-13.4,0.1-26.8,0.3-40.2,0.4c-13,0.1-26,0.2-38.9,0.4
				c-10.6,0.1-21.2,0.2-31.8,0.3c-6.3,0.1-12.6,0.1-18.9,0.2c-1,0-1.9,0-2.9,0c-0.1,0-0.2,0-0.3,0c-0.3,0-0.5,0-0.8,0
				c0.7,0,0.1,0-0.1,0c-0.5-0.1-0.9-0.2-1.4-0.3c-0.1,0-0.9-0.4-0.2,0c-0.3-0.1-0.6-0.3-0.9-0.4c-0.2-0.1-0.4-0.2-0.6-0.4
				c-0.1-0.1-0.8-0.6-0.1-0.1c-0.3-0.3-0.6-0.5-0.9-0.8c-0.2-0.2-0.3-0.4-0.5-0.5c-0.6-0.6,0.4,0.6-0.1-0.1
				c-0.3-0.5-0.6-0.9-0.9-1.4c-0.1-0.1-0.4-0.9-0.1-0.1c-0.1-0.2-0.2-0.4-0.3-0.7c-0.1-0.4-0.2-0.8-0.3-1.2c0-0.2-0.1-1,0-0.1
				c0-0.2,0-0.5-0.1-0.7c0-0.2,0-0.5,0-0.7s0.1-1.3,0-0.4c0.1-0.5,0.2-1,0.3-1.5c0-0.2,0.1-0.3,0.2-0.5c0.2-0.8-0.3,0.6,0.1-0.2
				c0.2-0.5,0.5-0.9,0.8-1.4c0.3-0.4,0.5-0.7,0,0c5.3-7,10.6-13.9,15.9-20.9c6.7-8.8,13.4-17.7,20.2-26.5c0.4-0.5,0.8-1,1.2-1.5
				c1.1-1.4,1.3-3.3,0-4.6C202.4,337.7,200,337.4,198.9,338.8L198.9,338.8z"/>
			<g>
				<path class="st8" d="M198.9,338.8c0,0,0.1-0.1,0.2-0.2c0.2-0.1,0.4-0.4,0.8-0.5c0.7-0.3,2.1-0.5,3.5,0.5
					c0.6,0.5,1.2,1.4,1.1,2.4c0,1-0.5,2.1-1.3,3c-1.4,1.9-3.1,4-4.9,6.5c-7.4,9.8-18.3,24.1-31.9,42l-0.3-0.2l0.2-0.3l0.1-0.1l0,0
					l0,0c0,0,0,0,0.1,0c0.3,0,0.2,0.3,0.2,0.2l0,0l0,0l0,0v0.1c-0.1,0.2-0.2,0.4-0.3,0.5c-0.2,0.4-0.4,0.8-0.6,1.2l-0.1,0.2v0.1l0,0
					l-0.1,0.1c-0.1,0-0.1-0.1-0.1-0.1v-0.1V394c0-0.1,0-0.1,0.1-0.2c0,0,0,0,0.1-0.1c0,0,0,0,0.1,0c0,0,0,0,0.1,0s0.1,0.1,0.1,0.1
					c0,0.1,0,0,0,0.1s0,0.1,0,0.1c-0.1,0.2-0.1,0.5-0.2,0.7c-0.1,0.5-0.2,0.9-0.3,1.4l-0.3-0.1c0-0.1,0-0.2,0-0.3l0,0l0,0l0,0l0,0
					l0,0c0,0,0,0,0.1-0.1c0.1,0,0.2,0.1,0.2,0.1l0,0l0,0l0,0l0,0l0,0l0,0v0.2c0,0.2,0,0.4,0,0.6c0,0.4,0,0.9,0.1,1.3h-0.3
					c0-0.1,0-0.2,0-0.3l0,0l0,0l0,0l0,0l0,0l0,0c-0.3-0.1,0.4-0.2,0.3,0l0,0v0.1v0.2c0,0.2,0.1,0.4,0.2,0.7c0.1,0.5,0.3,0.9,0.4,1.4
					l-0.3,0.1l-0.1-0.3l0,0l0,0l0,0l0,0c-0.1,0.1,0.2-0.3,0.3-0.1l0,0l0,0v0.1l0.1,0.1c0.1,0.2,0.2,0.4,0.3,0.5
					c0.2,0.4,0.5,0.7,0.7,1.1l0.1,0.2c0,0,0,0,0,0.1c0,0,0,0,0,0.1c0,0,0,0-0.1,0.1s-0.2,0-0.2,0l0,0l0,0l-0.1-0.1l-0.1-0.1l0,0l0,0
					v-0.1c0,0,0-0.1,0.1-0.2c0.1,0,0.1,0,0.1,0h0.1c0.1,0.1,0.1,0.1,0.1,0.1c0.2,0.2,0.3,0.3,0.5,0.5c0.3,0.3,0.7,0.6,1,0.9
					l-0.2,0.3l-0.2-0.2l0,0l0,0l0,0c0,0,0,0,0-0.2c0.1-0.1,0.2-0.1,0.2-0.1c0.1,0,0.1,0,0.1,0l0,0h0.1l0.1,0.1
					c0.2,0.1,0.3,0.2,0.5,0.3c0.4,0.2,0.8,0.4,1.2,0.6l-0.1,0.3l-0.2-0.1h-0.1l0,0l0,0l0,0c0,0-0.1,0-0.1-0.1c0,0-0.1,0,0-0.2
					c0.2-0.2,0.2-0.1,0.2-0.1l0,0l0,0l0,0h0.1l0.2,0.1c0.2,0.1,0.5,0.1,0.7,0.2s0.5,0.1,0.8,0.2c0.1,0,0.2,0,0.4,0c0,0,0.1,0,0,0
					c0,0,0,0-0.1,0c0,0-0.1,0.1-0.1,0.2c0.1,0.1,0.1,0.1,0.1,0.1l0,0l0,0l0,0l0,0h-0.1H172v-0.4c27.1-0.3,59.1-0.6,94.6-0.9
					c17.7-0.2,36.3-0.4,55.6-0.5c9.6-0.1,19.4-0.2,29.3-0.3c5,0,10-0.1,15-0.1c2.5,0,5,0,7.6-0.1c1.3,0,2.5,0,3.8,0
					c1.4,0.1,2.6,1.2,3,2.5c0.2,0.7,0.3,1.4,0,2.1c-0.2,0.7-0.7,1.3-1.2,1.7c-0.6,0.4-1.2,0.7-1.9,0.7h-2c-2.6,0-5.2,0-7.8,0.1
					c-5.2,0-10.3,0.1-15.4,0.1c-10.2,0.1-20.2,0.2-30.1,0.3c-19.7,0.2-38.8,0.4-56.9,0.5c-18.1,0.2-35.4,0.3-51.5,0.5
					c-8.1,0.1-15.9,0.1-23.3,0.2c-3.7,0-7.4,0.1-11,0.1c-1.8,0-3.6,0-5.3,0c-1.8,0-3.5-0.1-5.2-0.6s-3.2-1.3-4.6-2.3
					c-1.3-1-2.5-2.3-3.4-3.7c-1.8-2.8-2.5-6.1-2.1-9.2c0.2-1.5,0.6-3,1.3-4.4s1.6-2.5,2.5-3.7c1.8-2.3,3.5-4.6,5.1-6.7
					c6.6-8.7,12.3-16.1,17-22.2s8.3-10.8,10.7-14c1.2-1.6,2.2-2.8,2.8-3.6C198.6,339.2,198.9,338.8,198.9,338.8s-0.3,0.4-0.9,1.3
					c-0.6,0.8-1.6,2.1-2.8,3.7c-2.4,3.2-6,8-10.7,14.1c-4.6,6.1-10.3,13.6-16.9,22.3c-1.6,2.2-3.4,4.4-5.1,6.7
					c-0.9,1.2-1.8,2.3-2.5,3.6c-0.7,1.3-1.1,2.8-1.3,4.3c-0.4,3,0.3,6.3,2.1,9c0.9,1.4,2,2.6,3.3,3.6s2.8,1.7,4.5,2.2
					c1.6,0.5,3.3,0.6,5.1,0.6s3.5,0,5.3-0.1c3.6,0,7.3-0.1,11-0.1c7.5-0.1,15.3-0.2,23.3-0.2c16.1-0.2,33.4-0.3,51.5-0.5
					s37.2-0.4,56.9-0.6c9.9-0.1,19.9-0.2,30.1-0.3c5.1,0,10.2-0.1,15.4-0.1c2.6,0,5.2,0,7.8-0.1h1.9c0.6,0,1.2-0.3,1.7-0.6
					c0.5-0.4,0.9-0.9,1.1-1.4c0.2-0.6,0.2-1.2,0-1.8c-0.3-1.1-1.4-2-2.5-2.1c-1.2,0-2.5,0-3.8,0c-2.5,0-5.1,0-7.6,0.1
					c-5,0-10,0.1-15,0.1c-9.9,0.1-19.7,0.2-29.3,0.3c-19.3,0.2-37.8,0.4-55.6,0.5c-35.5,0.3-67.5,0.7-94.6,0.8v-0.4h0.2h0.1l0,0l0,0
					l0,0l0,0c0,0,0.1,0,0.1,0.1s-0.1,0.2-0.1,0.2c-0.1,0-0.1,0-0.1,0c-0.1,0-0.1,0-0.1,0c-0.1,0-0.3,0-0.4,0
					c-0.3-0.1-0.5-0.1-0.8-0.2s-0.5-0.1-0.7-0.2l-0.2-0.1h-0.1l0,0l0,0l0,0c0,0,0.1,0,0.1-0.1s-0.1,0,0-0.1l0.1-0.1l0,0l0,0l0,0l0,0
					h0.1l0.2,0.1l-0.1,0.3c-0.4-0.2-0.8-0.4-1.2-0.6c-0.2-0.1-0.4-0.2-0.6-0.4l-0.1-0.1h-0.1l0,0c0,0,0,0,0.1,0c0,0,0.1,0,0.1-0.1
					l0,0c-0.1,0,0,0,0.1-0.1s0,0,0,0l0,0l0,0l0,0l0.2,0.2l-0.2,0.3c-0.3-0.3-0.7-0.6-1-1c-0.2-0.2-0.3-0.3-0.5-0.5l0,0
					c0,0-0.1,0.1,0.1-0.1c0-0.1,0,0,0.1-0.1s0.1,0,0.1,0l0,0l0.1,0.1l0,0c-0.1,0.2-0.3,0.2-0.3,0.2l-0.1-0.1
					c-0.2-0.4-0.5-0.8-0.7-1.1c-0.1-0.2-0.2-0.4-0.3-0.6l-0.1-0.1v-0.1c0,0,0,0,0.1,0l0,0c0.1,0,0.1-0.1,0.1-0.1s0.2-0.1,0.1,0l0,0
					l0,0l0,0l0.1,0.3l-0.3,0.1c-0.2-0.5-0.3-0.9-0.5-1.4c-0.1-0.2-0.1-0.5-0.2-0.7v-0.2v-0.1h0.1c0,0,0.2,0,0.1,0c0,0,0,0,0.1,0
					s0,0,0,0l0,0l0,0l0,0l0,0c0,0.1,0,0.2,0,0.3h-0.3c0-0.4-0.1-0.9-0.1-1.3c0-0.2,0-0.4,0-0.6v-0.1l0,0c0,0-0.1,0,0.2,0
					c0.2,0.1,0.2,0,0.2,0.1l0,0c0,0.1,0,0.2,0,0.3l-0.3-0.1c0.1-0.5,0.2-1,0.3-1.4c0.1-0.2,0.1-0.5,0.2-0.7v-0.1l0,0h0.1
					c0,0,0.1,0,0,0c0,0,0,0.1,0.1,0.1s0.1,0,0.1,0l0,0l-0.1,0.1v0.1c0,0-0.1-0.1-0.2,0c0,0,0-0.1,0,0l-0.1-0.1l0,0l0.1-0.1
					c0.2-0.4,0.4-0.8,0.7-1.2c0.1-0.2,0.2-0.4,0.3-0.6v-0.1l0,0l0,0c-0.1,0,0.3,0.1,0.1,0.1c0-0.1-0.1,0.1,0.1,0.1
					c0.1,0,0.1,0,0.1,0l0,0l0,0l-0.1,0.1l-0.2,0.3l-0.3-0.2c13.7-17.9,24.6-32.2,32-41.9c1.9-2.4,3.5-4.6,4.9-6.5
					c0.8-0.9,1.3-1.9,1.3-2.9s-0.5-1.8-1.1-2.3c-1.3-1-2.7-0.8-3.4-0.5C199.2,338.4,199,338.8,198.9,338.8z"/>
			</g>
		</g>
	</g>
	<g>
		<ellipse class="st8" cx="352.8" cy="433.6" rx="22.2" ry="22.2"/>
		<path class="st7" d="M368,433.5c0.1,8.4-6.7,15.3-15,15.3c-8.4,0.1-15.3-6.7-15.3-15c-0.1-8.4,6.7-15.3,15-15.3
			C361.1,418.3,367.9,425.1,368,433.5z"/>
		<path class="st9" d="M337.8,398.7c-0.2,0.2-0.1,5.9,0,10.1c0.1,2.5,2.2,4.5,4.7,4.5h1.2l0.8,20.1c0.2,4.5,3.9,8.1,8.4,8.1l0,0
			c3.3,0,6.3-2,7.6-5.1c3.6-8.5,10.5-24.8,10.5-24.8l-0.1-12.8L337.8,398.7z"/>
		<path class="st8" d="M356.7,433.6c0,2.1-1.7,3.9-3.8,3.9c-2.1,0-3.9-1.7-3.9-3.8c0-2.1,1.7-3.9,3.8-3.9
			C354.9,429.7,356.7,431.4,356.7,433.6z"/>
		<g class="st10">
			<path class="st4" d="M341.3,416.7c-3.6,1.7-6.4,5-7.7,8.7c-0.2,0.5-0.3,1.1-0.3,1.6s0.4,1.1,0.9,1.2c0.5,0.2,1.1-0.1,1.5-0.5
				s0.6-0.9,0.9-1.4c0.9-1.8,2.2-3.4,3.7-4.7c0.6-0.5,1.3-1,1.7-1.6c0.5-0.6,0.8-1.4,0.6-2.2s-1-1.4-1.8-1.1"/>
		</g>
		<path class="st11" d="M353.9,451.2c-1.1,0.1-2,0.8-2.4,1.8c-0.2,0.6-0.2,1.1,0.5,1.4c1.7,0.7,11.6-0.7,17.2-8c4.6-6,5-12.8,4-13.3
			c-0.9-0.5-2.2,0-2.7,0.4c-0.4,0.4-0.1,7.7-5.9,12.9C360.4,450.1,356,451,353.9,451.2z"/>
		<g>
			<path class="st8" d="M369.8,412.8c0,0.1-5.9,0.3-13.1,0.4s-13.1,0-13.1-0.1s5.9-0.3,13.1-0.4
				C363.9,412.6,369.8,412.7,369.8,412.8z"/>
		</g>
		<g class="st10">
			<path d="M368.4,417.8c1.5-3.6,2.6-6.2,2.6-6.2l-0.1-12.8l-33.1-0.1c-0.2,0.2-0.1,5.9,0,10.1c0.1,2.5,2.2,4.5,4.7,4.5h1.2v0.1
				c-7.8,3.5-13.2,11.4-13.1,20.4c0.1,12.2,10.1,22.1,22.4,22c12.2-0.1,22.1-10.1,22-22.4C374.9,427.3,372.4,421.8,368.4,417.8z"/>
		</g>
	</g>
	<g>
		<ellipse class="st8" cx="352.8" cy="433.6" rx="22.2" ry="22.2"/>
		<path class="st7" d="M368,433.5c0.1,8.4-6.7,15.3-15,15.3c-8.4,0.1-15.3-6.7-15.3-15c-0.1-8.4,6.7-15.3,15-15.3
			C361.1,418.3,367.9,425.1,368,433.5z"/>
		<path class="st9" d="M337.8,398.7c-0.2,0.2-0.1,5.9,0,10.1c0.1,2.5,2.2,4.5,4.7,4.5h1.2l0.8,20.1c0.2,4.5,3.9,8.1,8.4,8.1l0,0
			c3.3,0,6.3-2,7.6-5.1c3.6-8.5,10.5-24.8,10.5-24.8l-0.1-12.8L337.8,398.7z"/>
		<path class="st8" d="M356.7,433.6c0,2.1-1.7,3.9-3.8,3.9c-2.1,0-3.9-1.7-3.9-3.8c0-2.1,1.7-3.9,3.8-3.9
			C354.9,429.7,356.7,431.4,356.7,433.6z"/>
		<g class="st10">
			<path class="st4" d="M341.3,416.7c-3.6,1.7-6.4,5-7.7,8.7c-0.2,0.5-0.3,1.1-0.3,1.6s0.4,1.1,0.9,1.2c0.5,0.2,1.1-0.1,1.5-0.5
				s0.6-0.9,0.9-1.4c0.9-1.8,2.2-3.4,3.7-4.7c0.6-0.5,1.3-1,1.7-1.6c0.5-0.6,0.8-1.4,0.6-2.2s-1-1.4-1.8-1.1"/>
		</g>
		<path class="st11" d="M353.9,451.2c-1.1,0.1-2,0.8-2.4,1.8c-0.2,0.6-0.2,1.1,0.5,1.4c1.7,0.7,11.6-0.7,17.2-8c4.6-6,5-12.8,4-13.3
			c-0.9-0.5-2.2,0-2.7,0.4c-0.4,0.4-0.1,7.7-5.9,12.9C360.4,450.1,356,451,353.9,451.2z"/>
		<g>
			<path class="st8" d="M369.8,412.8c0,0.1-5.9,0.3-13.1,0.4s-13.1,0-13.1-0.1s5.9-0.3,13.1-0.4
				C363.9,412.6,369.8,412.7,369.8,412.8z"/>
		</g>
		<g class="st10">
			<path d="M368.4,417.8c1.5-3.6,2.6-6.2,2.6-6.2l-0.1-12.8l-33.1-0.1c-0.2,0.2-0.1,5.9,0,10.1c0.1,2.5,2.2,4.5,4.7,4.5h1.2v0.1
				c-7.8,3.5-13.2,11.4-13.1,20.4c0.1,12.2,10.1,22.1,22.4,22c12.2-0.1,22.1-10.1,22-22.4C374.9,427.3,372.4,421.8,368.4,417.8z"/>
		</g>
	</g>
	<g>
		
			<ellipse transform="matrix(0.4966 -0.868 0.868 0.4966 -281.6635 384.7238)" class="st8" cx="190.8" cy="435.2" rx="22.2" ry="22.2"/>
		
			<ellipse transform="matrix(0.3242 -0.946 0.946 0.3242 -282.7123 474.6362)" class="st7" cx="190.8" cy="435.2" rx="15.2" ry="15.2"/>
		<path class="st9" d="M175.8,400.3c-0.2,0.2-0.1,5.9,0,10.1c0.1,2.5,2.2,4.5,4.7,4.5h1.2l0.8,20.1c0.2,4.5,3.9,8.1,8.4,8.1l0,0
			c3.3,0,6.3-2,7.6-5.1c3.6-8.5,10.5-24.8,10.5-24.8l-0.1-12.8L175.8,400.3z"/>
		<g class="st10">
			<path class="st4" d="M179.3,418.3c-3.6,1.7-6.4,5-7.7,8.7c-0.2,0.5-0.3,1.1-0.3,1.6c0.1,0.5,0.4,1.1,0.9,1.2
				c0.5,0.2,1.1-0.1,1.5-0.5s0.6-0.9,0.9-1.4c0.9-1.8,2.2-3.4,3.7-4.7c0.6-0.5,1.3-1,1.7-1.6c0.5-0.6,0.8-1.4,0.6-2.2
				c-0.2-0.8-1-1.4-1.8-1.1"/>
		</g>
		<path class="st11" d="M191.9,452.7c-1.1,0.1-2,0.8-2.4,1.8c-0.2,0.6-0.2,1.1,0.5,1.4c1.7,0.7,11.6-0.7,17.2-8c4.6-6,5-12.8,4-13.3
			c-0.9-0.5-2.2,0-2.7,0.4c-0.4,0.4-0.1,7.7-5.9,12.9C198.4,451.7,194,452.5,191.9,452.7z"/>
		<g>
			<path class="st8" d="M207.7,414.4c0,0.1-5.9,0.3-13.1,0.4c-7.2,0.1-13.1,0-13.1-0.1s5.9-0.3,13.1-0.4
				C201.9,414.2,207.7,414.3,207.7,414.4z"/>
		</g>
		<g class="st10">
			<path d="M206.4,419.4c1.5-3.6,2.6-6.2,2.6-6.2l-0.1-12.8l-33.1-0.1c-0.2,0.2-0.1,5.9,0,10.1c0.1,2.5,2.2,4.5,4.7,4.5h1.2v0.1
				c-7.8,3.5-13.2,11.4-13.1,20.4c0.1,12.2,10.1,22.1,22.4,22c12.2-0.1,22.1-10.1,22-22.4C212.9,428.9,210.4,423.3,206.4,419.4z"/>
		</g>
		<path class="st4" d="M194.7,435.1c0,2.1-1.7,3.9-3.8,3.9s-3.9-1.7-3.9-3.8c0-2.1,1.7-3.9,3.8-3.9
			C192.9,431.3,194.7,433,194.7,435.1z"/>
	</g>
	<g>
		<g>
			<path class="st7" d="M143.6,403.2c0.1-0.1,0.2-0.3,0.2-0.3l0,0C143.7,403.1,143.7,403.1,143.6,403.2L143.6,403.2z"/>
			<g>
				<path class="st8" d="M143.6,403.2C143.6,403.3,143.5,403.3,143.6,403.2L143.6,403.2c-0.1-0.2-0.1-0.3,0-0.4l0,0l0,0l0,0l0.3,0.4
					l0,0l0,0l0,0l0,0l0,0l0,0l0,0l0,0h-0.1C143.7,403.3,143.6,403.3,143.6,403.2C143.5,403.3,143.5,403.3,143.6,403.2
					s0.1-0.1,0.1-0.3c0-0.1,0-0.1,0-0.1s0,0,0-0.1l0,0l0,0l0,0l0,0l0,0l0,0l0,0l0,0l0.3,0.4l0,0l0.1-0.1
					C143.9,403.2,143.8,403.3,143.6,403.2L143.6,403.2L143.6,403.2z"/>
			</g>
		</g>
		<g>
			<path class="st7" d="M390.3,412.6c-1.7,0-3.4,0-5.2,0c-4.7,0-9.5,0.1-14.2,0.1c-7.1,0.1-14.3,0.1-21.4,0.2
				c-8.9,0.1-17.8,0.2-26.6,0.3c-9.9,0.1-19.9,0.2-29.8,0.3c-10.5,0.1-21,0.2-31.5,0.3c-10.2,0.1-20.5,0.2-30.7,0.3
				c-9.5,0.1-18.9,0.2-28.4,0.3c-8,0.1-16.1,0.2-24.1,0.2c-5.9,0.1-11.9,0.1-17.8,0.2c-3.2,0-6.4,0.1-9.6,0.1c-0.7,0-1.5,0-2.2,0
				c0,0-0.7-0.1-0.8-0.2c-0.3-0.1-0.6-0.2-0.9-0.3c0,0-0.5-0.2-0.6-0.3c-0.3-0.2-0.6-0.4-0.9-0.6c0.2,0.1-0.5-0.4-0.6-0.5
				c-0.2-0.2-0.5-0.5-0.7-0.7c-0.1-0.1-0.2-0.2-0.2-0.2s0-0.1-0.1-0.1c-0.3-0.4-0.5-0.8-0.7-1.2c-0.1-0.1-0.1-0.2-0.2-0.4l0,0
				c-0.1-0.3-0.2-0.7-0.3-1s-0.2-0.6-0.2-1c0.2,0.7,0-0.5,0-0.7c0-0.4,0-0.8,0-1.1l0,0c0-0.1,0-0.2,0.1-0.4c0.1-0.4,0.2-0.8,0.3-1.1
				c0-0.1,0.1-0.3,0.1-0.4s0.1-0.2,0.2-0.3c0.2-0.3,0.3-0.6,0.5-0.9c0,0,0.1-0.1,0.2-0.3c-0.1,0.1-0.1,0.1-0.1,0.1l0.1-0.1l0,0
				c0.1-0.1,0.1-0.2,0.2-0.2c0.1-0.1,0.1-0.2,0.2-0.3c0.6-0.8,1.3-1.7,1.9-2.5c2.3-3,4.6-6,6.9-9.1c6.1-8,12.2-16,18.3-24
				c3.4-4.5,6.7-9.2,10.3-13.5c2.5-2.9,5.5-4.8,9.3-5.6c1.8-0.4,3.7-0.6,5.5-0.9c4-0.7,8.1-1.3,12.1-2c10.7-1.8,21.3-3.7,32-5.6
				c11.9-2.1,23.8-4.2,35.7-6.3c10.6-1.9,21.1-3.8,31.7-5.6c6.6-1.2,13.2-2.4,19.8-3.4c0.6-0.1,1.3-0.2,1.9-0.3
				c2.2-0.4,2.9-0.6,3.4-2.4c0.4-1.5-0.6-3.7-2.3-4c-1.6-0.2-3.1,0.2-4.7,0.5c-2.7,0.4-5.3,0.9-8,1.4c-9,1.6-18,3.2-26.9,4.8
				c-11.7,2.1-23.3,4.1-35,6.2c-11.7,2.1-23.4,4.1-35.1,6.2c-9,1.6-18,3.1-27.1,4.6c-2.1,0.3-4.3,0.6-6.4,1.2
				c-4.1,1.3-8,3.8-10.7,7.1c-1.1,1.4-2.1,2.8-3.2,4.2c-5.5,7.2-11,14.4-16.5,21.7c-5.3,7-10.6,13.9-15.9,20.9
				c-1.5,2-3.2,3.9-4.1,6.2c-2.8,6.7,0.3,14.9,7,17.8c3.3,1.4,6.5,1.3,10,1.2c4.5,0,9-0.1,13.4-0.1c7-0.1,13.9-0.1,20.9-0.2
				c8.8-0.1,17.6-0.2,26.4-0.3c10-0.1,20.1-0.2,30.1-0.3c10.6-0.1,21.1-0.2,31.7-0.3c10.4-0.1,20.8-0.2,31.2-0.3
				c9.6-0.1,19.2-0.2,28.8-0.3c8.2-0.1,16.4-0.2,24.6-0.2c6.1-0.1,12.1-0.1,18.2-0.2c3.3,0,6.6-0.1,10-0.1c0.4,0,0.9,0,1.3,0
				C394.5,419,394.4,412.6,390.3,412.6z"/>
			<g>
				<path class="st8" d="M390.3,412.6c0,0,0.2,0,0.6,0c0.2,0,0.5,0.1,0.8,0.2c0.1,0.1,0.3,0.2,0.4,0.3c0.2,0.1,0.3,0.3,0.5,0.4
					c0.6,0.6,1,1.7,0.8,2.9c-0.1,0.6-0.4,1.3-0.9,1.8s-1.3,0.9-2.1,0.9c-6.6,0.1-16.2,0.2-28.7,0.3c-24.9,0.3-60.9,0.6-105.4,1.1
					c-22.3,0.2-46.6,0.5-72.8,0.7c-6.5,0.1-13.2,0.1-20,0.2c-3.4,0-6.8,0.1-10.2,0.1c-1.7,0-3.5,0.1-5.2-0.1s-3.5-0.6-5.1-1.5
					c-3.2-1.6-5.6-4.6-6.7-8c-1.2-3.4-1-7.3,0.6-10.6c0.8-1.6,1.9-3.1,3-4.5s2.2-2.9,3.3-4.3c2.2-2.9,4.4-5.8,6.6-8.7
					c4.5-5.9,9-11.8,13.5-17.8c2.3-3,4.6-6,6.9-9c1.2-1.5,2.3-3,3.5-4.6l1.7-2.3c0.6-0.8,1.2-1.5,1.9-2.2c2.7-2.8,6.2-4.9,9.9-6.1
					c1.9-0.6,3.9-0.8,5.8-1.1c1.9-0.3,3.9-0.7,5.8-1c7.7-1.3,15.6-2.6,23.5-4c31.5-5.6,64.2-11.3,97.6-17.2c2.6-0.5,5.2-0.9,7.9-1.4
					c0.7-0.1,1.3-0.2,2-0.1c0.7,0,1.5,0.2,2,0.7c1.1,1,1.5,2.5,1,3.9c-0.2,0.6-0.5,1.4-1.2,1.7c-0.7,0.3-1.3,0.4-2,0.6l-3.9,0.6
					c-2.6,0.4-5.2,0.9-7.8,1.3c-10.3,1.8-20.5,3.6-30.7,5.4c-20.2,3.6-40.1,7.1-59.4,10.5c-9.7,1.7-19.2,3.4-28.6,4.9
					c-2.4,0.4-4.7,0.8-7,1.2c-2.4,0.3-4.6,1-6.6,2.2c-1,0.6-1.9,1.3-2.8,2.1c-0.8,0.8-1.6,1.7-2.3,2.6c-1.5,1.8-2.9,3.6-4.3,5.5
					c-2.7,3.7-5.5,7.4-8.3,11s-5.5,7.2-8.2,10.8c-5.4,7.1-10.7,14.1-15.9,20.9l0,0c0,0.1-0.1,0.1-0.1,0.2l0,0c0,0.1,0,0.1-0.1,0.1
					l0,0l0,0l0,0l-0.3-0.3l-0.1,0.1l0,0l0,0l0,0l0,0l0,0l0.1-0.1l0.4,0.3c-0.3,0.5-0.6,1-0.8,1.5l0,0c-0.1,0.3-0.2,0.6-0.3,0.9
					s-0.2,0.6-0.2,0.9l0,0c0,0.4,0,0.8,0,1.2c0,0.2,0,0.4,0.1,0.5v0.3v0.1l0,0l0,0c0,0,0,0,0,0.1s-0.2,0.1-0.2,0.1
					c-0.1,0-0.1,0-0.1,0l0,0c0-0.1,0-0.1,0-0.1l0,0v-0.1v-0.1l0.4-0.1c0.1,0.3,0.2,0.7,0.2,1c0.1,0.3,0.2,0.6,0.3,0.9l0,0
					c0.3,0.6,0.7,1.1,1,1.7v-0.1c0.3,0.3,0.5,0.5,0.7,0.7c0.1,0.1,0.2,0.2,0.4,0.3l0.2,0.2l0.1,0.1h0.1c0,0,0,0,0.1,0.1l0,0
					c0,0,0,0,0,0.1c0,0,0,0.1-0.1,0.2s-0.2,0.1-0.2,0.1c-0.1,0,0,0-0.1,0l0,0l0.2-0.4c0.3,0.2,0.5,0.3,0.8,0.5
					c0.1,0.1,0.2,0.1,0.4,0.2l0.2,0.1h0.1h0.1l0,0l0,0l0,0l0,0c0,0,0,0,0.1,0.1c0,0,0.1,0.2-0.1,0.3c-0.1,0.1-0.1,0-0.1,0l0.1-0.4
					c0.3,0.1,0.6,0.2,0.9,0.3c0.1,0,0.3,0.1,0.4,0.1h0.2h0.1h0.1l0,0l0,0l0,0c0,0,0,0,0.1,0.1s0.1,0.2,0,0.2c0,0.1-0.1,0.1-0.1,0.1
					l-0.1-0.4c72.6-0.6,133-1.2,175.2-1.5c21.1-0.2,37.7-0.3,49.1-0.4c5.7,0,10-0.1,12.9-0.1c1.5,0,2.6,0,3.3,0
					C389.9,412.6,390.3,412.6,390.3,412.6s-0.4,0-1.1,0s-1.9,0-3.3,0c-2.9,0-7.3,0.1-12.9,0.2c-11.3,0.1-27.9,0.3-49.1,0.5
					c-42.3,0.4-102.7,1-175.3,1.7v-0.2c0,0,0,0.1-0.1,0.2l0,0l0,0l0,0h-0.1h-0.2c-0.1,0-0.3,0-0.5-0.1c-0.3-0.1-0.6-0.2-0.9-0.3
					l0.1-0.2l-0.1,0.2l0,0l0,0l0,0h-0.1l-0.2-0.1c-0.1-0.1-0.3-0.1-0.4-0.2c-0.3-0.2-0.5-0.3-0.8-0.5l0.2-0.4l0,0c0,0,0,0.1-0.1,0.2
					l0,0h-0.1l-0.1,0.1l0,0l0,0l0,0l-0.1-0.1l-0.2-0.2c-0.1-0.1-0.3-0.2-0.4-0.4c-0.2-0.2-0.5-0.5-0.7-0.7l0,0l0,0
					c-0.3-0.5-0.7-1.1-1-1.7l0,0l0,0c-0.1-0.3-0.2-0.6-0.3-1c-0.1-0.3-0.2-0.7-0.2-1l0.4-0.1v0.1v0.1c0.1,0-0.2,0.1-0.2,0.1
					s0,0-0.1,0h-0.1c-0.1,0,0,0,0,0v-0.3c0-0.2-0.1-0.4-0.1-0.6c0-0.4,0-0.8,0-1.2l0,0l0,0c0-0.3,0.1-0.6,0.2-1
					c0.1-0.3,0.2-0.6,0.3-1l0,0l0,0c0.2-0.5,0.6-1,0.9-1.6l0.4,0.3l-0.1,0.1l0,0l0,0l0,0l0,0l0,0l-0.1,0.1l-0.3-0.3l0,0l0,0l0,0
					c0-0.1,0.1-0.2,0.1-0.2l0,0c0.1-0.1,0.2-0.2,0.3-0.3l0,0c5.2-6.8,10.5-13.8,15.9-20.9c2.7-3.6,5.4-7.1,8.2-10.8
					c2.8-3.6,5.5-7.3,8.3-11c1.4-1.9,2.8-3.7,4.3-5.5c0.7-0.9,1.5-1.8,2.4-2.6c0.9-0.8,1.8-1.5,2.8-2.2c2-1.2,4.4-2,6.7-2.3
					c2.3-0.4,4.7-0.8,7-1.2c9.4-1.5,19-3.2,28.6-4.9c19.3-3.4,39.2-6.9,59.4-10.5c10.1-1.8,20.4-3.6,30.7-5.4
					c2.6-0.4,5.2-0.9,7.8-1.3l3.9-0.6c0.6-0.1,1.3-0.2,1.8-0.5s0.8-0.8,1-1.4c0.4-1.2,0-2.5-0.9-3.4c-0.5-0.4-1-0.6-1.7-0.6
					c-0.6,0-1.3,0-1.9,0.1c-2.6,0.4-5.2,0.9-7.8,1.3c-33.4,5.9-66.1,11.7-97.6,17.2c-7.9,1.3-15.7,2.7-23.5,4
					c-1.9,0.3-3.9,0.7-5.8,1c-1.9,0.3-3.9,0.5-5.7,1.1c-3.7,1.1-7.1,3.2-9.7,5.9c-0.7,0.7-1.2,1.4-1.8,2.2l-1.7,2.3
					c-1.2,1.5-2.3,3-3.5,4.6c-2.3,3-4.6,6-6.9,9c-4.6,6-9.1,11.9-13.5,17.8c-2.2,2.9-4.4,5.8-6.6,8.7c-1.1,1.4-2.2,2.9-3.3,4.3
					s-2.2,2.8-3,4.4c-1.5,3.2-1.7,6.9-0.6,10.2c1.1,3.3,3.5,6.2,6.5,7.7c1.5,0.8,3.2,1.2,4.9,1.4c1.7,0.2,3.4,0.1,5.1,0.1
					c3.4,0,6.8-0.1,10.2-0.1c6.8-0.1,13.4-0.1,20-0.2c26.2-0.2,50.6-0.5,72.8-0.7c44.5-0.4,80.5-0.7,105.4-0.9
					c12.4-0.1,22.1-0.2,28.7-0.2c0.8,0,1.6-0.3,2-0.8c0.5-0.5,0.8-1.1,0.9-1.7c0.2-1.2-0.2-2.3-0.8-2.9c-0.2-0.1-0.3-0.3-0.4-0.4
					c-0.2-0.1-0.3-0.2-0.4-0.3c-0.3-0.1-0.5-0.2-0.8-0.2C390.5,412.6,390.3,412.6,390.3,412.6z"/>
			</g>
		</g>
	</g>
	<g>
		
			<ellipse transform="matrix(0.7071 -0.7071 0.7071 0.7071 -267.705 249.8571)" class="st8" cx="167.8" cy="448.1" rx="22.2" ry="22.2"/>
		<path class="st7" d="M182.9,448c0.1,8.4-6.7,15.3-15,15.3c-8.4,0.1-15.3-6.7-15.3-15c-0.1-8.4,6.7-15.3,15-15.3
			C176,432.9,182.9,439.6,182.9,448z"/>
		<path class="st9" d="M152.7,413.2c-0.2,0.2-0.1,5.9,0,10.1c0.1,2.5,2.2,4.5,4.7,4.5h1.2l0.8,20.1c0.2,4.5,3.9,8.1,8.4,8.1l0,0
			c3.3,0,6.3-2,7.6-5.1c3.6-8.5,10.5-24.8,10.5-24.8l-0.1-12.8L152.7,413.2z"/>
		<g class="st10">
			<path class="st4" d="M156.2,431.3c-3.6,1.7-6.4,5-7.7,8.7c-0.2,0.5-0.3,1.1-0.3,1.6c0.1,0.5,0.4,1.1,0.9,1.2
				c0.5,0.2,1.1-0.1,1.5-0.5s0.6-0.9,0.9-1.4c0.9-1.8,2.2-3.4,3.7-4.7c0.6-0.5,1.3-1,1.7-1.6c0.5-0.6,0.8-1.4,0.6-2.2
				c-0.2-0.8-1-1.4-1.8-1.1"/>
		</g>
		<path class="st11" d="M168.8,465.7c-1.1,0.1-2,0.8-2.4,1.8c-0.2,0.6-0.2,1.1,0.5,1.4c1.7,0.7,11.6-0.7,17.2-8c4.6-6,5-12.8,4-13.3
			c-0.9-0.5-2.2,0-2.7,0.4c-0.4,0.4-0.1,7.7-5.9,12.9C175.3,464.7,170.9,465.5,168.8,465.7z"/>
		<g>
			<path class="st8" d="M184.7,427.4c0,0.1-5.9,0.3-13.1,0.4c-7.2,0.1-13.1,0-13.1-0.1s5.9-0.3,13.1-0.4
				C178.8,427.2,184.7,427.2,184.7,427.4z"/>
		</g>
		<path class="st4" d="M171.6,448.1c0,2.1-1.7,3.9-3.8,3.9s-3.9-1.7-3.9-3.8c0-2.1,1.7-3.9,3.8-3.9
			C169.9,444.3,171.6,446,171.6,448.1z"/>
	</g>
	<g>
		<ellipse class="st8" cx="365.7" cy="446.2" rx="22.2" ry="22.2"/>
		<ellipse class="st7" cx="365.7" cy="446.3" rx="15.2" ry="15.2"/>
		<path class="st9" d="M350.7,411.3c-0.2,0.2-0.1,5.9,0,10.1c0.1,2.5,2.2,4.5,4.7,4.5h1.2l0.8,20.1c0.2,4.5,3.9,8.1,8.4,8.1l0,0
			c3.3,0,6.3-2,7.6-5.1c3.6-8.5,10.5-24.8,10.5-24.8l-0.1-12.8L350.7,411.3z"/>
		<g class="st10">
			<path class="st4" d="M354.2,429.4c-3.6,1.7-6.4,5-7.7,8.7c-0.2,0.5-0.3,1.1-0.3,1.6c0.1,0.5,0.4,1.1,0.9,1.2
				c0.5,0.2,1.1-0.1,1.5-0.5s0.6-0.9,0.9-1.4c0.9-1.8,2.2-3.4,3.7-4.7c0.6-0.5,1.3-1,1.7-1.6c0.5-0.6,0.8-1.4,0.6-2.2
				c-0.2-0.8-1-1.4-1.8-1.1"/>
		</g>
		<path class="st11" d="M366.8,463.8c-1.1,0.1-2,0.8-2.4,1.8c-0.2,0.6-0.2,1.1,0.5,1.4c1.7,0.7,11.6-0.7,17.2-8c4.6-6,5-12.8,4-13.3
			c-0.9-0.5-2.2,0-2.7,0.4c-0.4,0.4-0.1,7.7-5.9,12.9C373.3,462.8,368.9,463.6,366.8,463.8z"/>
		<g>
			<path class="st8" d="M382.6,425.5c0,0.1-5.9,0.3-13.1,0.4s-13.1,0-13.1-0.1s5.9-0.3,13.1-0.4
				C376.8,425.3,382.6,425.3,382.6,425.5z"/>
		</g>
		<path class="st4" d="M369.6,446.2c0,2.1-1.7,3.9-3.8,3.9c-2.1,0-3.9-1.7-3.9-3.8c0-2.1,1.7-3.9,3.8-3.9
			C367.8,442.4,369.6,444.1,369.6,446.2z"/>
	</g>
	<g>
		<g>
			<path class="st7" d="M52,130.7c9.7,3.8,19.5,7.7,29,12.2c1.1,0.5,2.2,1.1,3.3,1.6c0.4,0.2,0.9,0.5,1.3,0.7c0.6,0.4,0.2,0.3,0-0.1
				c0.2,0.3,0.7,0.6,0.9,0.9c0.1,0.1,0.2,0.2,0.3,0.3c0.3,0.3,0.3,0.4,0,0c0.2,0.3,0.5,0.6,0.8,1c0.6,0.8,1.2,1.6,1.9,2.5
				c3.9,5.3,7.5,10.7,11.2,16.1c5.4,8,10.6,16,15.9,24c6.3,9.6,12.6,19.3,18.8,29c6.6,10.3,13.3,20.6,19.9,31
				c6.4,10,12.8,20,19.1,30c5.5,8.7,11,17.4,16.6,26.1c4,6.4,8.1,12.7,12.1,19.1c1.9,3,3.8,6.1,5.8,9.1c0.1,0.1,0.2,0.3,0.2,0.4
				c1.5,2.4,5.2,0.1,3.7-2.3c-1.3-2.1-2.7-4.2-4-6.4c-3.6-5.7-7.2-11.3-10.7-17c-5.2-8.3-10.5-16.5-15.7-24.8
				c-6.2-9.8-12.5-19.6-18.7-29.4c-6.6-10.4-13.3-20.7-19.9-31.1c-6.4-9.9-12.8-19.9-19.3-29.8c-5.6-8.5-11.1-17-16.8-25.5
				c-4.1-6.1-8.2-12.2-12.4-18.2c-1.3-1.8-2.6-3.6-4-5.4c-0.9-1.1-1.8-2.4-3-3.2c-1.6-1.1-3.5-1.9-5.3-2.7c-2.9-1.4-5.8-2.6-8.8-3.9
				c-5.7-2.4-11.4-4.8-17.1-7c-1-0.4-1.9-0.8-2.9-1.1c-1.1-0.4-2.3-0.3-2.9,0.9C50.6,128.7,50.9,130.3,52,130.7L52,130.7z"/>
			<g>
				<path class="st8" d="M52,130.7c0,0-0.6-0.1-1-1c-0.2-0.4-0.3-1-0.1-1.7c0.2-0.7,0.9-1.3,1.9-1.4c0.5,0,1,0.1,1.4,0.3
					c0.5,0.2,1,0.4,1.5,0.6c1,0.4,2.2,0.9,3.4,1.4c2.4,1,5.3,2.2,8.4,3.5c3.2,1.3,6.7,2.7,10.5,4.4c1.9,0.9,3.9,1.7,6,2.7
					c1,0.5,2.1,1,3.1,1.6c0.5,0.3,1,0.6,1.5,1s0.9,0.8,1.3,1.3c1.5,1.9,3,4,4.6,6.1c1.5,2.1,3,4.4,4.6,6.6c3.1,4.6,6.5,9.4,9.9,14.5
					c13.6,20.5,29.5,45,47,72.3s36.7,57.5,56.7,89.2c0.2,0.3,0.4,0.7,0.5,1.1s0.1,0.9-0.1,1.3c-0.3,0.8-1.1,1.4-1.9,1.5
					c-0.4,0.1-0.9,0-1.3-0.1c-0.4-0.2-0.8-0.5-1-0.8c-0.5-0.7-0.8-1.3-1.2-1.9c-1.6-2.6-3.3-5.2-4.9-7.7c-3.2-5.1-6.5-10.2-9.6-15.2
					c-6.4-10.1-12.6-19.9-18.7-29.5c-6.1-9.6-12-18.9-17.8-27.9s-11.4-17.7-16.7-26.1c-5.3-8.4-10.6-16.3-15.5-24
					c-2.5-3.8-4.9-7.5-7.2-11.1c-2.4-3.6-4.7-7.1-6.9-10.4c-8.9-13.5-16.7-25.2-23.6-34.5l0.2-0.2l0.1,0.1l0.1,0.1l0,0l0,0l0,0l0,0
					c0,0,0,0-0.1,0c-0.2,0-0.2,0.2-0.1,0.2l0,0l0,0c-0.1-0.1-0.1-0.2-0.2-0.2c-0.1-0.2-0.3-0.3-0.4-0.5c-0.3-0.3-0.6-0.5-0.8-0.8
					l0.2-0.1c0,0.1,0.1,0.1,0.2,0.2c0,0,0.1,0.1,0.1,0c0,0,0-0.1-0.1,0.1v0.1l0,0l0,0c-0.1-0.1-0.3-0.2-0.5-0.3
					c-0.3-0.2-0.6-0.4-1-0.5c-0.7-0.3-1.3-0.6-1.9-1c-1.3-0.6-2.5-1.2-3.7-1.8c-2.4-1.1-4.7-2.1-6.9-3.1c-4.3-1.9-7.9-3.3-10.8-4.5
					c-2.9-1.2-5.2-2.1-6.7-2.7c-0.7-0.3-1.3-0.5-1.7-0.7C52.2,130.8,52,130.7,52,130.7s0.8,0.3,2.3,0.9c1.5,0.6,3.8,1.5,6.7,2.6
					c2.9,1.2,6.6,2.7,10.9,4.5c2.1,0.9,4.4,1.9,6.9,3c1.2,0.6,2.5,1.1,3.8,1.8c0.6,0.3,1.3,0.6,2,1c0.3,0.2,0.7,0.4,1,0.5
					c0.2,0.1,0.3,0.2,0.5,0.3h0.1l0,0v0.1c-0.1,0.2-0.2,0.1-0.2,0.1c-0.1,0-0.1-0.1-0.2-0.1c-0.1-0.1-0.2-0.1-0.2-0.3l0.2-0.1
					c0.2,0.3,0.5,0.5,0.8,0.8c0.2,0.2,0.3,0.3,0.4,0.5c0.1,0.1,0.1,0.2,0.2,0.3l0,0l0,0c0,0,0,0.2-0.1,0.2s-0.1,0-0.1,0l0,0l0,0l0,0
					l0,0l-0.1-0.1l-0.1-0.1l0.2-0.2c7,9.3,14.8,21,23.7,34.5c2.2,3.4,4.5,6.8,6.9,10.4c2.3,3.6,4.7,7.3,7.2,11.1
					c4.9,7.6,10.2,15.6,15.5,23.9c5.4,8.4,11,17.1,16.7,26.1c5.8,9,11.7,18.3,17.8,27.9s12.3,19.4,18.7,29.5
					c3.2,5,6.4,10.1,9.6,15.2c1.6,2.6,3.2,5.1,4.9,7.7c0.4,0.6,0.8,1.3,1.2,1.9c0.2,0.3,0.5,0.5,0.8,0.6s0.6,0.2,1,0.1
					c0.7-0.1,1.3-0.6,1.5-1.2c0.3-0.6,0.1-1.3-0.4-1.9c-20-31.7-39.1-61.8-56.6-89.2s-33.4-51.9-46.9-72.4
					c-3.4-5.1-6.7-9.9-9.8-14.5c-1.6-2.3-3-4.5-4.6-6.6s-3-4.2-4.5-6c-0.4-0.5-0.8-0.9-1.2-1.3c-0.4-0.4-1-0.7-1.5-1
					c-1-0.6-2.1-1.1-3.1-1.6c-2.1-1-4.1-1.8-6-2.7c-3.8-1.7-7.3-3.2-10.5-4.5s-6-2.5-8.4-3.5c-1.2-0.5-2.4-1-3.4-1.4
					s-1.9-0.9-2.9-0.9c-0.9,0-1.6,0.7-1.8,1.3c-0.2,0.6-0.1,1.2,0,1.7C51.4,130.6,52,130.7,52,130.7z"/>
			</g>
		</g>
	</g>
	<g>
		<g>
			<g>
				<path class="st7" d="M377.5,193.4c0.3,8.2,0.7,16.4,1.1,24.6c0.4,9.3,0.9,18.6,1.4,27.8c0.5,8.8,0.9,17.6,1.4,26.4
					c0.4,6.8,0.7,13.5,1.1,20.3c0.2,3,0.3,6.1,0.5,9.1v0.1c0.1,1.4,2.2,1.3,2.2-0.1c-0.1-2.5-0.3-5-0.4-7.5
					c-0.4-6.4-0.7-12.7-1-19.1c-0.5-8.6-0.9-17.3-1.4-25.9c-0.5-9.4-1-18.7-1.4-28.1c-0.4-8.4-0.8-16.7-1.1-25.1
					c0-0.9-0.1-1.8-0.1-2.7C379.6,192,377.4,192,377.5,193.4L377.5,193.4z"/>
				<g>
					<path class="st8" d="M377.5,193.4c0,0-0.1-0.2,0.1-0.6c0.1-0.4,0.8-0.8,1.5-0.4c0.4,0.2,0.6,0.6,0.6,1.1s0,1,0.1,1.5
						c0.1,1.1,0.1,2.3,0.2,3.8c0.3,5.7,0.7,13.9,1.2,23.9c1.1,20.2,2.6,48.1,4.2,79c0,0.3-0.1,0.6-0.2,0.9c-0.2,0.3-0.5,0.4-0.8,0.5
						c-0.6,0.1-1.2-0.1-1.5-0.7c-0.1-0.3-0.2-0.6-0.2-0.8v-0.7l-0.1-1.4c-0.1-1.9-0.2-3.8-0.3-5.7c-0.2-3.8-0.4-7.5-0.6-11.1
						c-0.4-7.3-0.8-14.3-1.1-21c-0.7-13.4-1.2-25.4-1.7-35.5s-0.8-18.3-1-24c-0.1-2.8-0.2-5-0.2-6.5c0-0.7,0-1.3,0-1.7
						C377.5,193.6,377.5,193.4,377.5,193.4s0,0.2,0.1,0.6c0,0.4,0.1,1,0.1,1.7c0.1,1.5,0.2,3.7,0.3,6.5c0.3,5.7,0.7,13.8,1.2,23.9
						c0.5,10.1,1.2,22.1,1.9,35.5c0.4,6.7,0.7,13.7,1.1,21c0.2,3.6,0.4,7.3,0.6,11.1c0.1,1.9,0.2,3.8,0.3,5.7l0.1,1.4
						c0,0.5,0,1,0.1,1.3c0.2,0.3,0.6,0.5,1,0.4s0.6-0.4,0.6-0.8c-1.7-30.8-3.1-58.8-4.1-79c-0.4-10.1-0.8-18.3-1-24
						c-0.1-1.4-0.1-2.7-0.1-3.8c0-0.5,0-1,0-1.5s-0.2-0.8-0.5-1c-0.7-0.3-1.3,0-1.4,0.4C377.5,193.2,377.5,193.4,377.5,193.4z"/>
				</g>
			</g>
		</g>
		<g>
			<g>
				<path class="st7" d="M351.3,191c0.3,8.7,0.7,17.5,1.2,26.2c0.5,9.8,1.1,19.6,1.8,29.4c0.6,9.2,1.3,18.5,1.9,27.7
					c0.5,7,1,14.1,1.6,21.1c0.2,3.2,0.4,6.3,0.7,9.5v0.1c0.1,1.4,2.3,1.3,2.2-0.1c-0.2-2.6-0.4-5.2-0.6-7.8c-0.5-6.7-1-13.3-1.5-20
					c-0.7-9.1-1.3-18.1-1.9-27.2c-0.7-9.8-1.3-19.7-1.8-29.5c-0.5-8.9-1-17.8-1.3-26.7c0-1-0.1-1.9-0.1-2.9
					C353.4,189.6,351.2,189.6,351.3,191L351.3,191z"/>
				<g>
					<path class="st8" d="M351.3,191c0,0-0.1-0.2,0.1-0.6c0.2-0.4,0.9-0.8,1.6-0.3c0.4,0.2,0.5,0.7,0.5,1.2s0,1,0.1,1.6
						c0,1.1,0.1,2.5,0.2,4c0.3,6,0.7,14.6,1.3,25.2c1.3,21.2,3.3,50.6,5.9,83c0,0.3,0,0.6-0.3,0.9c-0.2,0.3-0.5,0.4-0.8,0.4
						c-0.6,0.1-1.3-0.2-1.5-0.8c-0.1-0.3-0.1-0.6-0.1-0.8l-0.1-0.8l-0.1-1.5c-0.2-2-0.3-4-0.5-6c-0.3-3.9-0.6-7.8-0.9-11.7
						c-0.6-7.6-1.1-15-1.6-22s-1-13.7-1.3-19.9c-0.4-6.2-0.7-12.1-1-17.4c-0.2-2.7-0.3-5.2-0.4-7.6c-0.1-2.4-0.2-4.7-0.3-6.8
						c-0.2-4.2-0.3-7.9-0.4-10.8c-0.1-3-0.2-5.3-0.3-6.9c0-0.8,0-1.4-0.1-1.8C351.3,191.2,351.3,191,351.3,191s0,0.2,0.1,0.6
						c0,0.4,0.1,1,0.1,1.8c0.1,1.6,0.2,3.9,0.4,6.8c0.1,3,0.3,6.6,0.5,10.8c0.1,2.1,0.2,4.4,0.3,6.8c0.2,2.4,0.3,4.9,0.5,7.6
						c0.3,5.3,0.7,11.1,1.1,17.4c0.4,6.2,0.9,12.9,1.4,19.9s1,14.4,1.6,22c0.3,3.8,0.6,7.7,0.9,11.6c0.2,2,0.3,4,0.5,6l0.1,1.5
						l0.1,0.8c0,0.3,0,0.5,0.1,0.7c0.1,0.4,0.5,0.6,0.9,0.5s0.7-0.4,0.6-0.8c-2.6-32.4-4.5-61.7-5.7-83c-0.5-10.6-0.9-19.2-1.1-25.2
						c-0.1-1.5-0.1-2.8-0.1-4c0-0.6,0-1.1,0-1.6s-0.1-0.9-0.4-1.1c-0.7-0.4-1.4,0-1.5,0.3C351.2,190.8,351.3,191,351.3,191z"/>
				</g>
			</g>
		</g>
		<g>
			<g>
				<path class="st7" d="M325.1,191.8c1.2,15.7,2.6,31.3,4.1,46.9s3.1,31.1,4.8,46.6c1,8.7,2,17.4,3.1,26.1c0.1,0.6,0.5,1.1,1.1,1
					c0.5,0,1.1-0.5,1-1.1c-1.9-15.6-3.7-31.2-5.3-46.8c-1.6-15.5-3.1-31.1-4.5-46.7c-0.8-8.7-1.5-17.5-2.2-26.2
					C327.2,190.3,325,190.4,325.1,191.8L325.1,191.8z"/>
				<g>
					<path class="st8" d="M325.1,191.8c0,0-0.1-0.2,0.1-0.6c0.2-0.4,1-0.8,1.7-0.2c0.2,0.1,0.3,0.3,0.4,0.6c0.1,0.2,0.1,0.5,0.1,0.7
						c0,0.5,0.1,1.1,0.2,1.7c0.1,1.2,0.2,2.6,0.4,4.1c0.3,3.1,0.6,6.9,1,11.4c0.4,4.4,0.8,9.5,1.4,15c1.1,11.1,2.4,24.4,3.8,39.1
						c1.7,14.7,3.5,30.9,5.4,47.8c0.1,0.7-0.5,1.3-1.2,1.4s-1.3-0.4-1.5-1.1c-0.2-1.1-0.3-2.1-0.4-3.2c-0.2-2.1-0.5-4.2-0.7-6.2
						c-0.5-4.1-1-8.2-1.4-12.2c-0.5-4-0.9-7.9-1.3-11.8s-0.8-7.6-1.2-11.3c-1.5-14.7-3-28-3.8-39.1c-0.9-11.1-1.7-20.2-2.2-26.4
						c-0.2-3.1-0.4-5.5-0.6-7.2c-0.1-0.8-0.1-1.4-0.1-1.9C325.1,192,325.1,191.8,325.1,191.8s0,0.2,0.1,0.6c0,0.4,0.1,1.1,0.2,1.9
						c0.2,1.7,0.4,4.1,0.7,7.2c0.6,6.3,1.4,15.3,2.4,26.4c0.9,11.2,2.4,24.4,3.9,39.1c0.4,3.7,0.8,7.4,1.2,11.3
						c0.4,3.9,0.8,7.8,1.3,11.8s0.9,8.1,1.4,12.2c0.2,2.1,0.5,4.1,0.7,6.2c0.1,1,0.2,2.1,0.4,3.1c0.1,0.4,0.5,0.7,0.9,0.7
						s0.8-0.5,0.7-0.8c-1.9-17-3.7-33.1-5.4-47.8c-1.4-14.7-2.7-28-3.7-39.1c-0.6-5.6-1-10.6-1.3-15c-0.4-4.4-0.7-8.2-0.9-11.4
						c-0.1-1.6-0.2-2.9-0.3-4.1c0-0.6-0.1-1.2-0.1-1.7s0-1-0.4-1.2c-0.7-0.5-1.4-0.2-1.6,0.2C325.1,191.5,325.1,191.8,325.1,191.8z"
						/>
				</g>
			</g>
		</g>
		<g>
			<g>
				<path class="st7" d="M135.2,185.3c0.5,1.3,0.9,2.7,1.4,4c1.3,3.7,2.6,7.3,3.9,11c1.9,5.4,3.8,10.8,5.7,16.2
					c2.3,6.6,4.6,13.2,7,19.8c2.6,7.2,5.1,14.5,7.7,21.7c2.6,7.3,5.1,14.6,7.7,21.9c2.4,6.8,4.8,13.6,7.2,20.4
					c2,5.7,4,11.5,6.1,17.2c1.5,4.1,2.9,8.3,4.4,12.4c0.7,2,1.4,3.9,2.1,5.9c0,0.1,0.1,0.2,0.1,0.3c0.5,1.3,2.5,0.7,2.1-0.6
					c-0.5-1.3-0.9-2.7-1.4-4c-1.3-3.7-2.6-7.3-3.9-11c-1.9-5.4-3.8-10.8-5.7-16.2c-2.3-6.6-4.6-13.2-7-19.8
					c-2.6-7.2-5.1-14.5-7.7-21.7c-2.6-7.3-5.1-14.6-7.7-21.9c-2.4-6.8-4.8-13.6-7.2-20.4c-2-5.7-4-11.5-6.1-17.2
					c-1.5-4.1-2.9-8.3-4.4-12.4c-0.7-2-1.4-3.9-2.1-5.9c0-0.1-0.1-0.2-0.1-0.3C136.8,183.4,134.7,184,135.2,185.3L135.2,185.3z"/>
				<g>
					<path class="st8" d="M135.2,185.3c0,0-0.2-0.3,0-0.8c0.1-0.3,0.4-0.5,0.9-0.6c0.4-0.1,1,0.1,1.2,0.7c0.7,2.1,1.8,5.1,3.2,9
						c2.8,7.8,6.8,19.1,11.7,33c9.8,27.9,23.4,66.4,38.4,108.9c0.2,0.4,0.1,0.9-0.2,1.3c-0.3,0.3-0.7,0.5-1.2,0.5
						c-0.4,0-0.9-0.3-1.1-0.7c-0.2-0.4-0.3-0.7-0.4-1c-0.5-1.3-0.9-2.6-1.4-4c-0.9-2.6-1.8-5.2-2.8-7.8c-1.8-5.2-3.6-10.3-5.4-15.3
						c-3.5-10-6.9-19.7-10.2-28.9c-6.5-18.4-12.3-35-17.2-49c-4.9-13.9-8.8-25.2-11.5-33c-1.3-3.9-2.4-6.9-3.1-9
						c-0.3-1-0.6-1.8-0.8-2.3C135.3,185.6,135.2,185.3,135.2,185.3s0.1,0.3,0.3,0.8s0.5,1.3,0.8,2.3c0.7,2.1,1.8,5.1,3.2,9
						c2.8,7.8,6.8,19.1,11.7,33s10.8,30.5,17.3,49c3.2,9.2,6.7,18.9,10.2,28.9c1.8,5,3.6,10.1,5.4,15.3c0.9,2.6,1.8,5.2,2.8,7.8
						c0.5,1.3,0.9,2.6,1.4,4c0.1,0.3,0.2,0.7,0.4,0.9c0.1,0.2,0.4,0.4,0.6,0.4c0.3,0,0.6-0.1,0.7-0.3c0.2-0.2,0.2-0.5,0.1-0.7
						c-14.9-42.5-28.5-81.1-38.3-109c-4.9-13.9-8.8-25.2-11.5-33c-1.4-3.9-2.4-6.9-3.1-9c-0.2-0.5-0.7-0.7-1.1-0.6
						c-0.4,0.1-0.7,0.3-0.8,0.5C135,185,135.2,185.3,135.2,185.3z"/>
				</g>
			</g>
		</g>
		<g>
			<g>
				<path class="st7" d="M164.5,186c0.4,1.4,0.8,2.7,1.2,4.1c1.1,3.7,2.2,7.3,3.2,11c1.6,5.4,3.2,10.9,4.8,16.3
					c2,6.6,3.9,13.2,5.9,19.8c2.2,7.3,4.3,14.5,6.5,21.8s4.3,14.6,6.5,21.9c2,6.8,4.1,13.7,6.1,20.5c1.7,5.7,3.4,11.5,5.1,17.2
					c1.2,4.2,2.5,8.3,3.7,12.5c0.6,2,1.1,3.9,1.7,5.9c0,0.1,0.1,0.2,0.1,0.3c0.4,1.3,2.5,0.7,2.1-0.6c-0.4-1.4-0.8-2.7-1.2-4.1
					c-1.1-3.7-2.2-7.3-3.2-11c-1.6-5.4-3.2-10.9-4.8-16.3c-2-6.6-3.9-13.2-5.9-19.8c-2.2-7.3-4.3-14.5-6.5-21.8s-4.3-14.6-6.5-21.9
					c-2-6.8-4.1-13.7-6.1-20.5c-1.7-5.7-3.4-11.5-5.1-17.2c-1.2-4.2-2.5-8.3-3.7-12.5c-0.6-2-1.1-3.9-1.7-5.9c0-0.1-0.1-0.2-0.1-0.3
					C166.2,184.1,164.1,184.7,164.5,186L164.5,186z"/>
				<g>
					<path class="st8" d="M164.5,186c0,0-0.2-0.3,0.1-0.8c0.1-0.3,0.4-0.5,0.8-0.6c0.4-0.1,1,0.1,1.2,0.7c0.6,2.1,1.5,5.1,2.7,9
						c2.3,7.8,5.7,19.1,9.9,33.1c8.3,27.9,19.8,66.5,32.4,109.1c0.1,0.4,0,0.9-0.2,1.2c-0.3,0.3-0.7,0.5-1.1,0.5
						c-0.4,0-0.9-0.3-1.1-0.6c-0.1-0.2-0.2-0.4-0.2-0.5l-0.1-0.5c-0.4-1.3-0.8-2.6-1.2-4c-0.8-2.6-1.6-5.2-2.3-7.8
						c-1.5-5.2-3.1-10.3-4.5-15.3c-3-10-5.8-19.7-8.6-29c-5.5-18.5-10.4-35.1-14.5-49.1s-7.4-25.3-9.7-33.1c-1.1-3.9-2-6.9-2.6-9
						c-0.3-1-0.5-1.8-0.7-2.3C164.6,186.3,164.5,186,164.5,186s0.1,0.3,0.3,0.8s0.4,1.3,0.7,2.3c0.6,2.1,1.5,5.1,2.7,9
						c2.3,7.8,5.7,19.1,9.9,33.1s9.1,30.6,14.6,49c2.7,9.2,5.6,18.9,8.6,29c1.5,5,3,10.1,4.5,15.3c0.8,2.6,1.5,5.2,2.3,7.8
						c0.4,1.3,0.8,2.6,1.2,4l0.1,0.5l0.1,0.3l0.1,0.2c0.1,0.2,0.4,0.4,0.6,0.4c0.6,0,1.1-0.5,0.9-1c-12.6-42.6-24-81.2-32.3-109.1
						c-4.1-14-7.4-25.3-9.7-33.1c-1.1-3.9-2-6.9-2.6-9c-0.2-0.5-0.7-0.7-1.1-0.6c-0.4,0.1-0.7,0.3-0.8,0.5
						C164.4,185.7,164.6,186,164.5,186z"/>
				</g>
			</g>
		</g>
		<g>
			<g>
				<path class="st7" d="M191.4,186.8c0.3,1,0.5,2,0.8,3.1c0.7,2.8,1.4,5.7,2.2,8.5c1.1,4.3,2.2,8.5,3.2,12.8
					c1.4,5.3,2.7,10.7,4.1,16c1.5,6,3.1,12,4.6,18.1c1.6,6.4,3.3,12.8,4.9,19.1c1.6,6.3,3.3,12.7,4.9,19c1.6,6,3.1,11.9,4.7,17.9
					c1.4,5.2,2.8,10.3,4.2,15.5c1.1,4,2.2,8.1,3.4,12.1c0.2,0.8,0.5,1.6,0.7,2.3c0.4,1.3,2.5,0.7,2.1-0.6c-1.1-3.7-2.1-7.4-3.2-11.1
					c-1.4-4.9-2.7-9.9-4-14.8c-1.5-5.8-3.1-11.6-4.6-17.3c-1.7-6.3-3.3-12.6-4.9-18.9c-1.7-6.4-3.3-12.8-5-19.1
					c-1.6-6.2-3.2-12.3-4.7-18.5c-1.4-5.5-2.8-11-4.2-16.6c-1.2-4.6-2.3-9.1-3.5-13.7c-0.8-3.2-1.6-6.4-2.4-9.6
					c-0.4-1.5-0.7-3-1.1-4.5c0-0.1,0-0.1,0-0.2C193.1,184.8,191,185.5,191.4,186.8L191.4,186.8z"/>
				<g>
					<path class="st8" d="M191.4,186.8c0,0-0.2-0.3,0.1-0.8c0.1-0.2,0.4-0.5,0.8-0.6c0.4-0.1,0.9,0,1.2,0.5c0.6,2,1.3,4.9,2.3,8.6
						c1.9,7.5,4.7,18.3,8.2,31.7s7.6,29.3,12.2,46.9c2.3,8.8,4.8,18.1,7.3,27.7c2.6,9.6,5.2,19.5,8.2,29.6c0.1,0.4,0.1,0.8-0.2,1.2
						c-0.3,0.3-0.6,0.5-1,0.5s-0.8-0.1-1.1-0.5s-0.3-0.7-0.4-1c-0.4-1.3-0.7-2.5-1.1-3.8c-0.7-2.5-1.4-5-2.1-7.5
						c-1.4-4.9-2.7-9.8-4-14.6c-2.5-9.6-5-18.9-7.3-27.7c-4.6-17.7-8.7-33.6-12.1-47c-3.4-13.4-6.1-24.2-8-31.7
						c-0.9-3.7-1.6-6.6-2.1-8.6c-0.2-1-0.4-1.7-0.5-2.2C191.4,187.1,191.4,186.8,191.4,186.8s0.1,0.3,0.2,0.8
						c0.1,0.5,0.3,1.3,0.6,2.2c0.5,2,1.3,4.9,2.2,8.6c1.9,7.5,4.7,18.3,8.2,31.7s7.6,29.3,12.2,46.9c2.3,8.8,4.8,18.1,7.3,27.7
						c1.3,4.8,2.6,9.7,4,14.6c0.7,2.5,1.4,5,2.1,7.5c0.3,1.3,0.7,2.5,1.1,3.8c0.1,0.3,0.2,0.7,0.3,0.8c0.1,0.2,0.4,0.3,0.6,0.3
						c0.5,0,1-0.5,0.8-1c-2.9-10.1-5.6-20.1-8.2-29.7c-2.5-9.6-5-18.9-7.3-27.7c-4.5-17.7-8.6-33.6-12.1-47
						c-3.4-13.4-6.1-24.2-8-31.7c-0.9-3.7-1.6-6.7-2.2-8.6c-0.2-0.5-0.7-0.5-1.1-0.4c-0.4,0.1-0.6,0.3-0.7,0.5
						C191.2,186.5,191.4,186.8,191.4,186.8z"/>
				</g>
			</g>
		</g>
		<g>
			<g>
				<path class="st7" d="M216.6,188.9c2.1,9,4.2,18,6.3,27s4.3,18,6.4,27c2.2,9,4.4,18,6.6,27c2.2,9,4.5,18,6.8,26.9
					s4.6,17.9,6.9,26.9c0.3,1.1,0.6,2.2,0.9,3.3c0.4,1.3,2.4,0.7,2.1-0.6c-2.3-9-4.7-17.9-7-26.9s-4.6-17.9-6.8-26.9s-4.4-18-6.6-27
					c-2.2-9-4.3-18-6.5-27c-2.1-9-4.2-18-6.3-27c-0.3-1.1-0.5-2.2-0.8-3.4C218.3,186.9,216.2,187.5,216.6,188.9L216.6,188.9z"/>
				<g>
					<path class="st8" d="M216.6,188.9c0,0-0.1-0.3,0.1-0.7c0.1-0.2,0.3-0.5,0.7-0.6c0.3-0.1,0.9-0.1,1.2,0.3
						c0.2,0.2,0.2,0.5,0.3,0.7c0.1,0.3,0.1,0.5,0.2,0.8c0.1,0.6,0.3,1.2,0.4,1.9c0.3,1.4,0.7,3,1.1,4.8c1.7,7.2,4.1,17.6,7.2,30.4
						c6.1,25.6,14.8,61,25,99.9c0.1,0.4,0,0.8-0.2,1.1c-0.2,0.3-0.6,0.5-1,0.6s-0.8,0-1.1-0.3s-0.4-0.7-0.4-1
						c-0.3-1.2-0.6-2.4-0.9-3.6c-0.6-2.4-1.2-4.8-1.8-7.2c-1.2-4.7-2.4-9.4-3.6-14c-2.4-9.2-4.6-18.1-6.7-26.5
						c-4.2-16.9-7.9-32.2-10.9-45c-3.1-12.8-5.4-23.2-7.1-30.4c-0.8-3.6-1.4-6.4-1.9-8.3c-0.2-0.9-0.4-1.7-0.5-2.2
						S216.6,188.9,216.6,188.9s0.1,0.2,0.2,0.7c0.1,0.5,0.3,1.2,0.5,2.1c0.5,1.9,1.1,4.7,2,8.3c1.7,7.2,4.1,17.6,7.2,30.4
						c3.1,12.8,6.8,28,11,45c2.1,8.4,4.3,17.3,6.7,26.5c1.2,4.6,2.4,9.3,3.6,14c0.6,2.4,1.2,4.8,1.8,7.2c0.3,1.2,0.6,2.4,0.9,3.6
						c0.1,0.3,0.1,0.6,0.3,0.7c0.2,0.2,0.4,0.2,0.6,0.2c0.5-0.1,0.9-0.6,0.7-1c-10.2-38.9-18.9-74.3-24.9-99.9
						c-3.1-12.8-5.4-23.2-7-30.4c-0.4-1.8-0.8-3.4-1.1-4.8c-0.2-0.7-0.3-1.3-0.4-1.9c-0.1-0.3-0.1-0.6-0.2-0.8
						c-0.1-0.3-0.1-0.5-0.2-0.7c-0.3-0.4-0.8-0.4-1.1-0.3c-0.3,0.1-0.6,0.3-0.7,0.6C216.4,188.6,216.6,188.9,216.6,188.9z"/>
				</g>
			</g>
		</g>
		<g>
			<g>
				<path class="st7" d="M245.7,191.1c1.8,10,3.7,20,5.6,29.9c2.2,11.3,4.4,22.5,6.6,33.8c2.1,10.7,4.3,21.5,6.5,32.2
					c1.7,8.1,3.3,16.3,5,24.4c0.5,2.5,1,5.1,1.6,7.6c0.2,1.2,0.4,2.3,0.7,3.5v0.1c0.1,0.6,0.8,0.9,1.4,0.7c0.6-0.2,0.8-0.8,0.7-1.4
					c-0.6-3-1.2-6-1.9-9.1c-1.6-7.7-3.2-15.4-4.7-23.1c-2.1-10.5-4.3-21-6.4-31.6c-2.3-11.3-4.5-22.6-6.7-33.9
					c-2-10.2-3.9-20.5-5.8-30.7c-0.2-1.1-0.4-2.1-0.6-3.2c-0.1-0.6-0.8-0.9-1.4-0.7C245.8,189.9,245.6,190.5,245.7,191.1
					L245.7,191.1z"/>
				<g>
					<path class="st8" d="M245.7,191.1c0,0,0-0.1,0-0.2c0-0.1,0-0.3,0.1-0.5s0.3-0.5,0.6-0.6s0.8-0.1,1.2,0.2
						c0.2,0.1,0.3,0.4,0.4,0.7c0,0.3,0.1,0.5,0.1,0.8c0.1,0.6,0.2,1.2,0.3,1.8c0.3,1.3,0.5,2.8,0.9,4.5c1.3,6.9,3.2,16.7,5.5,28.9
						c4.8,24.4,11.6,58.1,19.2,95.3c0.1,0.3,0,0.7-0.1,1c-0.2,0.3-0.5,0.6-0.9,0.6c-0.4,0.1-0.7,0-1-0.2c-0.2-0.1-0.3-0.2-0.4-0.4
						c-0.1-0.2-0.1-0.4-0.2-0.5c-0.2-1.2-0.5-2.3-0.7-3.5c-0.5-2.3-0.9-4.6-1.4-6.8c-0.9-4.5-1.8-9-2.7-13.4
						c-1.8-8.8-3.5-17.2-5.1-25.3c-3.3-16.1-6.1-30.7-8.4-42.9c-2.4-12.2-4.1-22.1-5.4-29c-0.6-3.4-1.1-6.1-1.4-7.9
						c-0.2-0.9-0.3-1.6-0.4-2.1C245.7,191.3,245.7,191.1,245.7,191.1s0.1,0.2,0.2,0.7c0.1,0.5,0.2,1.2,0.4,2
						c0.4,1.8,0.9,4.5,1.5,7.9c1.3,6.8,3.1,16.7,5.6,28.9c2.4,12.2,5.3,26.7,8.6,42.9c1.6,8.1,3.4,16.5,5.1,25.3
						c0.9,4.4,1.8,8.9,2.7,13.4c0.5,2.3,0.9,4.5,1.4,6.8c0.2,1.1,0.5,2.3,0.7,3.4c0,0.2,0.1,0.3,0.1,0.3c0.1,0.1,0.1,0.2,0.2,0.2
						c0.2,0.1,0.4,0.2,0.7,0.1c0.5-0.1,0.7-0.6,0.6-1.1c-7.7-37.2-14.4-70.9-19.1-95.4c-2.3-12.2-4.1-22.1-5.4-29
						c-0.3-1.7-0.6-3.2-0.8-4.6c-0.1-0.7-0.2-1.3-0.3-1.8s-0.1-1.1-0.4-1.4c-0.3-0.3-0.8-0.3-1.1-0.2s-0.5,0.4-0.6,0.6
						C245.6,190.8,245.7,191.1,245.7,191.1z"/>
				</g>
			</g>
		</g>
		<g>
			<g>
				<path class="st7" d="M272.1,190.9c1.5,6.8,2.8,13.8,3.9,20.7c1.5,9,2.9,18,4.3,27c1.5,9.9,3,19.7,4.5,29.6
					c1.4,9.2,2.8,18.3,4.3,27.4c1.2,7.2,2.4,14.4,3.9,21.5c0.1,0.7,0.3,1.3,0.4,2c0.3,1.4,2.4,0.7,2.1-0.6
					c-1.5-6.7-2.6-13.5-3.8-20.3c-1.5-8.9-2.9-17.9-4.2-26.8c-1.5-9.9-3-19.7-4.5-29.6c-1.4-9.3-2.9-18.5-4.4-27.8
					c-1.2-7.3-2.5-14.5-4-21.7c-0.1-0.7-0.3-1.3-0.4-2C273.9,188.9,271.8,189.6,272.1,190.9L272.1,190.9z"/>
				<g>
					<path class="st8" d="M272.1,190.9c0,0-0.1-0.2,0-0.7c0.1-0.2,0.3-0.5,0.6-0.6c0.3-0.1,0.8-0.2,1.2,0.1c0.4,0.3,0.4,0.9,0.5,1.4
						s0.3,1.1,0.4,1.8c0.2,1.3,0.5,2.7,0.8,4.4c1.2,6.6,3.2,16.2,5,28.1c0.9,6,2,12.5,3.1,19.5s2.2,14.5,3.4,22.4
						c1.2,7.9,2.5,16.1,3.9,24.7c0.7,4.3,1.4,8.6,2.1,13.1c0.8,4.4,1.6,8.9,2.6,13.4c0.1,0.3,0,0.7-0.2,1s-0.5,0.5-0.8,0.6
						s-0.7,0.1-1-0.1s-0.5-0.6-0.6-0.9c-0.2-1.1-0.5-2.2-0.7-3.4c-0.4-2.2-0.8-4.5-1.2-6.7c-0.8-4.4-1.6-8.8-2.3-13
						c-1.3-8.6-2.6-16.8-3.9-24.7c-2.4-15.8-4.5-30-6.4-41.9c-0.9-6-1.8-11.3-2.5-16.1c-0.8-4.7-1.5-8.8-2.1-12.1s-1.1-5.9-1.5-7.6
						c-0.2-0.9-0.3-1.5-0.4-2C272.1,191.1,272.1,190.9,272.1,190.9s0.1,0.2,0.2,0.7s0.3,1.1,0.5,2c0.4,1.7,0.9,4.3,1.6,7.6
						c0.6,3.3,1.4,7.4,2.1,12.1c0.8,4.7,1.6,10.1,2.6,16.1c2,11.9,4,26.1,6.5,41.9c1.2,7.9,2.5,16.1,3.9,24.7
						c0.8,4.3,1.6,8.6,2.3,13c0.4,2.2,0.8,4.4,1.2,6.7c0.2,1.1,0.4,2.2,0.7,3.3c0.1,0.5,0.5,0.7,0.9,0.6c0.5-0.1,0.7-0.6,0.6-1
						c-1-4.5-1.8-9-2.6-13.4c-0.8-4.4-1.5-8.8-2.1-13.1c-1.3-8.6-2.6-16.8-3.9-24.7c-1.2-7.9-2.3-15.4-3.4-22.4s-2.1-13.5-3-19.5
						c-1.8-11.9-3.6-21.5-4.8-28.2c-0.3-1.7-0.6-3.1-0.8-4.4c-0.1-0.6-0.2-1.2-0.4-1.8c-0.1-0.5-0.1-1.1-0.5-1.3
						c-0.3-0.3-0.8-0.2-1.1-0.1c-0.3,0.1-0.5,0.4-0.6,0.6C272,190.7,272.1,190.9,272.1,190.9z"/>
				</g>
			</g>
		</g>
		<g>
			<g>
				<path class="st7" d="M299.9,191.9c-0.4,0-0.8-0.3-0.9-0.4c-0.1-0.1-0.1-0.3,0-0.1s0.1,0.5,0.2,0.7c0.2,0.9,0.4,1.7,0.5,2.6
					c0.1,0.6,0.2,1.2,0.3,1.8c0.1,0.4,0.1,0.7,0.2,1.1c0,0.2,0.1,0.3,0.1,0.5c0,0.1,0,0.2,0,0.3c0,0.2,0-0.1,0-0.1
					c0,0.1,0,0.1,0,0.2c0.3,1.8,0.6,3.6,0.8,5.3c0.7,4.6,1.4,9.1,2,13.7c0.8,5.6,1.6,11.1,2.4,16.7c0.8,6,1.7,12.1,2.5,18.1
					c0.8,6.1,1.7,12.3,2.5,18.4c0.8,5.7,1.5,11.4,2.3,17.1c0.6,4.8,1.3,9.6,1.9,14.4c0.5,3.5,0.9,6.9,1.4,10.4
					c0.2,1.6,0.4,3.3,0.6,4.9c0,0.1,0,0.1,0,0.2c0.1,0.6,0.5,1.1,1.1,1c0.5,0,1.1-0.5,1-1.1c-0.1-1.1-0.3-2.3-0.4-3.4
					c-0.4-3.1-0.8-6.2-1.2-9.3c-0.6-4.6-1.2-9.2-1.8-13.7c-0.7-5.6-1.5-11.2-2.2-16.7c-0.8-6.1-1.6-12.3-2.5-18.4
					c-0.8-6.2-1.7-12.4-2.5-18.5c-0.8-5.7-1.6-11.5-2.4-17.2c-0.7-4.8-1.4-9.6-2.1-14.5c-0.5-3.5-1.1-7-1.7-10.5
					c-0.3-1.6-0.4-3.3-1-4.8c-0.2-0.5-0.6-0.9-1.2-0.9C298.4,189.7,298.5,191.9,299.9,191.9L299.9,191.9z"/>
				<g>
					<path class="st8" d="M299.9,191.9c0,0-0.3,0.1-0.7-0.2c-0.2-0.1-0.4-0.4-0.4-0.7c-0.1-0.3,0-0.8,0.4-1.1s1-0.3,1.5,0.1
						c0.4,0.4,0.6,1,0.8,1.6c0.4,1.3,0.5,2.8,0.8,4.4c0.5,3.3,1.2,7.4,2,12.1c0.7,4.7,1.5,10.1,2.4,16.1
						c3.4,23.8,7.9,56.8,12.7,93.2v0.3c0,0.1,0,0.3,0,0.4c-0.1,0.3-0.3,0.5-0.5,0.7c-0.4,0.3-1.1,0.4-1.6,0.1s-0.6-0.9-0.7-1.3
						l-0.2-1.3c-0.2-1.8-0.5-3.5-0.7-5.2c-0.5-3.5-0.9-6.9-1.4-10.3c-0.9-6.8-1.8-13.4-2.6-19.8c-1.7-12.8-3.3-24.7-4.8-35.4
						c-2.9-21.4-5.3-38.1-6.7-47.2h0.2v0.1l0,0l0,0c-0.4,0.1-0.1,0-0.2,0l0,0l0,0v-0.1v-0.3c0-0.2-0.1-0.3-0.1-0.5
						c-0.1-0.3-0.1-0.7-0.2-1c-0.1-0.6-0.2-1.2-0.3-1.7c-0.2-1.1-0.4-1.9-0.5-2.7c-0.1-0.4-0.2-0.7-0.2-0.9l0,0l0,0l0,0l0,0
						c-0.1,0,0.1,0,0.1,0l0,0l0,0v0.1c0,0.1,0.1,0.1,0.1,0.1c0.1,0.1,0.2,0.1,0.2,0.2C299.7,191.9,299.9,191.9,299.9,191.9
						s-0.2,0-0.5-0.1c-0.1,0-0.2-0.1-0.3-0.2l-0.1-0.1v-0.1l0,0l0,0h0.1l0,0l0,0l0,0l0,0c0.1,0.3,0.2,0.6,0.3,0.9
						c0.1,0.7,0.3,1.6,0.6,2.7c0.1,0.5,0.2,1.1,0.3,1.7c0.1,0.3,0.1,0.6,0.2,1c0,0.2,0.1,0.3,0.1,0.5v0.3v0.1l0,0l0,0
						c-0.1,0,0.2,0-0.2,0l0,0l0,0v-0.1h0.2c1.5,9.1,4,25.7,6.9,47.1c1.5,10.7,3.1,22.7,4.8,35.4c0.9,6.4,1.7,13,2.6,19.8
						c0.4,3.4,0.9,6.8,1.4,10.3c0.2,1.7,0.5,3.5,0.7,5.2l0.2,1.3c0,0.2,0,0.4,0.1,0.6s0.2,0.3,0.3,0.4c0.6,0.4,1.5-0.2,1.2-1
						c-4.8-36.4-9.2-69.4-12.5-93.3c-0.9-6-1.6-11.3-2.3-16.1c-0.7-4.7-1.4-8.8-1.9-12.1c-0.3-1.7-0.4-3.2-0.8-4.4
						c-0.2-0.6-0.3-1.2-0.7-1.6c-0.4-0.3-1-0.3-1.3-0.1c-0.3,0.3-0.4,0.7-0.4,1s0.2,0.6,0.4,0.7C299.6,192,299.9,191.9,299.9,191.9z
						"/>
				</g>
			</g>
		</g>
	</g>
	<g>
		<path class="st7" d="M411,189.7c-1.9,0.1-3,1.6-3.1,3.3c-1.1,12.3-2.3,24.6-3.4,37c-1.8,19.6-3.7,39.2-5.5,58.8
			c-0.3,3.5-0.7,7.1-1,10.6c-6.7,1.2-13.4,2.4-20.1,3.6c-17.7,3.2-35.4,6.4-53.1,9.6c-21.8,3.9-43.5,7.8-65.3,11.7
			c-19.2,3.4-38.4,6.9-57.5,10.3c-6.7,1.2-13.5,2.4-20.2,3.5c-2.2,0.4-4.5,0.8-6.7,1.2c-0.8,0.1-1.6,0.3-2.4,0.4
			c1.3-0.2-0.1,0-0.8,0.1c-0.2-0.3-0.4-0.7-0.6-1c-2.6-4.2-4.8-8.7-7.1-13c-8.3-16.1-16.3-32.3-24.3-48.6
			c-9.7-19.9-19.4-39.9-29-59.8c-8-16.5-15.9-33.1-23.9-49.6c-2.2-4.6-4.5-9.3-6.7-13.9c-0.5-1-1-2.1-1.5-3.1
			c-1.9-3.4-6.2-5.2-9.6-6.7c-4-1.7-8.1-3.1-12.2-4.2c-4-1.1-5.6,5.2-1.5,6.3c4.2,1.2,8.3,2.5,12.1,4.3c1.2,0.5,2.4,1.1,3.6,1.8
			c0.3,0.2,0.6,0.3,0.8,0.5c0.1,0.1,0.1,0.1,0.2,0.1c0,0,0.1,0,0.1,0.1c0.2,0.2,0.9,1,0.8,0.8c0.2,0.3,0.3,0.5,0.5,0.8
			c1.7,3.2,3.2,6.5,4.8,9.8c7.2,14.9,14.3,29.8,21.5,44.7c9.6,19.9,19.2,39.9,28.9,59.8c8.6,17.6,17.2,35.2,26.1,52.7
			c2.9,5.6,5.7,11.2,8.7,16.7c0.9,1.6,1.8,3.3,2.8,4.9c0.7,1.1,1.5,2.4,2.6,3s2,0.4,3.1,0.3c1.7-0.3,3.3-0.5,5-0.8
			c5.3-0.9,10.6-1.8,15.9-2.8c17.7-3.1,35.4-6.3,53-9.4c21.6-3.9,43.3-7.8,64.9-11.7c19.4-3.5,38.7-7,58.1-10.5
			c10.5-1.9,21-3.8,31.5-5.7c0.5-0.1,1-0.2,1.5-0.3c1.5-0.3,2.2-1.9,2.3-3.2c1.1-12.3,2.3-24.6,3.4-37c1.8-19.6,3.7-39.2,5.5-58.8
			c0.4-4.5,0.8-8.9,1.2-13.4C414.5,191.1,412.6,189.7,411,189.7z"/>
		<g>
			<path class="st12" d="M411,189.7c-1.9,0.1-3,1.6-3.1,3.3c-1.1,12.3-2.3,24.6-3.4,37c-1.8,19.6-3.7,39.2-5.5,58.8
				c-0.3,3.5-0.7,7.1-1,10.6c-6.7,1.2-13.4,2.4-20.1,3.6c-17.7,3.2-35.4,6.4-53.1,9.6c-21.8,3.9-43.5,7.8-65.3,11.7
				c-19.2,3.4-38.4,6.9-57.5,10.3c-6.7,1.2-13.5,2.4-20.2,3.5c-2.2,0.4-4.5,0.8-6.7,1.2c-0.8,0.1-1.6,0.3-2.4,0.4
				c1.3-0.2-0.1,0-0.8,0.1c-0.2-0.3-0.4-0.7-0.6-1c-2.6-4.2-4.8-8.7-7.1-13c-8.3-16.1-16.3-32.3-24.3-48.6
				c-9.7-19.9-19.4-39.9-29-59.8c-8-16.5-15.9-33.1-23.9-49.6c-2.2-4.6-4.5-9.3-6.7-13.9c-0.5-1-1-2.1-1.5-3.1
				c-1.9-3.4-6.2-5.2-9.6-6.7c-4-1.7-8.1-3.1-12.2-4.2c-4-1.1-5.6,5.2-1.5,6.3c4.2,1.2,8.3,2.5,12.1,4.3c1.2,0.5,2.4,1.1,3.6,1.8
				c0.3,0.2,0.6,0.3,0.8,0.5c0.1,0.1,0.1,0.1,0.2,0.1c0,0,0.1,0,0.1,0.1c0.2,0.2,0.9,1,0.8,0.8c0.2,0.3,0.3,0.5,0.5,0.8
				c1.7,3.2,3.2,6.5,4.8,9.8c7.2,14.9,14.3,29.8,21.5,44.7c9.6,19.9,19.2,39.9,28.9,59.8c8.6,17.6,17.2,35.2,26.1,52.7
				c2.9,5.6,5.7,11.2,8.7,16.7c0.9,1.6,1.8,3.3,2.8,4.9c0.7,1.1,1.5,2.4,2.6,3s2,0.4,3.1,0.3c1.7-0.3,3.3-0.5,5-0.8
				c5.3-0.9,10.6-1.8,15.9-2.8c17.7-3.1,35.4-6.3,53-9.4c21.6-3.9,43.3-7.8,64.9-11.7c19.4-3.5,38.7-7,58.1-10.5
				c10.5-1.9,21-3.8,31.5-5.7c0.5-0.1,1-0.2,1.5-0.3c1.5-0.3,2.2-1.9,2.3-3.2c1.1-12.3,2.3-24.6,3.4-37c1.8-19.6,3.7-39.2,5.5-58.8
				c0.4-4.5,0.8-8.9,1.2-13.4C414.5,191.1,412.6,189.7,411,189.7z"/>
			<g>
				<path class="st8" d="M411,189.7c0,0,0.3,0,0.7,0.1c0.5,0.1,1.2,0.4,1.9,1.1c0.3,0.4,0.6,0.8,0.7,1.4c0.1,0.6-0.1,1.3-0.1,2
					c-0.1,1.4-0.3,3.1-0.5,5c-0.7,7.5-1.7,18.6-3,32.9s-2.9,31.8-4.8,52.2c-0.5,5.1-1,10.4-1.5,15.8c-0.1,0.7-0.1,1.4-0.2,2.1
					s-0.3,1.4-0.7,2c-0.4,0.6-1,1.1-1.8,1.2c-0.7,0.1-1.4,0.2-2.1,0.4c-2.8,0.5-5.6,1-8.4,1.5c-11.4,2.1-23.5,4.3-36.2,6.5
					c-25.4,4.6-53.2,9.6-83,15c-14.9,2.7-30.4,5.4-46.3,8.3c-15.9,2.8-32.3,5.8-49.2,8.7c-1.1,0.2-2.1,0.3-3.2,0.5
					c-1.1,0.1-2.1,0.4-3.2,0.4c-1.2-0.1-2.2-0.8-2.9-1.7c-0.7-0.9-1.2-1.8-1.8-2.7c-2.2-3.7-4.2-7.6-6.2-11.5c-1-1.9-2-3.9-3.1-5.8
					c-1-2-2.1-3.9-3-5.9c-2-4-3.9-8-5.9-12c-4-8-8-16.1-12-24.3c-2-4.1-4.1-8.2-6.1-12.4c-2-4.2-4-8.3-6.1-12.5
					c-8.1-16.8-16.4-33.9-24.8-51.2c-4.2-8.7-8.4-17.4-12.6-26.3c-4.3-8.8-8.5-17.7-12.9-26.5l0.5-0.2v0.1c0,0,0,0,0,0.1
					c0,0,0,0.1-0.1,0.2c-0.1,0.1-0.2,0-0.2,0c-0.1,0-0.1-0.1-0.1-0.1l-0.1-0.1l-0.1-0.1l-0.2-0.2c-0.2-0.2-0.3-0.3-0.5-0.4l0,0
					c-1.1-0.8-2.4-1.3-3.6-1.9c-1.2-0.7-2.5-1.2-3.9-1.7c-2.7-1-5.4-2-8.2-2.8c-0.3-0.1-0.7-0.2-1-0.3s-0.7-0.2-1-0.5
					c-0.6-0.4-1.1-1-1.3-1.8c-0.4-1.4,0-3.1,1.2-4c0.6-0.5,1.4-0.7,2.1-0.6c0.8,0.1,1.4,0.3,2.1,0.5c1.3,0.4,2.6,0.8,3.9,1.2
					c2.6,0.9,5.2,1.9,7.7,2.9c2.5,1.1,5.1,2.2,7.1,4.1c1,0.9,1.9,2.1,2.4,3.4l1.8,3.7c1.2,2.4,2.4,4.9,3.5,7.3
					c2.3,4.9,4.7,9.7,7,14.5c9.3,19.3,18.4,38.3,27.4,56.9c4.5,9.3,9,18.5,13.4,27.6c2.2,4.5,4.4,9.1,6.6,13.6
					c2.2,4.5,4.4,8.9,6.6,13.3c4.4,8.8,8.7,17.5,13,26.1s8.4,17.2,13.2,25.1l-0.2-0.1c0.3-0.1,0.6-0.1,0.9-0.2h0.2h0.1l0,0l0,0l0,0
					l0,0c-0.1-0.4,0.1,0.6,0.1,0.5l0,0l0,0l0,0h-0.1l-0.5,0.1l-0.1-0.5c22.7-3.9,44.6-7.8,65.5-11.5s40.9-7.3,59.8-10.7
					c37.8-6.8,71.5-12.9,100-18l-0.1,0.1c3.3-35.3,5.9-63.1,7.7-82.1c0.9-9.5,1.6-16.8,2.1-21.8c0.1-1.2,0.2-2.3,0.4-3.2
					c0.2-0.9,0.7-1.6,1.3-2c0.5-0.4,1-0.5,1.3-0.5C410.8,189.7,411,189.7,411,189.7s-0.2,0-0.5,0.1s-0.8,0.2-1.3,0.6
					c-0.5,0.4-1,1-1.2,1.9s-0.2,2-0.4,3.2c-0.5,4.9-1.1,12.3-2,21.8c-1.8,19-4.3,46.9-7.6,82.2v0.1h-0.1
					c-28.6,5.2-62.2,11.2-100,18.1c-18.9,3.4-38.9,7-59.8,10.7s-42.8,7.7-65.5,11.6l-0.1-0.5l0.5-0.1h0.1l0,0l0,0l0,0v0.2
					c0.1,0.3,0,0.3,0,0.3l0,0l0,0H173h-0.2c-0.3,0.1-0.6,0.1-0.9,0.2h-0.2l-0.1-0.1c-4.9-8-8.9-16.6-13.2-25.1
					c-4.3-8.6-8.6-17.3-13-26.1c-2.2-4.4-4.4-8.8-6.6-13.3c-2.2-4.5-4.4-9-6.6-13.6c-4.4-9.1-8.9-18.3-13.4-27.6
					c-9-18.6-18.1-37.6-27.4-56.9c-2.3-4.8-4.7-9.7-7-14.5c-1.2-2.4-2.4-4.9-3.5-7.3l-1.8-3.6c-0.5-1.3-1.3-2.3-2.3-3.2
					c-2-1.8-4.5-2.9-7-4s-5.1-2-7.7-2.9c-1.3-0.4-2.6-0.8-3.9-1.2c-0.7-0.2-1.3-0.4-1.9-0.5c-0.6,0-1.3,0.1-1.7,0.5
					c-1,0.8-1.4,2.2-1,3.5c0.2,0.6,0.6,1.1,1.1,1.5s1.2,0.5,1.8,0.7c2.8,0.8,5.6,1.7,8.3,2.8c1.3,0.5,2.7,1,3.9,1.7
					c1.2,0.7,2.5,1.2,3.6,2l0,0l0,0c0.2,0.1,0.4,0.3,0.5,0.5l0.2,0.2l0.1,0.1l0,0l0,0c0,0,0,0-0.1,0.1l-0.1,0.1c0,0-0.2,0-0.2,0.1
					l0.4-0.2c4.5,8.9,8.7,17.8,12.9,26.6c4.2,8.8,8.4,17.6,12.6,26.3c8.4,17.4,16.6,34.5,24.8,51.2c2,4.2,4.1,8.4,6.1,12.5
					c2,4.1,4.1,8.3,6.1,12.4c4.1,8.2,8.1,16.3,12,24.3c2,4,4,8,5.9,12c1,2,2,4,3,5.9c1,2,2,3.9,3,5.8c2,3.9,4,7.8,6.2,11.5
					c0.5,0.9,1.1,1.9,1.7,2.7c0.7,0.8,1.5,1.4,2.5,1.5c1,0,2.1-0.2,3.1-0.4l3.2-0.5c16.9-2.9,33.3-5.8,49.2-8.7
					c15.9-2.8,31.4-5.6,46.3-8.3c29.9-5.4,57.7-10.4,83-14.9c12.7-2.3,24.8-4.5,36.2-6.5c2.9-0.5,5.7-1,8.4-1.5
					c1.3-0.3,3-0.2,3.6-1.4c0.8-1.1,0.7-2.6,0.8-3.9c0.5-5.4,1-10.7,1.5-15.8c1.9-20.4,3.6-37.9,4.9-52.2
					c1.4-14.3,2.4-25.4,3.1-32.9c0.2-1.9,0.3-3.5,0.5-5c0-0.7,0.2-1.4,0.1-2s-0.4-1.1-0.7-1.4c-0.7-0.7-1.4-1-1.8-1.1
					c-0.2-0.1-0.4-0.1-0.5-0.1C411,189.8,411,189.7,411,189.7z"/>
			</g>
		</g>
	</g>
	<g>
		<g>
			<path class="st7" d="M84.6,185.4c3,0.1,5.9,0.2,8.9,0.3c8.1,0.2,16.2,0.5,24.3,0.7c11.9,0.4,23.7,0.7,35.6,1.1
				c14.6,0.4,29.2,0.9,43.7,1.3c16,0.5,31.9,1,47.9,1.4c16.1,0.5,32.1,1,48.2,1.4c15,0.4,30,0.9,45,1.3c12.7,0.4,25.4,0.8,38.1,1.1
				c9.1,0.3,18.2,0.5,27.3,0.8c4.3,0.1,8.6,0.4,13,0.4c0.2,0,0.4,0,0.6,0c2.8,0.1,2.6-4.2-0.1-4.3c-3-0.1-5.9-0.2-8.9-0.3
				c-8.1-0.2-16.2-0.5-24.3-0.7c-11.9-0.4-23.7-0.7-35.6-1.1c-14.6-0.4-29.2-0.9-43.7-1.3c-16-0.5-31.9-1-47.9-1.4
				c-16.1-0.5-32.1-1-48.2-1.4c-15-0.4-30-0.9-45-1.3c-12.7-0.4-25.4-0.8-38.1-1.1c-9.1-0.3-18.2-0.5-27.3-0.8
				c-4.3-0.1-8.6-0.4-13-0.4c-0.2,0-0.4,0-0.6,0C81.7,181,81.9,185.4,84.6,185.4L84.6,185.4z"/>
			<g>
				<path class="st8" d="M84.6,185.4c0,0-0.1,0-0.4,0c-0.3-0.1-0.7-0.2-1.1-0.6c-0.4-0.4-0.7-1.2-0.6-2c0.1-0.4,0.3-0.9,0.7-1.2
					c0.4-0.3,1-0.5,1.5-0.4c4.5,0.1,11.2,0.3,19.8,0.5c17.2,0.5,42,1.2,72.7,2.1c61.4,1.8,146.2,4.3,239.9,7.1c0.8,0,1.6,0.5,2,1.2
					s0.5,1.6,0.2,2.3c-0.1,0.4-0.4,0.7-0.8,1c-0.3,0.2-0.8,0.3-1.2,0.4c-0.8,0-1.5,0-2.2,0c-2.9-0.1-5.8-0.2-8.7-0.3
					c-5.8-0.2-11.5-0.3-17.2-0.5c-11.4-0.3-22.7-0.7-33.7-1c-22.1-0.7-43.4-1.3-63.7-1.9c-40.6-1.2-77.2-2.4-107.9-3.3
					c-30.7-1-55.5-1.7-72.7-2.3c-8.6-0.3-15.2-0.5-19.8-0.6c-2.3-0.1-4-0.1-5.1-0.2C85.2,185.5,84.6,185.4,84.6,185.4s0.6,0,1.8,0
					c1.2,0,2.9,0.1,5.1,0.1c4.5,0.1,11.2,0.3,19.8,0.5c17.2,0.5,42,1.2,72.7,2.1c30.7,0.9,67.3,2,107.9,3.2
					c20.3,0.6,41.6,1.2,63.7,1.9c11,0.3,22.3,0.7,33.7,1c5.7,0.2,11.4,0.3,17.2,0.5c2.9,0.1,5.8,0.2,8.7,0.3c0.7,0,1.5,0.1,2.2,0
					c0.7,0,1.2-0.4,1.5-1s0.2-1.3-0.2-1.9c-0.3-0.6-0.9-0.9-1.6-0.9c-93.7-2.8-178.5-5.4-239.9-7.3c-30.7-1-55.5-1.7-72.7-2.3
					c-8.6-0.3-15.2-0.5-19.8-0.6c-0.6,0-1.1,0.1-1.5,0.4c-0.4,0.3-0.6,0.7-0.6,1.2c-0.1,0.8,0.2,1.6,0.5,2c0.4,0.4,0.8,0.6,1.1,0.6
					C84.5,185.4,84.6,185.4,84.6,185.4z"/>
			</g>
		</g>
	</g>
	<g>
		<g>
			<path class="st7" d="M112.3,242.8c39.3-1.1,78.5-2.3,117.8-3.4c38.7-1.1,77.5-2.3,116.2-3.4c22.2-0.6,44.4-1.3,66.6-1.9
				c2.8-0.1,2.7-4.4-0.1-4.3c-39.3,1.1-78.5,2.3-117.8,3.4c-38.7,1.1-77.5,2.3-116.2,3.4c-22.2,0.6-44.4,1.3-66.6,1.9
				C109.4,238.5,109.5,242.9,112.3,242.8L112.3,242.8z"/>
			<g>
				<path class="st8" d="M112.3,242.8c0,0-0.1,0-0.4,0s-0.7-0.1-1.1-0.5c-0.4-0.3-0.7-1-0.7-1.8s0.5-1.8,1.6-2
					c4.1-0.2,10.1-0.4,17.9-0.6c15.6-0.5,38.1-1.2,65.9-2c55.6-1.6,132.5-3.9,217.4-6.4c0.7,0,1.5,0.3,1.9,0.9
					c0.4,0.6,0.6,1.4,0.4,2.1c-0.1,0.7-0.6,1.4-1.4,1.7c-0.7,0.3-1.4,0.2-2,0.2c-2.6,0.1-5.3,0.2-7.9,0.2
					c-5.2,0.2-10.4,0.3-15.6,0.5c-10.3,0.3-20.5,0.6-30.5,0.9c-20,0.6-39.3,1.1-57.7,1.7c-36.8,1.1-69.9,2-97.7,2.8
					s-50.3,1.4-65.9,1.8c-7.8,0.2-13.8,0.4-17.9,0.5c-2,0-3.6,0.1-4.7,0.1C112.9,242.8,112.3,242.8,112.3,242.8s0.5,0,1.6-0.1
					c1.1,0,2.6-0.1,4.7-0.2c4.1-0.1,10.1-0.3,17.9-0.6c15.6-0.5,38.1-1.2,65.9-2s60.9-1.8,97.7-2.9c18.4-0.5,37.7-1.1,57.7-1.7
					c10-0.3,20.2-0.6,30.5-0.9c5.2-0.2,10.4-0.3,15.6-0.5c2.6-0.1,5.2-0.2,7.9-0.2c0.7,0,1.4,0,1.9-0.2s0.9-0.7,1-1.3s0-1.2-0.3-1.7
					s-0.9-0.7-1.5-0.7c-84.9,2.5-161.7,4.7-217.4,6.3c-27.8,0.8-50.3,1.4-65.9,1.8c-7.8,0.2-13.8,0.3-17.9,0.5
					c-1,0.2-1.5,1.2-1.5,1.9c-0.1,0.8,0.3,1.4,0.7,1.7c0.4,0.4,0.8,0.5,1,0.5C112.2,242.8,112.3,242.8,112.3,242.8z"/>
			</g>
		</g>
	</g>
	<g>
		<g>
			<path class="st7" d="M144.7,308.7c0.9,0.1,1.8,0,2.8-0.1c1.8-0.2,3.7-0.4,5.5-0.6c6.5-0.7,13-1.4,19.5-2.1
				c9.5-1.1,19-2.1,28.5-3.2c11.5-1.3,23-2.6,34.6-4c12.6-1.5,25.1-2.9,37.7-4.4c12.7-1.5,25.3-3,38-4.4c11.8-1.4,23.5-2.8,35.3-4.1
				c10-1.2,20-2.3,30-3.5c7.1-0.8,14.3-1.7,21.4-2.5c3.4-0.4,6.8-0.8,10.2-1.2c0.1,0,0.3,0,0.4-0.1c2.7-0.3,2.6-4.6-0.1-4.3
				c-2.3,0.3-4.6,0.5-7,0.8c-6.3,0.7-12.7,1.5-19,2.2c-9.3,1.1-18.7,2.2-28,3.3c-11.4,1.3-22.8,2.7-34.2,4
				c-12.5,1.5-25.1,2.9-37.6,4.4c-12.7,1.5-25.4,3-38.1,4.4c-11.8,1.4-23.7,2.7-35.5,4.1c-10.1,1.2-20.1,2.3-30.2,3.4
				c-7.4,0.8-14.7,1.7-22.1,2.4c-3.6,0.4-7.3,0.9-11,1.1c-0.3,0-1.2-0.1-0.1,0.1c-1.2-0.1-2.3,0.4-2.6,1.6
				C142.8,307.1,143.5,308.5,144.7,308.7L144.7,308.7z"/>
			<g>
				<path class="st8" d="M144.7,308.7c0,0-0.1,0-0.4-0.1c-0.3-0.1-0.6-0.3-0.9-0.8c-0.3-0.5-0.5-1.2-0.2-2.1
					c0.3-0.8,1.4-1.4,2.5-1.3v0.1h-0.3h-0.2l0,0l0,0c0,0-0.1,0-0.1-0.1c0.1-0.1,0.1,0,0.1,0c0.2,0,0.4,0,0.7,0
					c0.5,0,0.9-0.1,1.4-0.1c1-0.1,2-0.2,3.2-0.3c2.3-0.2,4.9-0.5,7.7-0.8c5.7-0.6,12.6-1.4,20.6-2.3c15.9-1.8,35.9-4.2,59.1-6.8
					c46.5-5.5,105.8-12.4,170.3-20c0.6-0.1,1.4,0.1,1.8,0.6c0.5,0.5,0.6,1.2,0.6,1.8c0,0.6-0.3,1.3-0.8,1.7
					c-0.5,0.5-1.2,0.7-1.7,0.7c-2.3,0.3-4.6,0.5-6.9,0.8c-4.6,0.5-9.2,1.1-13.7,1.6c-9.1,1.1-18,2.1-26.8,3.2
					c-17.6,2.1-34.6,4-50.8,5.9c-32.4,3.7-61.5,7.1-86,9.9s-44.3,5-58,6.5c-6.8,0.7-12.2,1.3-15.8,1.7c-1.8,0.2-3.2,0.3-4.1,0.4
					C145.1,308.8,144.7,308.7,144.7,308.7s0.1,0,0.4,0c0.2,0,0.6,0,1,0c0.9-0.1,2.3-0.2,4.1-0.4c3.6-0.4,8.9-1,15.8-1.7
					c13.7-1.6,33.5-3.9,58-6.7c24.5-2.9,53.6-6.3,85.9-10c16.2-1.9,33.2-3.9,50.8-6c8.8-1,17.8-2.1,26.8-3.2
					c4.5-0.5,9.1-1.1,13.7-1.6c2.3-0.3,4.6-0.5,6.9-0.8c0.6-0.1,1.1-0.2,1.4-0.6c0.4-0.4,0.6-0.9,0.6-1.4s-0.1-1.1-0.5-1.4
					c-0.3-0.4-0.9-0.5-1.4-0.4c-64.6,7.5-123.9,14.5-170.4,19.9c-23.2,2.6-43.3,4.9-59.1,6.7c-7.9,0.9-14.8,1.6-20.6,2.2
					c-2.9,0.3-5.5,0.5-7.7,0.8c-1.1,0.1-2.2,0.2-3.2,0.3c-0.5,0-1,0.1-1.4,0.1c-0.2,0-0.5,0-0.7,0c0,0-0.1,0.1-0.1-0.1
					c0-0.1,0,0,0.1,0h0.2h0.3v0.1c-1.1-0.2-2.1,0.4-2.4,1.2c-0.3,0.8-0.1,1.5,0.1,2c0.3,0.5,0.6,0.7,0.9,0.8
					C144.5,308.7,144.7,308.7,144.7,308.7z"/>
			</g>
		</g>
	</g>
	<path class="st9" d="M74.9,131.1c-0.3,1.3-8.4,23.3-8.4,23.3l-29-11.2c-6.7-2.6-9.8-10.2-7-16.7l0,0c2.7-6.2,9.9-9.2,16.2-6.7
		L74.9,131.1z"/>
	<g class="st10">
		<circle cx="42.5" cy="131.9" r="8.3"/>
	</g>
	<g class="st10">
		<path class="st4" d="M49.9,123.2c-0.1-0.4-0.8-1.1-1.1-1.3c-1.9-1.3-3.6-1.7-6.3-1.9c-3.6-0.2-6.7,1.3-9.3,3.9
			c-0.4,0.4-0.8,0.9-0.7,1.5c0.1,0.7,1,1.1,1.7,0.9s1.3-0.7,1.9-1.1c3.3-2.4,7.8-3,11.6-1.4c0.4,0.2,0.9,0.4,1.3,0.4
			C49.5,124,50,123.6,49.9,123.2z"/>
	</g>
	<path class="st11" d="M33.5,128.5c0,0.7-0.5,1.2-1.2,1.2s-1.2-0.5-1.2-1.2c0-0.7,0.5-1.2,1.2-1.2C32.9,127.3,33.5,127.8,33.5,128.5
		z"/>
</g>
</svg>
