<?xml version="1.0" encoding="utf-8"?>
<!-- Generator: Adobe Illustrator 24.3.0, SVG Export Plug-In . SVG Version: 6.00 Build 0)  -->
<svg version="1.1" id="Layer_1" xmlns="http://www.w3.org/2000/svg" xmlns:xlink="http://www.w3.org/1999/xlink" x="0px" y="0px"
	 viewBox="0 0 24 24" style="enable-background:new 0 0 24 24;" xml:space="preserve">
<style type="text/css">
	.st0{fill:#FFFFFF;}
</style>
<path class="st0" d="M21,4.5H3c-0.4,0-0.8,0.2-1.1,0.4S1.5,5.6,1.5,6v12c0,0.4,0.2,0.8,0.4,1.1s0.7,0.4,1.1,0.4h18
	c0.4,0,0.8-0.2,1.1-0.4s0.4-0.7,0.4-1.1V6c0-0.4-0.2-0.8-0.4-1.1S21.4,4.5,21,4.5z M21,6v2.2H3V6H21z M3,18V9.8h18V18H3z"/>
<path class="st0" d="M12,15H4.5v1.5H12V15z"/>
</svg>
