<?xml version="1.0" encoding="utf-8"?>
<!-- Generator: Adobe Illustrator 24.3.0, SVG Export Plug-In . SVG Version: 6.00 Build 0)  -->
<svg version="1.1" id="Layer_1" xmlns="http://www.w3.org/2000/svg" xmlns:xlink="http://www.w3.org/1999/xlink" x="0px" y="0px"
	 viewBox="0 0 24 24" style="enable-background:new 0 0 24 24;" xml:space="preserve">
<style type="text/css">
	.st0{fill:#2A254B;}
</style>
<path class="st0" d="M18.8,1.5c-1.7,0-3.3,0.5-4.7,1.4c-1.4,0.9-2.4,2.3-3,3.8c-0.5-0.7-1.1-1.3-1.9-1.7C8.4,4.7,7.6,4.5,6.8,4.5
	H4.5v2.2c0,1.4,0.6,2.7,1.5,3.7c1,1,2.3,1.5,3.7,1.5h0.8v6.8c-1.7,0.2-3.3,0.9-4.6,2.2L7,22c0.6-0.6,1.4-1.1,2.2-1.4
	c0.8-0.3,1.7-0.4,2.6-0.3c0.9,0.1,1.7,0.4,2.5,0.8c0.8,0.5,1.4,1.1,1.9,1.8l1.2-0.8c-0.6-0.9-1.4-1.7-2.4-2.3c-0.9-0.6-2-0.9-3.1-1
	V12h0.8c2.2,0,4.3-0.9,5.8-2.4C20.1,8,21,5.9,21,3.8V1.5H18.8z M9.8,10.5c-1,0-1.9-0.4-2.7-1.1C6.4,8.7,6,7.7,6,6.8V6h0.8
	c1,0,1.9,0.4,2.7,1.1c0.7,0.7,1.1,1.7,1.1,2.7v0.8H9.8z M19.5,3.8c0,1.8-0.7,3.5-2,4.8c-1.3,1.3-3,2-4.8,2H12V9.8
	C12,8,12.7,6.2,14,5c1.3-1.3,3-2,4.8-2h0.8V3.8z"/>
</svg>
